<?xml version="1.0" encoding="utf-8"?>
<!-- Generator: Adobe Illustrator 22.0.1, SVG Export Plug-In . SVG Version: 6.00 Build 0)  -->
<svg version="1.1" id="Ebene_1" xmlns="http://www.w3.org/2000/svg" xmlns:xlink="http://www.w3.org/1999/xlink" x="0px" y="0px"
	 viewBox="0 0 263.3 263.3" enable-background="new 0 0 263.3 263.3" xml:space="preserve">
<g>
	<circle fill="#3300A1" stroke="#8C17FF" stroke-width="10.2336" stroke-miterlimit="10" cx="131.7" cy="131.7" r="126.6"/>
	<path fill="#290082" d="M11.4,128.7c-1,69.5,52.7,122.6,119.6,123.2c34.9,0.3,67-14.3,89.5-39c-7.1-21.1-28.5-21.1-41-16.6
		c0,0-11.9,2.7-14.7,3.2c-6,1.2-11.9,1.5-18.3,1.4c-6.8-0.1-13.8-0.7-20.3-1.6c-13.9-2-30.6-6.1-47.6-27.3c-0.5-0.6-2.8-4.3-3.4-6.5
		c-1.8-7.2,3.3-14.6,9.5-16c7.5-1.6,11.9,1.7,17.3,7.1c7.4,7.3,17.7,11.8,28.9,11.8c22.7,0,40.9-18.1,41.1-40.9
		c0.2-20.6-14.8-37.7-34.5-41c-2.5-28.6-26.4-51.2-55.7-51.4C65,35.1,49.8,42.3,39.4,54c-0.8,0.8-1.2,1.4-1.6,1.9
		C20.5,76.6,11.8,99.6,11.4,128.7z"/>
	<circle fill="#290082" cx="165.3" cy="144.8" r="19.4"/>
	<circle fill="#290082" cx="166.2" cy="66.2" r="14.4"/>
	<circle fill="#290082" cx="208.6" cy="174" r="10.6"/>
	<circle fill="#290082" cx="126" cy="33.9" r="10.6"/>
	<circle fill="#290082" cx="198.1" cy="104" r="14.4"/>
	<g>
		<g>
			<g opacity="0.5">
				<path fill="#33BBFF" d="M154.2,94.3c19.4,13.6,24.1,40.3,10.5,59.7c-13.6,19.4-40.3,24.1-59.7,10.5
					c-19.4-13.6-24.1-40.3-10.5-59.7C108.1,85.4,134.8,80.7,154.2,94.3z"/>
			</g>
			<g>
				<g>
					<path fill="#FF407F" d="M147.8,103.6c14.1,9.9,17.5,29.2,7.6,43.3c-9.9,14.1-29.2,17.5-43.3,7.6c-14.1-9.9-17.5-29.2-7.6-43.3
						C114.4,97.2,133.8,93.8,147.8,103.6z"/>
				</g>
			</g>
			<g>
				<defs>
					<path id="SVGID_1_" d="M147.8,103.6c14.1,9.9,17.5,29.2,7.6,43.3c-9.9,14.1-29.2,17.5-43.3,7.6c-14.1-9.9-17.5-29.2-7.6-43.3
						C114.4,97.2,133.8,93.8,147.8,103.6z"/>
				</defs>
				<clipPath id="SVGID_2_">
					<use xlink:href="#SVGID_1_"  overflow="visible"/>
				</clipPath>
				<path clip-path="url(#SVGID_2_)" fill="#D4009B" d="M151.6,151.4c-8.8,2.6-18.6,1.3-26.6-4.4c-14.1-9.9-17.5-29.2-7.6-43.3
					c1.1-1.6,2.4-3.1,3.8-4.5c-6.5,1.9-12.5,6-16.7,12c-9.9,14.1-6.4,33.5,7.6,43.3C124.6,163.3,141.1,161.6,151.6,151.4z"/>
			</g>
		</g>
		<g>
			<path fill="#FF73A1" d="M151.4,117.8c3.4,5.9,2.8,12.5-1.3,14.8c-4.1,2.3-10.1-0.5-13.5-6.4c-3.4-5.9-2.8-12.5,1.3-14.8
				C142,109.1,148,111.9,151.4,117.8z"/>
		</g>
	</g>
	<g>
		<g>
			<g>
				
					<path fill="none" stroke="#00A1C9" stroke-width="5.9949" stroke-linecap="round" stroke-linejoin="round" stroke-miterlimit="10" d="
					M184.4,77.4c1.7-16.9-18.9-30-33.6-26.6"/>
			</g>
			<g>
				
					<path fill="none" stroke="#00A1C9" stroke-width="5.9949" stroke-linecap="round" stroke-linejoin="round" stroke-miterlimit="10" d="
					M200.7,75c-2.6-23.5-24.8-41.9-51.2-40.1"/>
			</g>
		</g>
	</g>
	<g>
		<g>
			<g>
				
					<path fill="none" stroke="#00A1C9" stroke-width="5.9949" stroke-linecap="round" stroke-linejoin="round" stroke-miterlimit="10" d="
					M95.5,181.7c-6.8,15.6,8.8,34.4,23.8,35.6"/>
			</g>
			<g>
				
					<path fill="none" stroke="#00A1C9" stroke-width="5.9949" stroke-linecap="round" stroke-linejoin="round" stroke-miterlimit="10" d="
					M79.3,178.9c-4.7,23.2,10.8,47.5,36.5,53.8"/>
			</g>
		</g>
	</g>
	<path opacity="0.17" fill="none" stroke="#FFFFFF" stroke-width="27.9221" stroke-linecap="round" stroke-miterlimit="10" d="
		M53.2,187.1c-1.3-2-2.6-4-3.8-6.1"/>
	<path opacity="0.17" fill="none" stroke="#FFFFFF" stroke-width="27.9221" stroke-linecap="round" stroke-miterlimit="10" d="
		M114.7,225.8c-11.4-2.3-22.5-6.6-32.4-12.8"/>
	<g>
		
			<path fill="none" stroke="#FF9900" stroke-width="26.4749" stroke-linecap="round" stroke-linejoin="round" stroke-miterlimit="10" d="
			M76.6,77.3c-15.4,4-24.2,19.5-19.6,34.8"/>
		
			<path fill="none" stroke="#FF407F" stroke-width="7.9425" stroke-linecap="round" stroke-linejoin="round" stroke-miterlimit="10" d="
			M76.6,77.3c-0.7,3.9-4.4,6.4-8.4,5.8l0,0c-5.8-0.8-10.2,4.7-8,10l0,0c1.5,3.7-0.1,7.8-3.7,9.5l0,0c-3.9,1.7-5.2,6.5-2.7,10.1
			l1.5,2.2"/>
		
			<path opacity="0.5" fill="none" stroke="#FFB0FB" stroke-width="13.2375" stroke-linecap="round" stroke-linejoin="round" stroke-miterlimit="10" d="
			M69.2,75.3c-8.3,8-13.2,18.9-7.2,32.7"/>
	</g>
	<g>
		
			<path fill="none" stroke="#FF9900" stroke-width="26.4749" stroke-linecap="round" stroke-linejoin="round" stroke-miterlimit="10" d="
			M198.3,170.6c14.4-6.8,20.1-23.8,12.7-37.8"/>
		
			<path fill="none" stroke="#FF407F" stroke-width="7.9425" stroke-linecap="round" stroke-linejoin="round" stroke-miterlimit="10" d="
			M198.3,170.6c0-3.9,3.1-7.1,7.2-7.3h0c5.8-0.3,9.1-6.5,5.9-11.4l0,0c-2.2-3.4-1.4-7.7,1.9-10l0,0c3.5-2.4,3.8-7.4,0.8-10.4
			l-1.9-1.9"/>
		
			<path opacity="0.5" fill="none" stroke="#FFB0FB" stroke-width="13.2375" stroke-linecap="round" stroke-linejoin="round" stroke-miterlimit="10" d="
			M206,171.2c6.6-9.4,9.4-21.1,0.9-33.5"/>
	</g>
	
		<ellipse transform="matrix(0.8477 -0.5304 0.5304 0.8477 -22.7217 111.1824)" opacity="0.25" fill="#FFFFFF" cx="182.3" cy="95.2" rx="50.1" ry="65.2"/>
	<circle fill="#00C7C4" cx="51.4" cy="173" r="8.3"/>
	<circle fill="#00C7C4" cx="59.9" cy="150.2" r="8.3"/>
	<circle fill="#00C7C4" cx="30.6" cy="146" r="8.3"/>
	<circle fill="#FF9900" cx="177.1" cy="201.5" r="8.3"/>
	<circle fill="#FF9900" cx="155.1" cy="224.8" r="8.3"/>
	<circle fill="#FF407F" cx="106.2" cy="54.9" r="8.3"/>
	<circle fill="#A142FF" cx="100.3" cy="31.9" r="8.3"/>
	<circle fill="#A142FF" cx="128.7" cy="67.4" r="8.3"/>
	<circle fill="#A142FF" cx="212.9" cy="101.3" r="8.3"/>
	<circle fill="#FF407F" cx="76.2" cy="40" r="8.3"/>
	<circle fill="#FF407F" cx="233.6" cy="114.1" r="8.3"/>
	<circle fill="#FF9900" cx="221.8" cy="75.5" r="8.3"/>
	<circle fill="#FF9900" cx="148.3" cy="187.4" r="8.3"/>
</g>
</svg>
