<svg xmlns="http://www.w3.org/2000/svg" xmlns:xlink="http://www.w3.org/1999/xlink" viewBox="0 0 423.83 282.79"><defs><style>.cls-1,.cls-2{fill:#0f0075;}.cls-1,.cls-7{opacity:0.25;}.cls-3{fill:#1b0f75;}.cls-4{fill:#290a4d;}.cls-5{fill:url(#Unbenannter_Verlauf_8);}.cls-6{fill:#6629a1;}.cls-7{fill:#7300fd;}.cls-8{fill:#02cda0;}.cls-9{fill:#fd8b4f;}.cls-10,.cls-13,.cls-18,.cls-19,.cls-20,.cls-27,.cls-31,.cls-33,.cls-41,.cls-42,.cls-43,.cls-44,.cls-45,.cls-46,.cls-47,.cls-48,.cls-49,.cls-50,.cls-52,.cls-53,.cls-54,.cls-55{fill:none;stroke-linecap:round;stroke-miterlimit:10;}.cls-10{stroke:#6629a1;stroke-width:2.74px;}.cls-11{fill:#bd3cee;opacity:0.5;}.cls-12{fill:#fd436e;}.cls-13{stroke:#4325b8;stroke-width:2.19px;}.cls-14{fill:#4325b8;}.cls-15{fill:url(#Unbenannter_Verlauf_8-2);}.cls-16{fill:url(#Unbenannter_Verlauf_8-3);}.cls-17{fill:#8e00ee;}.cls-18{stroke:#ea3dfd;}.cls-18,.cls-27,.cls-54{stroke-width:5.76px;}.cls-19,.cls-20,.cls-33,.cls-46{stroke:#04b2b8;}.cls-19{stroke-width:3.27px;}.cls-20{stroke-width:4.9px;}.cls-21{fill:#fd4052;}.cls-22{fill:#fda803;}.cls-23{fill:#019bfd;}.cls-24{fill:#7100c7;}.cls-25{fill:#310ec7;}.cls-26{fill:#006efd;}.cls-27,.cls-48{stroke:#fb84fd;}.cls-28{fill:#bb006e;}.cls-29{fill:#b513fd;}.cls-30{fill:#e936fd;}.cls-31,.cls-41,.cls-54{stroke:#2be9c2;}.cls-31{stroke-width:5.79px;}.cls-32{fill:#04b2b8;}.cls-33{stroke-width:3.03px;}.cls-34{fill:#cd31fd;}.cls-35{fill:#10d8fd;}.cls-36{fill:#21affc;}.cls-37{fill:#fccf28;}.cls-38{fill:#fd0080;}.cls-39{fill:#50008d;}.cls-40{fill:#8b01bb;}.cls-41{stroke-width:5.66px;}.cls-42,.cls-43{stroke:#1f92d7;}.cls-42,.cls-44{stroke-width:6.75px;}.cls-43,.cls-45{stroke-width:6.3px;}.cls-44,.cls-45{stroke:#20d7c4;}.cls-46{stroke-width:5.45px;}.cls-47{stroke:#aa4dfd;}.cls-47,.cls-48{stroke-width:7.01px;}.cls-49{stroke:#e936fd;stroke-width:5.07px;}.cls-50{stroke:#006efd;}.cls-50,.cls-52,.cls-53{stroke-width:5.57px;}.cls-51{fill:#20d7c4;}.cls-52{stroke:#ca00fd;}.cls-53,.cls-55{stroke:#019bfd;}.cls-55{stroke-width:3.9px;}</style><linearGradient id="Unbenannter_Verlauf_8" x1="1028.69" y1="109.93" x2="1031.44" y2="109.93" gradientTransform="matrix(-1, 0, 0, 1, 1133.62, 0)" gradientUnits="userSpaceOnUse"><stop offset="0" stop-color="#4325b8"/><stop offset="1" stop-color="#4325b8"/></linearGradient><linearGradient id="Unbenannter_Verlauf_8-2" x1="-5400.45" y1="9122.54" x2="-5397.7" y2="9122.54" gradientTransform="matrix(1, 0, 0, -1, 5756.64, 9302.21)" xlink:href="#Unbenannter_Verlauf_8"/><linearGradient id="Unbenannter_Verlauf_8-3" x1="-5511.09" y1="9021.05" x2="-5508.34" y2="9021.05" gradientTransform="matrix(1, 0, 0, -1, 5756.64, 9302.21)" xlink:href="#Unbenannter_Verlauf_8"/></defs><title>Asset 2</title><g id="Layer_2" data-name="Layer 2"><g id="Ebene_1" data-name="Ebene 1"><circle class="cls-1" cx="83.77" cy="77.21" r="3.57"/><circle class="cls-2" cx="83.77" cy="77.21" r="1.8"/><circle class="cls-3" cx="153.03" cy="103.14" r="1.8"/><circle class="cls-3" cx="132.48" cy="254.92" r="1.8"/><circle class="cls-1" cx="122.43" cy="206.09" r="3.57"/><circle class="cls-2" cx="155.82" cy="230.93" r="1.8"/><circle class="cls-3" cx="95.57" cy="170.2" r="1.8"/><circle class="cls-2" cx="150.52" cy="53.28" r="1.18"/><circle class="cls-2" cx="45.54" cy="53.47" r="1.18"/><circle class="cls-2" cx="42.86" cy="221.89" r="1.18"/><circle class="cls-2" cx="141.79" cy="241.82" r="1.18"/><circle class="cls-2" cx="79.29" cy="177" r="1.18"/><circle class="cls-2" cx="94.39" cy="48.47" r="1.18"/><circle class="cls-2" cx="208.89" cy="7.82" r="1.18"/><circle class="cls-2" cx="132.9" cy="33.28" r="1.18"/><circle class="cls-2" cx="62.05" cy="127.6" r="1.18"/><circle class="cls-4" cx="97.41" cy="110.12" r="1.66"/><circle class="cls-4" cx="120.66" cy="91.39" r="1.66"/><circle class="cls-4" cx="120.66" cy="193.15" r="1.66"/><circle class="cls-4" cx="238.47" cy="214.75" r="1.66"/><circle class="cls-4" cx="227.2" cy="6.07" r="1.66"/><circle class="cls-4" cx="104.87" cy="205.58" r="1.66"/><circle class="cls-4" cx="237.18" cy="228.9" r="1.66"/><circle class="cls-4" cx="169.66" cy="265.07" r="1.66"/><circle class="cls-4" cx="116.65" cy="269.85" r="1.66"/><circle class="cls-4" cx="218.25" cy="220.13" r="1.66"/><circle class="cls-4" cx="135.85" cy="1.66" r="1.66"/><circle class="cls-4" cx="1.66" cy="117.28" r="1.66"/><circle class="cls-2" cx="26.25" cy="56.65" r="1.18"/><circle class="cls-4" cx="166.72" cy="6.54" r="1.66"/><circle class="cls-1" cx="201.28" cy="279.22" r="3.57"/><circle class="cls-2" cx="201.28" cy="279.22" r="1.8"/><path class="cls-5" d="M102.18,110a1.36,1.36,0,0,1,1.29-1.45,1.38,1.38,0,1,1-1.29,1.45Z"/><path class="cls-6" d="M303.92,257.65a1.37,1.37,0,1,1,1.45,1.29A1.36,1.36,0,0,1,303.92,257.65Z"/><path class="cls-6" d="M195.65,259a1.38,1.38,0,1,1,1.45,1.3A1.39,1.39,0,0,1,195.65,259Z"/><path class="cls-6" d="M110.87,226a1.37,1.37,0,1,1,1.45,1.29A1.36,1.36,0,0,1,110.87,226Z"/><path class="cls-6" d="M88.51,44.77a1.37,1.37,0,1,1,2.74-.15A1.36,1.36,0,0,1,90,46.07,1.38,1.38,0,0,1,88.51,44.77Z"/><path class="cls-6" d="M136.5,236.84a1.38,1.38,0,1,1,1.3-1.45A1.39,1.39,0,0,1,136.5,236.84Z"/><path class="cls-6" d="M160.15,39.47A1.36,1.36,0,0,1,161.44,38a1.38,1.38,0,1,1-1.29,1.45Z"/><path class="cls-6" d="M172,59.16a1.37,1.37,0,1,1-1.45-1.29A1.38,1.38,0,0,1,172,59.16Z"/><circle class="cls-6" cx="116.65" cy="145.3" r="2.76"/><path class="cls-6" d="M119.61,55.7a1.38,1.38,0,1,1-1.94-.07A1.38,1.38,0,0,1,119.61,55.7Z"/><path class="cls-6" d="M162.53,46.7a1.38,1.38,0,1,1-1.95-.07A1.38,1.38,0,0,1,162.53,46.7Z"/><path class="cls-6" d="M131.82,91.92a1.38,1.38,0,1,1,1.94.07A1.39,1.39,0,0,1,131.82,91.92Z"/><path class="cls-6" d="M229.22,267.93a1.38,1.38,0,1,1,1.08,1.61A1.38,1.38,0,0,1,229.22,267.93Z"/><path class="cls-6" d="M77.87,183.65a1.37,1.37,0,1,1,1.45,1.29A1.36,1.36,0,0,1,77.87,183.65Z"/><path class="cls-6" d="M140.15,213.29a1.38,1.38,0,1,1-1.61,1.08A1.37,1.37,0,0,1,140.15,213.29Z"/><path class="cls-6" d="M129.9,161.41a1.38,1.38,0,1,1-1.62,1.08A1.38,1.38,0,0,1,129.9,161.41Z"/><path class="cls-6" d="M21.84,156.26a1.38,1.38,0,1,1-1.3,1.45A1.39,1.39,0,0,1,21.84,156.26Z"/><path class="cls-6" d="M189.21,11.47a1.37,1.37,0,1,1-1.62,1.08A1.37,1.37,0,0,1,189.21,11.47Z"/><circle class="cls-7" cx="28.51" cy="93.17" r="6.79"/><circle class="cls-8" cx="28.51" cy="93.17" r="2.95"/><circle class="cls-9" cx="84.01" cy="216.11" r="1.5"/><circle class="cls-9" cx="107.85" cy="89.11" r="1.5"/><circle class="cls-8" cx="138.79" cy="204.48" r="1.53"/><circle class="cls-7" cx="149.35" cy="258.13" r="6.95"/><circle class="cls-10" cx="149.35" cy="258.13" r="3.19"/><circle class="cls-11" cx="94.39" cy="249.67" r="4.81"/><circle class="cls-12" cx="94.39" cy="249.67" r="2.21"/><circle class="cls-7" cx="104.09" cy="62.79" r="6.79"/><line class="cls-13" x1="104.09" y1="50.74" x2="104.09" y2="74.83"/><line class="cls-13" x1="111.07" y1="62.79" x2="97.11" y2="62.79"/><circle class="cls-14" cx="104.09" cy="62.79" r="3.44"/><circle class="cls-8" cx="104.09" cy="62.79" r="1.72"/><circle class="cls-1" cx="377.34" cy="212.38" r="3.57"/><circle class="cls-2" cx="377.34" cy="212.38" r="1.8"/><circle class="cls-3" cx="308.08" cy="186.45" r="1.8"/><circle class="cls-3" cx="328.64" cy="34.68" r="1.8"/><circle class="cls-1" cx="338.68" cy="83.51" r="3.57"/><circle class="cls-2" cx="305.29" cy="58.67" r="1.8"/><circle class="cls-3" cx="365.54" cy="119.39" r="1.8"/><circle class="cls-2" cx="308.08" cy="225.94" r="1.18"/><circle class="cls-2" cx="422.65" cy="212.37" r="1.18"/><circle class="cls-2" cx="418.25" cy="67.71" r="1.18"/><circle class="cls-2" cx="319.32" cy="47.77" r="1.18"/><circle class="cls-2" cx="381.82" cy="112.6" r="1.18"/><circle class="cls-2" cx="366.73" cy="241.12" r="1.18"/><circle class="cls-2" cx="249.67" cy="260.23" r="1.18"/><circle class="cls-2" cx="325.7" cy="245.94" r="1.18"/><circle class="cls-2" cx="399.06" cy="161.99" r="1.18"/><circle class="cls-4" cx="363.7" cy="179.48" r="1.66"/><circle class="cls-4" cx="340.45" cy="198.21" r="1.66"/><circle class="cls-4" cx="340.45" cy="96.45" r="1.66"/><circle class="cls-4" cx="220.09" cy="53.3" r="1.66"/><circle class="cls-4" cx="237.01" cy="252.99" r="1.66"/><circle class="cls-4" cx="356.24" cy="84.02" r="1.66"/><circle class="cls-4" cx="221.38" cy="39.15" r="1.66"/><circle class="cls-4" cx="288.93" cy="14.14" r="1.66"/><circle class="cls-4" cx="344.46" cy="19.75" r="1.66"/><circle class="cls-4" cx="240.31" cy="47.93" r="1.66"/><circle class="cls-4" cx="322.74" cy="277.56" r="1.66"/><circle class="cls-4" cx="291.88" cy="272.68" r="1.66"/><circle class="cls-1" cx="252.8" cy="4.42" r="3.57"/><circle class="cls-2" cx="252.8" cy="4.42" r="1.8"/><path class="cls-15" d="M358.94,179.58a1.39,1.39,0,0,1-1.3,1.46,1.38,1.38,0,1,1,1.3-1.46Z"/><path class="cls-16" d="M246.63,279.81a1.38,1.38,0,1,1-1.07,1.2A1.37,1.37,0,0,1,246.63,279.81Z"/><path class="cls-6" d="M221.29,16.93a1.37,1.37,0,1,1-1.45-1.29A1.38,1.38,0,0,1,221.29,16.93Z"/><path class="cls-6" d="M263,20.19a1.38,1.38,0,0,1-1.3,1.45,1.37,1.37,0,0,1-.16-2.74A1.39,1.39,0,0,1,263,20.19Z"/><path class="cls-6" d="M350.24,63.57A1.36,1.36,0,0,1,349,65a1.38,1.38,0,1,1,1.29-1.45Z"/><path class="cls-6" d="M372.6,244.82a1.37,1.37,0,1,1-1.45-1.29A1.37,1.37,0,0,1,372.6,244.82Z"/><path class="cls-6" d="M324.61,52.76a1.37,1.37,0,1,1-1.3,1.45A1.38,1.38,0,0,1,324.61,52.76Z"/><path class="cls-6" d="M298.45,239.75a1.38,1.38,0,1,1-1.45-1.3A1.39,1.39,0,0,1,298.45,239.75Z"/><path class="cls-6" d="M286.59,220.05a1.37,1.37,0,1,1,1.45,1.3A1.37,1.37,0,0,1,286.59,220.05Z"/><circle class="cls-6" cx="344.46" cy="144.3" r="2.76"/><path class="cls-6" d="M341.5,233.89a1.37,1.37,0,1,1,1.94.07A1.37,1.37,0,0,1,341.5,233.89Z"/><path class="cls-6" d="M296.07,232.52a1.37,1.37,0,1,1,1.94.07A1.37,1.37,0,0,1,296.07,232.52Z"/><path class="cls-6" d="M329.29,197.68a1.37,1.37,0,1,1-1.94-.07A1.37,1.37,0,0,1,329.29,197.68Z"/><path class="cls-6" d="M290.25,33.21a1.38,1.38,0,0,1-2.7-.54,1.38,1.38,0,1,1,2.7.54Z"/><path class="cls-6" d="M407.21,100.58a1.37,1.37,0,1,1-1.45-1.29A1.36,1.36,0,0,1,407.21,100.58Z"/><path class="cls-6" d="M321,76.31a1.38,1.38,0,1,1,1.61-1.08A1.38,1.38,0,0,1,321,76.31Z"/><path class="cls-6" d="M331.21,128.18a1.37,1.37,0,1,1,1.62-1.07A1.37,1.37,0,0,1,331.21,128.18Z"/><path class="cls-6" d="M269.35,256.58a1.37,1.37,0,1,1,1.62-1.07A1.38,1.38,0,0,1,269.35,256.58Z"/><circle class="cls-7" cx="378.16" cy="147.06" r="6.79"/><circle class="cls-8" cx="378.16" cy="147.06" r="2.95"/><circle class="cls-9" cx="377.1" cy="73.49" r="1.5"/><circle class="cls-9" cx="353.26" cy="200.49" r="1.5"/><circle class="cls-8" cx="322.32" cy="85.11" r="1.53"/><circle class="cls-7" cx="311.76" cy="31.47" r="6.95"/><circle class="cls-10" cx="311.76" cy="31.47" r="3.19"/><circle class="cls-11" cx="366.73" cy="39.93" r="4.81"/><circle class="cls-12" cx="366.73" cy="39.93" r="2.21"/><circle class="cls-7" cx="357.02" cy="226.81" r="6.79"/><line class="cls-13" x1="357.02" y1="238.86" x2="357.02" y2="214.76"/><line class="cls-13" x1="350.04" y1="226.81" x2="364" y2="226.81"/><circle class="cls-14" cx="357.02" cy="226.81" r="3.44"/><circle class="cls-8" cx="357.02" cy="226.81" r="1.72"/><path class="cls-17" d="M230.6,39.71h0a12.53,12.53,0,0,1,12.53,12.53v0a2.06,2.06,0,0,1-2.06,2.06h0a12.53,12.53,0,0,1-12.53-12.53v0a2.06,2.06,0,0,1,2.06-2.06Z" transform="translate(114.21 -160.44) rotate(48.35)"/><path class="cls-18" d="M180.32,230.38c-1.28,1.18-14.52,4.33-23.23,1.46s-10.25-13.51-8.31-23"/><path class="cls-19" d="M329.36,69.58v8.49a3.25,3.25,0,0,0,3.25,3.25h0a3.26,3.26,0,0,0,3.25-3.25V69.4"/><path class="cls-20" d="M304.41,87.66S323.09,83.15,323.09,69"/><path class="cls-21" d="M327.6,50h9a0,0,0,0,1,0,0V71.35a0,0,0,0,1,0,0h-9a9,9,0,0,1-9-9V59.05a9,9,0,0,1,9-9Z" transform="translate(388.29 -266.92) rotate(90)"/><path class="cls-22" d="M327.28,58.07h1.61a3.64,3.64,0,0,1,3.64,3.64v5.86a0,0,0,0,1,0,0h-7.27a0,0,0,0,1,0,0V60.1A2,2,0,0,1,327.28,58.07Z"/><path class="cls-23" d="M323.36,58.07h7.27a0,0,0,0,1,0,0v5.86A3.64,3.64,0,0,1,327,67.57h0a3.64,3.64,0,0,1-3.64-3.64V58.07a0,0,0,0,1,0,0Z" transform="translate(653.99 125.65) rotate(180)"/><rect class="cls-22" x="314.66" y="67.67" width="25.89" height="4.73" rx="2.37" ry="2.37"/><path class="cls-17" d="M289.83,220.17a1.93,1.93,0,0,0,1.53,3.14,45.6,45.6,0,0,0,21.38-5.73,45.11,45.11,0,0,0,12.66-10.49,4.1,4.1,0,0,0-4-6.64,55.37,55.37,0,0,0-31.54,19.72Z"/><path class="cls-24" d="M301.35,180.42a1.93,1.93,0,0,0,1.69,3.06,45.18,45.18,0,0,0,33.17-17.94,4.11,4.11,0,0,0-4.37-6.42,55.48,55.48,0,0,0-30.49,21.3Z"/><path class="cls-17" d="M293.58,177.9a1.93,1.93,0,0,0,0,3.49,45.2,45.2,0,0,0,37.71.3,4.1,4.1,0,0,0-.73-7.73,55.29,55.29,0,0,0-37,3.94Z"/><path class="cls-25" d="M254.39,224.74a1.93,1.93,0,0,0-.91,3.37,45.15,45.15,0,0,0,36.3,10.22,4.1,4.1,0,0,0,1.33-7.65,55.35,55.35,0,0,0-36.72-5.94Z"/><path class="cls-26" d="M254.7,219.05a1.93,1.93,0,0,0-2.25,2.67A45.21,45.21,0,0,0,281,246.31a4.1,4.1,0,0,0,4.43-6.38,55.34,55.34,0,0,0-30.77-20.88Z"/><path class="cls-27" d="M232.34,63.57c2.17-2.87,7-9.08,8.91-15.87a43.35,43.35,0,0,0,1.19-17.26"/><circle class="cls-28" cx="242.44" cy="30.44" r="7.3"/><path class="cls-29" d="M81.72,178.87l-1.8,4.63a10.78,10.78,0,0,1-15.15,5.56l-3-1.63a12.89,12.89,0,0,1-5.89-16h0a12.9,12.9,0,0,1,15.54-7.71l3.22.92A10.76,10.76,0,0,1,81.72,178.87Z"/><path class="cls-30" d="M97.74,157.85l-3.24,2.63a9,9,0,0,1-13.36-2.19l-1.52-2.43a10.83,10.83,0,0,1,2.32-14.15h0a10.83,10.83,0,0,1,14.55.78l2,2A9,9,0,0,1,97.74,157.85Z"/><path class="cls-31" d="M176.53,191.9A92.08,92.08,0,0,0,163.11,187c-21.21-6-34.48-1.49-56.29-2.71a143.12,143.12,0,0,1-33.09-5.89"/><path class="cls-32" d="M134.79,182.82l-20.66,1.08a48.23,48.23,0,0,0-33.82,16.42l-2.45,2.81,18.34-6.72a48.07,48.07,0,0,1,7.42-2.07l37.21-7.21Z"/><path class="cls-31" d="M144.25,174a62.67,62.67,0,0,1-35-6.24A61.58,61.58,0,0,1,90.6,153.1"/><path class="cls-17" d="M122.2,175.81h0a16.32,16.32,0,0,1,16.32,16.32v0a2.68,2.68,0,0,1-2.68,2.68h0a16.32,16.32,0,0,1-16.32-16.32v0a2.68,2.68,0,0,1,2.68-2.68Z" transform="matrix(0.96, -0.26, 0.26, 0.96, -44.13, 40.38)"/><path class="cls-17" d="M130.33,171.8h0a16.32,16.32,0,0,1,16.32,16.32v0a2.68,2.68,0,0,1-2.68,2.68h0a16.32,16.32,0,0,1-16.32-16.32v0a2.68,2.68,0,0,1,2.68-2.68Z" transform="translate(99.26 -42.85) rotate(27.51)"/><path class="cls-17" d="M128.56,189h0a12,12,0,0,1,12,12v2a0,0,0,0,1,0,0h-2a12,12,0,0,1-12-12v0A2,2,0,0,1,128.56,189Z" transform="translate(-94.78 260.05) rotate(-71.4)"/><path class="cls-17" d="M303.44,56.14h0a3.22,3.22,0,0,1,3.22,3.22v0A19.6,19.6,0,0,1,287.06,79h0a3.22,3.22,0,0,1-3.22-3.22v0A19.6,19.6,0,0,1,303.44,56.14Z" transform="translate(592.28 8.3) rotate(155.83)"/><path class="cls-17" d="M293.34,54.88h0a3.22,3.22,0,0,1,3.22,3.22v0A19.6,19.6,0,0,1,277,77.7h0a3.22,3.22,0,0,1-3.22-3.22v0a19.6,19.6,0,0,1,19.6-19.6Z" transform="matrix(-0.39, 0.92, -0.92, -0.39, 457.99, -170)"/><path class="cls-17" d="M305.66,68.81H308a0,0,0,0,1,0,0v2.36a14.36,14.36,0,0,1-14.36,14.36h0a2.36,2.36,0,0,1-2.36-2.36v0A14.36,14.36,0,0,1,305.66,68.81Z" transform="translate(512.86 301.44) rotate(-147.99)"/><path class="cls-33" d="M79,91v22.6a5.16,5.16,0,0,0,5.16,5.16h0a5.16,5.16,0,0,0,5.15-5.16V103H99.69V133.4"/><path class="cls-34" d="M91.33,93.77A41.54,41.54,0,0,0,118,57.14,50.91,50.91,0,0,0,91.33,93.77Z"/><path class="cls-34" d="M71.23,85.75a41.53,41.53,0,0,0-6.51-44.83,50.92,50.92,0,0,0,6.51,44.83Z"/><path class="cls-34" d="M75.2,92.69A41.55,41.55,0,0,0,50.74,54.56,50.9,50.9,0,0,0,75.2,92.69Z"/><path class="cls-17" d="M60.06,78.9h0a3.22,3.22,0,0,1,3.22,3.22v0A19.57,19.57,0,0,1,43.7,101.7h0a3.22,3.22,0,0,1-3.22-3.22v0A19.57,19.57,0,0,1,60.06,78.9Z" transform="translate(120.16 11.66) rotate(70.84)"/><path class="cls-24" d="M67.72,83.86a22.8,22.8,0,0,0,45.6,0Z"/><path class="cls-23" d="M74.85,84,71.2,85.77A28.54,28.54,0,0,0,57,101.33L55.63,105a5.75,5.75,0,0,1-7.11,3.45h0a5.75,5.75,0,0,1-3.47-7.91h0a28.5,28.5,0,0,1,25-16.45Z"/><path class="cls-35" d="M78.45,84.64l-5.87,5A22,22,0,0,0,64.93,104l-.84,7.52a6.15,6.15,0,0,1-6.46,5.44h0A6.14,6.14,0,0,1,52,109.64l1-5.12A22,22,0,0,1,68.55,87.45Z"/><path class="cls-36" d="M88.5,82.32,83,87a20.67,20.67,0,0,0-7.17,13.44l-.79,7a5.75,5.75,0,0,1-6.05,5.1h0a5.75,5.75,0,0,1-5.32-6.81l.91-4.79A20.66,20.66,0,0,1,79.22,85Z"/><path class="cls-21" d="M76.38,54.82h20.4a10.37,10.37,0,0,1,10.37,10.37V84.8a.33.33,0,0,1-.33.33H66.34A.33.33,0,0,1,66,84.8V65.19A10.37,10.37,0,0,1,76.38,54.82Z"/><path class="cls-37" d="M99.67,85.13H66.31a.31.31,0,0,1-.3-.3V64.24a9.42,9.42,0,0,1,9.42-9.42H90.55A9.42,9.42,0,0,1,100,64.24V84.83A.31.31,0,0,1,99.67,85.13Z"/><path class="cls-21" d="M88.33,60.48h2a0,0,0,0,1,0,0v8.11a0,0,0,0,1,0,0h-2a4.05,4.05,0,0,1-4.05-4.05v0a4.05,4.05,0,0,1,4.05-4.05Z"/><circle class="cls-23" cx="90.45" cy="64.54" r="4.05"/><rect class="cls-38" x="62.18" y="81.9" width="46.81" height="6.96" rx="3.48" ry="3.48"/><path class="cls-21" d="M71.15,67.55h9.11a0,0,0,0,1,0,0V76.9a5,5,0,0,1-5,5H73.94a2.79,2.79,0,0,1-2.79-2.79V67.55a0,0,0,0,1,0,0Z" transform="translate(151.41 149.45) rotate(-180)"/><path class="cls-23" d="M78.15,67.55h0a4.36,4.36,0,0,1,4.36,4.36v10a0,0,0,0,1,0,0H73.78a0,0,0,0,1,0,0v-10A4.36,4.36,0,0,1,78.15,67.55Z"/><path class="cls-30" d="M99.28,86.18a4.53,4.53,0,0,0,5.26,6.93,29.39,29.39,0,0,0,8.15-4.77,28.66,28.66,0,0,0,9.66-16.11,38,38,0,0,0-16.87,7.52A34,34,0,0,0,99.28,86.18Z"/><circle class="cls-24" cx="227.08" cy="147.76" r="100.52"/><path class="cls-39" d="M320.52,110.61a94.38,94.38,0,0,1-186.87,0,100.52,100.52,0,1,0,186.87,0Z"/><path class="cls-39" d="M181.78,124.27l11.83,1.07a4.5,4.5,0,0,1,2.26,8.11l-9.57,7a9,9,0,0,1-14-4.67h0A9,9,0,0,1,181.78,124.27Z"/><path class="cls-39" d="M206.84,96.49l.25,11.88a4.5,4.5,0,0,1-7.8,3.15l-8.07-8.73a9,9,0,0,1,3.09-14.4h0A9,9,0,0,1,206.84,96.49Z"/><path class="cls-39" d="M227.78,98.24l-6,11.62a5,5,0,0,1-9.2-1l-3.22-12.67a9.9,9.9,0,0,1,10.52-12.3h0A9.9,9.9,0,0,1,227.78,98.24Z"/><path class="cls-39" d="M184.58,101.48l10.07,10.4a5.48,5.48,0,0,1-4.36,9.27L175.87,120a11,11,0,0,1-9.17-15.4h0A11,11,0,0,1,184.58,101.48Z"/><circle class="cls-39" cx="213.43" cy="73.98" r="6.37"/><circle class="cls-39" cx="226.18" cy="67.02" r="6.37"/><circle class="cls-39" cx="242.21" cy="62.03" r="6.37"/><circle class="cls-39" cx="239.5" cy="84.08" r="6.37"/><circle class="cls-39" cx="201.82" cy="65.05" r="6.37"/><circle class="cls-39" cx="213.95" cy="58.17" r="5.15"/><path class="cls-39" d="M207.81,150.25l2.13,11.7a4.5,4.5,0,0,1-7.21,4.34l-9.34-7.35a9,9,0,0,1,.77-14.7h0A9,9,0,0,1,207.81,150.25Z"/><path class="cls-39" d="M222.09,129.43,221,143.86a5.48,5.48,0,0,1-9.82,2.9l-8.75-11.52a11,11,0,0,1,5.41-17.08h0A11,11,0,0,1,222.09,129.43Z"/><path class="cls-39" d="M255.36,144.82l9.13,7.61a4.5,4.5,0,0,0,7.33-4.14L270,136.54A9,9,0,0,0,256.86,130h0A9,9,0,0,0,255.36,144.82Z"/><path class="cls-39" d="M239.48,182.33l11.3-3.67a4.5,4.5,0,0,0,.41-8.41L240.3,165.5a9,9,0,0,0-12.58,7.64h0A9,9,0,0,0,239.48,182.33Z"/><path class="cls-39" d="M267.13,194.26l4-12.45a5,5,0,0,0-7.24-5.76l-11.23,6.67a9.9,9.9,0,0,0-1.26,16.14h0A9.89,9.89,0,0,0,267.13,194.26Z"/><path class="cls-39" d="M238.16,161.1,252,165.21a5.48,5.48,0,0,0,6.21-8.15l-7.66-12.27a11,11,0,0,0-17.89-1h0A11,11,0,0,0,238.16,161.1Z"/><path class="cls-39" d="M285.32,148.64l11.88-.34a4.5,4.5,0,0,0,2.76-8l-9.11-7.62a9,9,0,0,0-14.23,3.79h0A9,9,0,0,0,285.32,148.64Z"/><path class="cls-39" d="M299.33,114.32l-10.89,4.78a4.51,4.51,0,0,0,.44,8.41l11.32,3.63A9,9,0,0,0,312,122.28h0A9,9,0,0,0,299.33,114.32Z"/><path class="cls-39" d="M264.52,97.11l-4,.78a28.49,28.49,0,0,0-17.69,11.4l-2.3,3.21a5.74,5.74,0,0,1-7.76,1.51h0a5.74,5.74,0,0,1-1.32-8.53h0A28.48,28.48,0,0,1,259.88,96Z"/><path class="cls-39" d="M267.83,98.66,260.88,102a22,22,0,0,0-11.07,11.9l-2.75,7.05a6.13,6.13,0,0,1-7.63,3.6h0a6.14,6.14,0,0,1-3.62-8.48l2.25-4.69a22,22,0,0,1,19.48-12.5Z"/><path class="cls-39" d="M278.14,99l-6.51,3.09a20.64,20.64,0,0,0-10.38,11.15l-2.58,6.61a5.76,5.76,0,0,1-7.16,3.38h0a5.76,5.76,0,0,1-3.39-8l2.11-4.4A20.66,20.66,0,0,1,268.5,99.16Z"/><path class="cls-39" d="M267.23,113.11l35-3.38a6.31,6.31,0,0,0,3.1-11.39L276.88,77.7a19.63,19.63,0,0,0-30.37,10.35h0A19.63,19.63,0,0,0,267.23,113.11Z"/><path class="cls-39" d="M286.7,171.55l10.7-9.75a5.48,5.48,0,0,0-3.77-9.52l-14.47.21a11,11,0,0,0-10.11,14.79h0A11,11,0,0,0,286.7,171.55Z"/><path class="cls-26" d="M311.62,137.34c-1.45,6.34-10.63,6.19-11.74-.22a47.07,47.07,0,0,1-.65-10.53,47.64,47.64,0,0,1,1.64-10.17c1.76-6.37,10.94-5.75,11.76.81a58.14,58.14,0,0,1-1,20.11Z"/><path class="cls-29" d="M320.74,116l4.32,2.46a10.77,10.77,0,0,0,15.26-5.23l1.31-3.16a12.89,12.89,0,0,0-5.54-16.16h0a12.9,12.9,0,0,0-16.93,3.81l-1.92,2.74A10.76,10.76,0,0,0,320.74,116Z"/><path class="cls-31" d="M304.67,136a142.28,142.28,0,0,0,22-25.43"/><path class="cls-36" d="M302,144.25a4.12,4.12,0,0,1-2.49-7.35,47.43,47.43,0,0,1,33.89-9.8,4.12,4.12,0,0,1,1.86,7.52A58.25,58.25,0,0,1,302,144.25Z"/><path class="cls-18" d="M196.08,238.45A51.9,51.9,0,0,1,185,250.83a49.34,49.34,0,0,1-4.61,3.3"/><circle class="cls-40" cx="180.93" cy="253.28" r="7.3"/><circle class="cls-40" cx="148.32" cy="208.39" r="7.3"/><circle class="cls-38" cx="213.95" cy="69.43" r="4.94"/><circle class="cls-38" cx="225.01" cy="61.49" r="4.47"/><circle class="cls-38" cx="311.21" cy="179.66" r="4.94"/><circle class="cls-38" cx="322.6" cy="170.2" r="4.94"/><path class="cls-17" d="M166.75,94A47.59,47.59,0,0,0,181.5,44.26,58.29,58.29,0,0,0,166.75,94Z"/><path class="cls-17" d="M166.4,106.05A45.3,45.3,0,0,0,203.32,73.3a55.47,55.47,0,0,0-36.92,32.75Z"/><path class="cls-34" d="M166.08,99a47.63,47.63,0,0,0,28.57-43.33A58.27,58.27,0,0,0,166.08,99Z"/><path class="cls-24" d="M292.64,218.72a1.93,1.93,0,0,0,3.36-.87,47.48,47.48,0,0,0-9.64-39.32,4.1,4.1,0,0,0-7.27,2.55,58.24,58.24,0,0,0,13.55,37.64Z"/><path class="cls-17" d="M290.8,221.53a1.92,1.92,0,0,0,3.41.64,47.54,47.54,0,0,0,8-39.69,4.1,4.1,0,0,0-7.67-.78,58.32,58.32,0,0,0-3.74,39.83Z"/><path class="cls-34" d="M290.71,220.69a1.92,1.92,0,0,0,2.64,2.26,47.52,47.52,0,0,0,26.73-30.4,4.1,4.1,0,0,0-6.25-4.5,58.17,58.17,0,0,0-23.12,32.64Z"/><path class="cls-41" d="M213.68,40.67a22,22,0,0,0-.49,17.16"/><path class="cls-26" d="M218.27,48.25l-2.4.39a16.71,16.71,0,0,1-8.38-.81L205.21,47a5.39,5.39,0,0,1-3.5-5.58h0a5.38,5.38,0,0,1,7.13-4.57h0a16.53,16.53,0,0,0,7.8.75h0a5.4,5.4,0,0,1,6.13,5.86h0A5.4,5.4,0,0,1,218.27,48.25Z"/><path class="cls-41" d="M193.53,41.24a32.38,32.38,0,0,1,8.56,23.26"/><path class="cls-36" d="M207.48,40.2l-3,2.6a27.31,27.31,0,0,1-12.51,6l-3.93.76a8.89,8.89,0,0,1-9.69-4.88h0a8.88,8.88,0,0,1,6.17-12.53h0a27.23,27.23,0,0,0,11.64-5.59h0a8.89,8.89,0,0,1,13.63,3h0A8.87,8.87,0,0,1,207.48,40.2Z"/><path class="cls-42" d="M157,80.32a18.44,18.44,0,0,1-12.38-6.19"/><path class="cls-42" d="M157.48,91.83a29,29,0,0,1-17.21-4.43"/><path class="cls-42" d="M158.46,104.12A27.49,27.49,0,0,1,143.14,101"/><path class="cls-42" d="M161.4,114.65a47.45,47.45,0,0,1-12.06.39"/><path class="cls-43" d="M166.79,124.32a35.27,35.27,0,0,1-8.65,1.09"/><path class="cls-44" d="M169.18,76.62A18.36,18.36,0,0,1,157,80.32"/><path class="cls-44" d="M169.66,88.13a28.5,28.5,0,0,1-12.18,3.7"/><path class="cls-44" d="M172.23,98.79a24.36,24.36,0,0,1-13,5.25"/><path class="cls-44" d="M173.53,111.23a47.4,47.4,0,0,1-10.51,3"/><path class="cls-45" d="M175.55,121.09a35.51,35.51,0,0,1-7.68,3"/><path class="cls-46" d="M173.7,133.4c-5.66-7-15.8-21.81-17.63-42.49a74.25,74.25,0,0,1,.65-18.29"/><path class="cls-44" d="M157.09,71.14a28.91,28.91,0,0,0,.24-7.83"/><path class="cls-47" d="M132.33,110.27a17.17,17.17,0,0,1-12.57-2.77"/><path class="cls-47" d="M135.37,120.55a27.07,27.07,0,0,1-16.53-.1"/><path class="cls-47" d="M139,131.41a25.42,25.42,0,0,1-14.52.69"/><path class="cls-47" d="M144.07,140.25a43.88,43.88,0,0,1-10.79,3.08"/><path class="cls-48" d="M142.48,104.18a17,17,0,0,1-10.15,6.09"/><path class="cls-48" d="M145.52,114.46a26.56,26.56,0,0,1-10.15,6.09"/><path class="cls-48" d="M150.25,123.49A27.16,27.16,0,0,1,139.94,131"/><path class="cls-48" d="M153.81,134.26c-2.17,1.61-5.09,4-8.26,5.08"/><path class="cls-49" d="M159.41,154.38c-6.7-5.06-19.19-16.1-25.52-34.34a68.66,68.66,0,0,1-3.55-16.65"/><path class="cls-48" d="M129.61,93.84a29.16,29.16,0,0,0,.41,7.82"/><path class="cls-50" d="M256.54,134.23a37.21,37.21,0,0,0-16.37,15.87,36.75,36.75,0,0,0-4.17,18"/><path class="cls-51" d="M247.46,141.56l9.51-4.71a8.28,8.28,0,0,1,11.78,5.69h0a8.28,8.28,0,0,1-8.43,10l-10.6-.41A5.58,5.58,0,0,1,247.46,141.56Z"/><path class="cls-51" d="M236,142.76l-5.16-9.27a8.29,8.29,0,0,1,5.13-12h0a8.28,8.28,0,0,1,10.4,7.94l.09,10.61A5.58,5.58,0,0,1,236,142.76Z"/><path class="cls-36" d="M239.49,139.66,244,128.79a9.26,9.26,0,0,1,14.3-3.43h0a9.27,9.27,0,0,1,.37,14.71l-9.33,7.18C244.29,151.17,237,145.58,239.49,139.66Z"/><path class="cls-42" d="M258.92,176.29a18.53,18.53,0,0,0,13.83-.54"/><path class="cls-42" d="M253.75,186.58a29,29,0,0,0,17.51,3"/><path class="cls-42" d="M247.8,197.38a27.43,27.43,0,0,0,15.23,3.5"/><path class="cls-42" d="M240.8,205.78a47.24,47.24,0,0,0,10.83,5.31"/><path class="cls-43" d="M231.9,212.37a35.11,35.11,0,0,0,7.44,4.55"/><path class="cls-44" d="M249.34,167.91a18.34,18.34,0,0,0,9.58,8.38"/><path class="cls-44" d="M244.17,178.2a28.31,28.31,0,0,0,9.58,8.38"/><path class="cls-44" d="M237.45,186.86A24.19,24.19,0,0,0,247.18,197"/><path class="cls-44" d="M231.14,197.67a47.65,47.65,0,0,0,8.36,7"/><path class="cls-45" d="M225.25,205.82a34.84,34.84,0,0,0,5.78,5.86"/><path class="cls-46" d="M221.87,217.81c8.06-4.09,23.38-13.39,33.54-31.48a74,74,0,0,0,6.93-16.94"/><path class="cls-44" d="M262.61,167.88a29.44,29.44,0,0,1,3-7.23"/><path class="cls-47" d="M267.55,216.29a17.11,17.11,0,0,0,12.39,3.48"/><path class="cls-47" d="M260,223.92c5.54,5.75,11.32,5.63,13.81,6.07"/><path class="cls-47" d="M251.66,231.77a25.48,25.48,0,0,0,12.48,7.46"/><path class="cls-47" d="M243.06,237.2a44,44,0,0,0,8.06,7.8"/><path class="cls-48" d="M261.46,206.13a17.07,17.07,0,0,0,6.09,10.16"/><path class="cls-48" d="M253.94,213.76A26.37,26.37,0,0,0,260,223.92"/><path class="cls-48" d="M245.51,219.5a27.18,27.18,0,0,0,5.57,11.44"/><path class="cls-48" d="M237.29,227.32c1.16,2.45,2.59,6,4.89,8.38"/><path class="cls-49" d="M222.86,242.42c8.3-1.3,24.52-5.15,38.7-18.25a69.09,69.09,0,0,0,11-13"/><path class="cls-48" d="M277.69,203.08a29.29,29.29,0,0,1-4,6.71"/><path class="cls-17" d="M159,176.93h0a16.32,16.32,0,0,1,16.32,16.32v0a2.68,2.68,0,0,1-2.68,2.68h0a16.32,16.32,0,0,1-16.32-16.32v0A2.68,2.68,0,0,1,159,176.93Z" transform="translate(139.06 -61.65) rotate(35.49)"/><path class="cls-17" d="M167.27,180.68h0A16.32,16.32,0,0,1,183.59,197v0a2.68,2.68,0,0,1-2.68,2.68h0a16.32,16.32,0,0,1-16.32-16.32v0A2.68,2.68,0,0,1,167.27,180.68Z" transform="translate(324.75 -19.04) rotate(78.23)"/><path class="cls-17" d="M155.46,189.73h0a12,12,0,0,1,12,12v2a0,0,0,0,1,0,0h-2a12,12,0,0,1-12-12v0A2,2,0,0,1,155.46,189.73Z" transform="translate(-59.13 69.36) rotate(-20.69)"/><path class="cls-52" d="M138.53,170.2A37.71,37.71,0,0,0,150,183.27a38.33,38.33,0,0,0,21.89,6.95"/><path class="cls-17" d="M181.23,163.2h0a14,14,0,0,1,14,14v0a2.31,2.31,0,0,1-2.31,2.31h0a14,14,0,0,1-14-14v0a2.31,2.31,0,0,1,2.31-2.31Z" transform="translate(187.25 -82.34) rotate(47.55)"/><path class="cls-26" d="M150.5,182.79l-5.16,3.37a13.37,13.37,0,0,1-19.3-5.31l-1.86-3.8a16,16,0,0,1,5.62-20.44h0A16,16,0,0,1,151,160l2.59,3.25A13.35,13.35,0,0,1,150.5,182.79Z"/><path class="cls-53" d="M171.82,145.3a37.26,37.26,0,0,0,3.92,22.46,36.86,36.86,0,0,0,12.53,13.58"/><path class="cls-35" d="M177.4,166l-6.26,1.12a13.77,13.77,0,0,1-16.2-12.79L154.7,150a16.5,16.5,0,0,1,13.55-17.17h0a16.51,16.51,0,0,1,18.82,11.79l1.16,4.13A13.79,13.79,0,0,1,177.4,166Z"/><path class="cls-29" d="M211.59,136.91h0a8.13,8.13,0,0,1-1.19-12.25l3.86-4a7.38,7.38,0,0,1,9.59-.93h0a7.38,7.38,0,0,1,2.24,9.49l-2.64,4.93A8.12,8.12,0,0,1,211.59,136.91Z"/><path class="cls-29" d="M213,164.57h0a9.32,9.32,0,0,1-1.36-14l4.42-4.63a8.45,8.45,0,0,1,11-1.06h0a8.44,8.44,0,0,1,2.57,10.88l-3,5.65A9.32,9.32,0,0,1,213,164.57Z"/><path class="cls-54" d="M204.9,197.15c.72-2,1.79-5.06,2.81-8.92,6.73-25.37-.28-40.21,2.06-64.18a108.61,108.61,0,0,1,7.16-29.27"/><path class="cls-30" d="M205.48,125.3h0a8.12,8.12,0,0,1-11.36-4.73l-1.75-5.31a7.37,7.37,0,0,1,3.7-8.89h0a7.36,7.36,0,0,1,9.42,2.5l3.11,4.64A8.14,8.14,0,0,1,205.48,125.3Z"/><path class="cls-29" d="M205.48,125.3a8.12,8.12,0,0,1-11.36-4.73l-1.75-5.31a7.37,7.37,0,0,1,3.7-8.89"/><path class="cls-30" d="M206.3,152.87h0a9.32,9.32,0,0,1-13.93-2.24L189,145.18a8.45,8.45,0,0,1,1.75-10.9h0a8.45,8.45,0,0,1,11.18.26l4.7,4.35A9.33,9.33,0,0,1,206.3,152.87Z"/><path class="cls-29" d="M206.3,152.87a9.32,9.32,0,0,1-13.93-2.24L189,145.18a8.45,8.45,0,0,1,1.75-10.9"/><path class="cls-27" d="M192,230c-2.68,2.4-12.13,13.54-37.13,15.84"/><circle class="cls-28" cx="154.87" cy="245.83" r="7.3"/><path class="cls-34" d="M207.72,184.62l6.5-11.2a10.11,10.11,0,0,1,15.83-2.14h0a10.11,10.11,0,0,1-1.83,15.86l-11.07,6.72A6.81,6.81,0,0,1,207.72,184.62Z"/><path class="cls-34" d="M196.83,193.59l-11.5-6a10.12,10.12,0,0,1-2.89-15.71h0A10.12,10.12,0,0,1,198.38,173l7.23,10.74A6.81,6.81,0,0,1,196.83,193.59Z"/><path class="cls-30" d="M198.34,188.05l-2.69-14.12c-1.38-7.19,4.66-13.66,12.24-13.13h0c7.58.54,12.64,7.79,10.27,14.72l-4.65,13.6C211,196.54,199.81,195.75,198.34,188.05Z"/><path class="cls-37" d="M202.31,180.88h1.16a15,15,0,0,1,15,15v21.76a0,0,0,0,1,0,0H187.34a0,0,0,0,1,0,0V195.85A15,15,0,0,1,202.31,180.88Z"/><path class="cls-30" d="M215.16,220a46.9,46.9,0,0,0,11.91-20.72,51.61,51.61,0,0,0,.8-24.54A58.7,58.7,0,0,0,217.35,195,63.49,63.49,0,0,0,215.16,220Z"/><rect class="cls-38" x="186.63" y="214.24" width="37.59" height="7.27" rx="3.64" ry="3.64"/><path class="cls-34" d="M196.17,219c-3.56.23-12.59.36-21-5.09a30.07,30.07,0,0,1-12.25-16.44,41,41,0,0,1,19.48,5.89A36.29,36.29,0,0,1,196.17,219Z"/><path class="cls-30" d="M199.56,221.47a34.56,34.56,0,0,1-36.93-7.18,42.2,42.2,0,0,1,36.93,7.18Z"/><path class="cls-22" d="M193.38,199.25h11.47a0,0,0,0,1,0,0v9.25a5.74,5.74,0,0,1-5.74,5.74h-2.54a3.2,3.2,0,0,1-3.2-3.2V199.25A0,0,0,0,1,193.38,199.25Z" transform="translate(398.23 413.48) rotate(-180)"/><path class="cls-23" d="M202.09,199.25h0a5.74,5.74,0,0,1,5.74,5.74v9.25a0,0,0,0,1,0,0H196.36a0,0,0,0,1,0,0V205A5.74,5.74,0,0,1,202.09,199.25Z"/><path class="cls-30" d="M212.75,106.18h0a11.13,11.13,0,0,1-4.93-16.11l4.07-6.47a10.08,10.08,0,0,1,12.6-3.85h0a10.07,10.07,0,0,1,5.59,12.11l-2.19,7.32A11.13,11.13,0,0,1,212.75,106.18Z"/><path class="cls-29" d="M212.75,106.18a11.13,11.13,0,0,1-4.93-16.11l4.07-6.47a10.08,10.08,0,0,1,12.6-3.85"/><path class="cls-51" d="M222,232.9l-10.53,1.26a8.29,8.29,0,0,1-9.21-9.3h0a8.3,8.3,0,0,1,11.29-6.63l9.86,3.94A5.58,5.58,0,0,1,222,232.9Z"/><path class="cls-51" d="M233.21,235.6,235,246.07a8.28,8.28,0,0,1-8.85,9.63h0a8.28,8.28,0,0,1-7.15-11l3.46-10A5.58,5.58,0,0,1,233.21,235.6Z"/><path class="cls-36" d="M228.84,237.34l-7.92,8.73a9.26,9.26,0,0,1-14.63-1.54h0a9.27,9.27,0,0,1,4.57-14l11.2-3.65C228.16,224.89,233.15,232.59,228.84,237.34Z"/><path class="cls-51" d="M299.32,165.17l2.86-10.28a8.33,8.33,0,0,1,12.18-5h0a8.33,8.33,0,0,1,1.83,13l-7.43,7.66A5.62,5.62,0,0,1,299.32,165.17Z"/><path class="cls-26" d="M292.49,174.59l-10.41-2.37a8.34,8.34,0,0,1-5.56-11.93h0a8.33,8.33,0,0,1,12.93-2.45l8,7.07A5.61,5.61,0,0,1,292.49,174.59Z"/><path class="cls-36" d="M292.55,169.86l-5.08-10.71a9.31,9.31,0,0,1,7-13h0a9.31,9.31,0,0,1,11.25,9.61l-.89,11.81C304.39,174,295.32,175.69,292.55,169.86Z"/><path class="cls-23" d="M266,92.72l-4.05.27a28.49,28.49,0,0,0-19,9.07l-2.69,2.9a5.75,5.75,0,0,1-7.88.51h0a5.74,5.74,0,0,1-.24-8.63h0a28.51,28.51,0,0,1,29.4-5.79Z"/><path class="cls-35" d="M269.08,94.68l-7.3,2.38a22.07,22.07,0,0,0-12.5,10.4l-3.61,6.65a6.13,6.13,0,0,1-8,2.6h0a6.13,6.13,0,0,1-2.51-8.86l2.82-4.38a22,22,0,0,1,20.91-9.92Z"/><path class="cls-36" d="M279.27,96.32l-6.85,2.24a20.65,20.65,0,0,0-11.71,9.75l-3.39,6.23a5.75,5.75,0,0,1-7.53,2.44h0a5.75,5.75,0,0,1-2.36-8.31l2.65-4.1a20.65,20.65,0,0,1,19.6-9.31Z"/><path class="cls-22" d="M287.46,78.08h13.85A9.89,9.89,0,0,1,311.21,88v3.58a9.89,9.89,0,0,1-9.89,9.89H287.46a0,0,0,0,1,0,0V78.08a0,0,0,0,1,0,0Z"/><path class="cls-21" d="M303.08,84.08h2a0,0,0,0,1,0,0v8.11a0,0,0,0,1,0,0h-2A4.05,4.05,0,0,1,299,88.13v0a4.05,4.05,0,0,1,4.05-4.05Z" transform="translate(604.06 176.26) rotate(-180)"/><circle class="cls-23" cx="298.86" cy="88.13" r="4.05"/><rect class="cls-38" x="282.48" y="98.29" width="25.89" height="4.73" rx="2.37" ry="2.37"/><path class="cls-21" d="M267.73,69.76h8.61a6.95,6.95,0,0,1,6.95,6.95V99.55a6.95,6.95,0,0,1-6.95,6.95h-8.61a15.56,15.56,0,0,1-15.56-15.56V85.32a15.56,15.56,0,0,1,15.56-15.56Z"/><rect class="cls-37" x="260.3" y="69.76" width="31.11" height="36.74" rx="15.56" ry="15.56"/><path class="cls-21" d="M276.38,79.61h1.32a5,5,0,0,1,5,5V94a0,0,0,0,1,0,0h-9.11a0,0,0,0,1,0,0V82.4a2.79,2.79,0,0,1,2.79-2.79Z"/><path class="cls-23" d="M271.34,79.61h8.73a0,0,0,0,1,0,0v10A4.36,4.36,0,0,1,275.7,94h0a4.36,4.36,0,0,1-4.36-4.36v-10a0,0,0,0,1,0,0Z" transform="translate(551.41 173.56) rotate(-180)"/><rect class="cls-22" x="268.34" y="93.95" width="19.12" height="4.73" rx="2.37" ry="2.37"/><path class="cls-55" d="M274.08,109a30.15,30.15,0,0,0,9.83,28.8"/><path class="cls-30" d="M277.21,124.88l-1.88.21-2,.21a8.36,8.36,0,0,1-9.28-8.41l0-2.66A10,10,0,0,1,273,104.4h0a10,10,0,0,1,10.9,7.92l.53,2.54A8.36,8.36,0,0,1,277.21,124.88Z"/><path class="cls-29" d="M275.33,125.09l-2,.21a8.36,8.36,0,0,1-9.28-8.41l0-2.66A10,10,0,0,1,273,104.4"/><path class="cls-17" d="M281.61,124.69h0a14,14,0,0,1,14,14v0a2.31,2.31,0,0,1-2.31,2.31h0a14,14,0,0,1-14-14v0A2.31,2.31,0,0,1,281.61,124.69Z" transform="translate(253.71 -182.03) rotate(59.08)"/><path class="cls-29" d="M225.84,40.48h0A12.53,12.53,0,0,1,238.37,53v0a2.06,2.06,0,0,1-2.06,2.06h0a12.53,12.53,0,0,1-12.53-12.53v0a2.06,2.06,0,0,1,2.06-2.06Z" transform="translate(21.8 -61.24) rotate(15.83)"/><path class="cls-18" d="M242.56,61.59c3.33-3,5.05-6.33,7.08-9.92a48.72,48.72,0,0,0,2.52-5.08"/><circle class="cls-40" cx="251.4" cy="47.26" r="7.3"/><path class="cls-18" d="M239.5,83.81c4.67-15.72,30.15-19.27,28.84-37.74"/><circle class="cls-29" cx="268.39" cy="42.69" r="7.3"/></g></g></svg>