<?xml version="1.0" encoding="utf-8"?>
<!-- Generator: Adobe Illustrator 22.0.1, SVG Export Plug-In . SVG Version: 6.00 Build 0)  -->
<svg version="1.1" id="Ebene_1" xmlns="http://www.w3.org/2000/svg" xmlns:xlink="http://www.w3.org/1999/xlink" x="0px" y="0px"
	 viewBox="0 0 238.7 220.8" enable-background="new 0 0 238.7 220.8" xml:space="preserve">
<g>
	<g>
		<path fill="#5145FF" d="M238.7,121.3C238.7,55.4,185.2,2,119.3,2S0,55.4,0,121.3"/>
		<path fill="#5C74FF" d="M188.9,76.6c0-38.4-31.2-69.6-69.6-69.6S49.7,38.1,49.7,76.6H188.9z"/>
		<path fill="#372CD1" d="M79.6,76.6c0-22,17.8-39.8,39.8-39.8s39.8,17.8,39.8,39.8v89.5c0-22-17.8-39.8-39.8-39.8
			s-39.8,17.8-39.8,39.8V76.6z"/>
		<path fill="#3855FF" d="M159.1,166.1c0-22-17.8-39.8-39.8-39.8s-39.8,17.8-39.8,39.8V76.6c0-22,17.8-39.8,39.8-39.8
			s39.8,17.8,39.8,39.8V166.1z"/>
		<path fill="#0E0582" d="M119.3,126.3c-22,0-39.8,17.8-39.8,39.8V76.6c0-22,17.8-39.8,39.8-39.8"/>
		<path opacity="0.67" fill="#0E0582" d="M49.7,76.6h69.6V40.3c0-20.5-23-32.6-39.8-20.8C61.5,32,49.7,52.9,49.7,76.6z"/>
		<g>
			<path fill="#FF5C8D" d="M159.1,164.6c0,22,24.3,35.6,42.8,23.8c22.1-14.1,36.7-38.9,36.7-67.1S224,68.4,201.9,54.3
				C183.4,42.4,159.1,56,159.1,78V164.6z"/>
			<path fill="#2434D4" d="M187.2,59.8c3.3,0,6.5,0.9,9.4,2.8c20.1,12.9,32.1,34.8,32.1,58.7s-12,45.8-32.1,58.7
				c-2.9,1.9-6.1,2.8-9.4,2.8c-8.7,0-18.1-7-18.1-18.2V78C169.1,66.8,178.5,59.8,187.2,59.8 M187.2,49.9
				c-14.6,0-28.1,11.7-28.1,28.1v86.6c0,16.4,13.5,28.1,28.1,28.1c5,0,10.1-1.4,14.8-4.4c22.1-14.1,36.7-38.9,36.7-67.1
				S224,68.4,201.9,54.3C197.2,51.2,192.2,49.9,187.2,49.9L187.2,49.9z"/>
		</g>
		<g>
			<path fill="#FF5C8D" d="M79.6,164.6c0,22-24.3,35.6-42.8,23.8C14.6,174.2,0,149.5,0,121.3c0-28.2,14.6-52.9,36.7-67.1
				C55.2,42.4,79.6,56,79.6,78V164.6z"/>
			<path fill="#2434D4" d="M51.5,59.8c8.7,0,18.1,7,18.1,18.2v86.6c0,11.2-9.4,18.2-18.1,18.2c-3.3,0-6.5-0.9-9.4-2.8
				C22,167.1,9.9,145.2,9.9,121.3s12-45.8,32.1-58.7C45,60.8,48.2,59.8,51.5,59.8L51.5,59.8L51.5,59.8 M51.5,49.9
				c-5,0-10.1,1.4-14.8,4.4C14.6,68.4,0,93.1,0,121.3s14.6,52.9,36.7,67.1c4.7,3,9.8,4.4,14.8,4.4c14.6,0,28.1-11.7,28.1-28.1V78
				C79.6,61.6,66,49.9,51.5,49.9L51.5,49.9z"/>
		</g>
		<g>
			<path fill="#FF7700" d="M51.5,59.8c8.7,0,18.1,7,18.1,18.2v86.6c0,11.2-9.4,18.2-18.1,18.2c-3.3,0-6.5-0.9-9.4-2.8
				C22,167.1,9.9,145.2,9.9,121.3s12-45.8,32.1-58.7C45,60.8,48.2,59.8,51.5,59.8L51.5,59.8L51.5,59.8"/>
			<path fill="#FF5C8D" d="M42.1,180c2.9,1.9,6.1,2.8,9.4,2.8c8.7,0,18.1-7,18.1-18.2V78c0-2-0.3-3.8-0.8-5.5
				c-29.1,17.2-48.6,48.8-48.7,85C25.5,166.4,33,174.1,42.1,180z"/>
			<path fill="#FF9D00" d="M42.1,180c2.9,1.9,6.1,2.8,9.4,2.8c8.7,0,18.1-7,18.1-18.2V78c0-2-0.3-3.8-0.8-5.5
				c-29.1,17.2-48.6,48.8-48.7,85C25.5,166.4,33,174.1,42.1,180z"/>
			<path fill="#E82962" d="M51.5,182.8c8.7,0,18.1-7,18.1-18.2v-47.8C51.6,131.3,40,153.6,40,178.6c0.7,0.5,1.4,1,2.1,1.4
				C45,181.9,48.2,182.8,51.5,182.8z"/>
			<path fill="#E82962" d="M69.6,164.6v-30.5c-12.3,12.5-19.9,29.7-19.9,48.6c0.6,0.1,1.2,0.1,1.8,0.1
				C60.2,182.8,69.6,175.8,69.6,164.6z"/>
			<g>
				<path fill="#CF2557" d="M69.6,164.6v-17.7c-6,9.9-9.6,21.5-9.9,33.8C65.2,177.9,69.6,172.3,69.6,164.6z"/>
			</g>
		</g>
		<g>
			<path fill="#FF7700" d="M187.2,59.8L187.2,59.8L187.2,59.8c3.3,0,6.5,0.9,9.4,2.8c20.1,12.9,32.1,34.8,32.1,58.7
				s-12,45.8-32.1,58.7c-2.9,1.9-6.1,2.8-9.4,2.8c-8.7,0-18.1-7-18.1-18.2V78C169.1,66.8,178.5,59.8,187.2,59.8"/>
			<path fill="#FF5C8D" d="M196.6,180c-2.9,1.9-6.1,2.8-9.4,2.8c-8.7,0-18.1-7-18.1-18.2V78c0-2,0.3-3.8,0.8-5.5
				c29.1,17.2,48.6,48.8,48.7,85C213.2,166.4,205.7,174.1,196.6,180z"/>
			<path fill="#FF9D00" d="M196.6,180c-2.9,1.9-6.1,2.8-9.4,2.8c-8.7,0-18.1-7-18.1-18.2V78c0-2,0.3-3.8,0.8-5.5
				c29.1,17.2,48.6,48.8,48.7,85C213.2,166.4,205.7,174.1,196.6,180z"/>
			<path fill="#E82962" d="M187.2,182.8c-8.7,0-18.1-7-18.1-18.2v-47.8c18.1,14.5,29.6,36.8,29.7,61.7c-0.7,0.5-1.4,1-2.1,1.4
				C193.7,181.9,190.5,182.8,187.2,182.8z"/>
			<path fill="#E82962" d="M169.1,164.6v-30.5c12.3,12.5,19.9,29.7,19.9,48.6c-0.6,0.1-1.2,0.1-1.8,0.1
				C178.5,182.8,169.1,175.8,169.1,164.6z"/>
			<g>
				<path fill="#CF2557" d="M169.1,164.6v-17.7c6,9.9,9.6,21.5,9.9,33.8C173.4,177.9,169.1,172.3,169.1,164.6z"/>
			</g>
		</g>
	</g>
	<g>
		<path fill="#0067D4" d="M136.9,189l-10.3,10.3c-3.9,3.9-10.3,4-14.3,0.1L101.8,189H136.9z"/>
		<g>
			<g>
				<rect x="94.5" y="161.5" fill="#4C8ED4" width="49.7" height="9.9"/>
				<circle fill="#4C8ED4" cx="119.3" cy="171.5" r="24.9"/>
				<circle fill="#5BABFF" cx="119.3" cy="161.5" r="24.9"/>
				<g opacity="0.5">
					<path fill="#2249D4" d="M119.3,141.8c-11,0-19.9,8.9-19.9,19.9c0,11,8.9,19.9,19.9,19.9c11,0,19.9-8.9,19.9-19.9
						C139.2,150.7,130.3,141.8,119.3,141.8z M119.3,176.6c-8.2,0-14.9-6.7-14.9-14.9c0-8.2,6.7-14.9,14.9-14.9s14.9,6.7,14.9,14.9
						C134.3,169.9,127.6,176.6,119.3,176.6z"/>
				</g>
			</g>
		</g>
		<g>
			<g>
				<g>
					<rect x="139.2" y="141" fill="#5BABFF" width="19.9" height="5"/>
					<rect x="139.2" y="145.9" fill="#4C8ED4" width="19.9" height="5"/>
				</g>
				<g>
					<rect x="79.6" y="141" fill="#5BABFF" width="19.9" height="5"/>
					<rect x="79.6" y="145.9" fill="#4C8ED4" width="19.9" height="5"/>
				</g>
			</g>
			<g>
				<g>
					<rect x="139.2" y="111.1" fill="#5BABFF" width="19.9" height="5"/>
					<rect x="139.2" y="116.1" fill="#4C8ED4" width="19.9" height="5"/>
				</g>
				<g>
					<rect x="79.6" y="111.1" fill="#5BABFF" width="19.9" height="5"/>
					<rect x="79.6" y="116.1" fill="#4C8ED4" width="19.9" height="5"/>
				</g>
			</g>
			<g>
				<g>
					<rect x="139.2" y="81.3" fill="#5BABFF" width="19.9" height="5"/>
					<rect x="139.2" y="86.3" fill="#4C8ED4" width="19.9" height="5"/>
				</g>
				<g>
					<rect x="79.6" y="81.3" fill="#5BABFF" width="19.9" height="5"/>
					<rect x="79.6" y="86.3" fill="#4C8ED4" width="19.9" height="5"/>
				</g>
			</g>
		</g>
		<g>
			<g>
				<path fill="#5BABFF" d="M144.2,136c0-13.7-11.1-24.9-24.9-24.9S94.5,122.3,94.5,136H144.2z"/>
			</g>
		</g>
		<rect x="94.5" y="136" fill="#4C8ED4" width="49.7" height="12.4"/>
		<g>
			<g>
				<rect x="94.5" y="106" fill="#4C8ED4" width="49.7" height="9.9"/>
				<path fill="#5BABFF" d="M144.2,106.2c0-13.7-11.1-24.9-24.9-24.9s-24.9,11.1-24.9,24.9H144.2z"/>
			</g>
		</g>
		<g>
			<g>
				<rect x="94.5" y="76.3" fill="#4C8ED4" width="49.7" height="12.4"/>
				<rect x="94.5" y="106" fill="#4C8ED4" width="49.7" height="9.9"/>
				<rect x="94.5" y="106.2" fill="#4C8ED4" width="49.7" height="12.4"/>
				<path fill="#5BABFF" d="M144.2,76.3c0-13.7-11.1-24.9-24.9-24.9S94.5,62.6,94.5,76.3H144.2z"/>
				<rect x="99.4" y="36.4" fill="#2263D4" width="39.8" height="125.3"/>
			</g>
		</g>
		<rect x="104.4" y="36.5" fill="#2249D4" width="29.8" height="125.2"/>
		<path fill="#2249D4" d="M134.3,161.7c0-4.1-1.7-7.8-4.4-10.5c-2.7-2.7-6.4-4.4-10.5-4.4c-4.1,0-7.8,1.7-10.5,4.4
			c-2.7,2.7-4.4,6.4-4.4,10.5c0,4.1,1.7,7.8,4.4,10.5c2.7,2.7,6.4,4.4,10.5,4.4c4.1,0,7.8-1.7,10.5-4.4
			C132.6,169.5,134.3,165.8,134.3,161.7z"/>
		<path opacity="0.5" fill="#1D3DB3" d="M104.4,36.5v125.2c0,4.1,1.7,7.8,4.4,10.5c0,0,0.1,0.1,0.1,0.1c3.9,3.8,10.5,1,10.5-4.5
			V61.5c0-7.7,8.5-12.2,14.9-8v0l-14.9-17H104.4z"/>
		<path opacity="0" fill="#1D3DB3" d="M104.4,36.5v125.2c0,4.1,1.7,7.8,4.4,10.5V36.5H104.4z"/>
		<path fill="#1D3DB3" d="M104.4,112c0-8.2,6.7-14.9,14.9-14.9s14.9,6.7,14.9,14.9v5c0-8.2-6.7-14.9-14.9-14.9s-14.9,6.7-14.9,14.9
			V112z"/>
		<path fill="#1D3DB3" d="M104.4,141.8c0-8.2,6.7-14.9,14.9-14.9s14.9,6.7,14.9,14.9v5c0-8.2-6.7-14.9-14.9-14.9
			s-14.9,6.7-14.9,14.9V141.8z"/>
		<g>
			<path fill="#1D3DB3" d="M119.3,156.7c-6.5,0-12,4.2-14.1,9.9c0.3,0.9,0.7,1.7,1.1,2.5c2.6-4.5,7.4-7.5,12.9-7.5
				c5.5,0,10.3,3,12.9,7.5c0.5-0.8,0.8-1.6,1.1-2.5C131.4,160.9,125.8,156.7,119.3,156.7z"/>
		</g>
		<path fill="#1D3DB3" d="M104.4,86.3c0-8.2,6.7-14.9,14.9-14.9s14.9-4.3,14.9,14.9v5c0-8.2-6.7-14.9-14.9-14.9s-14.9,6.7-14.9,14.9
			V86.3z"/>
		<path fill="#1D3DB3" d="M104.4,56.4c0-8.2,6.7-14.9,14.9-14.9s14.9,6.7,14.9,14.9v5c0-8.2-6.7-14.9-14.9-14.9s-14.9,6.7-14.9,14.9
			V56.4z"/>
		<g>
			<g>
				<rect x="94.5" y="48.6" fill="#4C8ED4" width="5" height="9.9"/>
				<rect x="139.2" y="48.6" fill="#4C8ED4" width="5" height="9.9"/>
				<g>
					<path fill="#4C8ED4" d="M137.9,42c0.7,2.1,1.1,4.3,1.1,6.6c0,10.9-8.8,19.7-19.7,19.7c-10.9,0-19.7-8.8-19.7-19.7
						c0-2.3,0.4-4.5,1.1-6.6c-3.9,4.4-6.3,10.2-6.3,16.5c0,13.7,11.1,24.9,24.9,24.9s24.9-11.1,24.9-24.9
						C144.2,52.2,141.8,46.4,137.9,42z"/>
				</g>
				<g>
					<path fill="#5BABFF" d="M119.3,23.7c-13.7,0-24.9,11.1-24.9,24.9c0,13.7,11.1,24.9,24.9,24.9s24.9-11.1,24.9-24.9
						C144.2,34.8,133.1,23.7,119.3,23.7z M119.3,63.3c-8.1,0-14.7-6.6-14.7-14.7c0-8.1,6.6-14.7,14.7-14.7s14.7,6.6,14.7,14.7
						C134.1,56.7,127.5,63.3,119.3,63.3z"/>
				</g>
				<g>
					<path fill="#2263D4" d="M119.3,41.5c6.8,0,12.5,4.6,14.2,10.9c0.3-1.2,0.5-2.5,0.5-3.9c0-8.1-6.6-14.7-14.7-14.7
						s-14.7,6.6-14.7,14.7c0,1.3,0.2,2.6,0.5,3.9C106.8,46.1,112.5,41.5,119.3,41.5z"/>
				</g>
				<g>
					<path opacity="0.5" fill="#1D3DB3" d="M119.3,41.5c0-4.7-5.5-7.4-9.2-4.5c-3.4,2.7-5.5,6.9-5.5,11.5c0,1.3,0.2,2.6,0.5,3.9
						C106.8,46.1,112.5,41.5,119.3,41.5L119.3,41.5z"/>
				</g>
			</g>
		</g>
	</g>
	<g>
		<path fill="none" stroke="#8CC4FF" stroke-width="3.9532" stroke-miterlimit="10" d="M119.3,26.8c-5.5,0-10.5,2.2-14.1,5.8
			c-3.6,3.6-5.8,8.6-5.8,14.1s2.2,10.5,5.8,14.1c3.6,3.6,8.6,5.8,14.1,5.8c5.5,0,10.5-2.2,14.1-5.8c3.6-3.6,5.8-8.6,5.8-14.1
			s-2.2-10.5-5.8-14.1C129.8,29.1,124.8,26.8,119.3,26.8z"/>
		
			<polyline fill="none" stroke="#D42D5F" stroke-width="3.9532" stroke-linecap="round" stroke-linejoin="round" stroke-miterlimit="10" points="
			105.3,32.7 105.3,22.7 94.7,12.2 		"/>
		
			<polyline fill="none" stroke="#D42D5F" stroke-width="3.9532" stroke-linecap="round" stroke-linejoin="round" stroke-miterlimit="10" points="
			119.3,26.8 119.3,16.9 119.3,2 		"/>
		
			<polyline fill="none" stroke="#D42D5F" stroke-width="3.9532" stroke-linecap="round" stroke-linejoin="round" stroke-miterlimit="10" points="
			133.4,32.7 133.4,22.7 143.9,12.2 		"/>
		
			<path fill="none" stroke="#F04678" stroke-width="3.9532" stroke-linecap="round" stroke-linejoin="round" stroke-miterlimit="10" d="
			M154.1,36.8c0-9.6-3.9-18.3-10.2-24.6C137.6,5.9,128.9,2,119.3,2S101,5.9,94.7,12.2s-10.2,15-10.2,24.6"/>
		
			<path fill="none" stroke="#F04678" stroke-width="3.9532" stroke-linecap="round" stroke-linejoin="round" stroke-miterlimit="10" d="
			M139.2,36.8c0-5.5-2.2-10.5-5.8-14.1c-3.6-3.6-8.6-5.8-14.1-5.8c-5.5,0-10.5,2.2-14.1,5.8c-3.6,3.6-5.8,8.6-5.8,14.1"/>
		
			<polyline fill="none" stroke="#D42D5F" stroke-width="3.9532" stroke-linecap="round" stroke-linejoin="round" stroke-miterlimit="10" points="
			139.2,46.7 139.2,36.8 154.1,36.8 		"/>
		
			<polyline fill="none" stroke="#D42D5F" stroke-width="3.9532" stroke-linecap="round" stroke-linejoin="round" stroke-miterlimit="10" points="
			99.4,46.7 99.4,36.8 84.5,36.8 		"/>
	</g>
	<g>
		<defs>
			<path id="SVGID_1_" d="M228.7,121.3c0-23.9-12-45.8-32.1-58.7c-2.9-1.9-6.1-2.8-9.4-2.8h0h0c-8.7,0-18.1,7-18.1,18.2v35.2H69.6
				V78c0-11.2-9.4-18.2-18.1-18.2h0h0c-3.3,0-6.5,0.9-9.4,2.8C22,75.5,9.9,97.5,9.9,121.3v99.4h218.8V121.3z"/>
		</defs>
		<clipPath id="SVGID_2_">
			<use xlink:href="#SVGID_1_"  overflow="visible"/>
		</clipPath>
		<g clip-path="url(#SVGID_2_)">
			
				<circle fill="none" stroke="#FFDD00" stroke-width="17.5697" stroke-linecap="round" stroke-linejoin="round" stroke-miterlimit="10" cx="119.3" cy="123.1" r="79.6"/>
			
				<circle fill="none" stroke="#FFFFFF" stroke-width="10.9811" stroke-linecap="round" stroke-linejoin="round" stroke-miterlimit="10" cx="119.3" cy="123.1" r="79.6"/>
		</g>
	</g>
</g>
</svg>
