<?xml version="1.0" encoding="utf-8"?>
<!-- Generator: Adobe Illustrator 22.0.1, SVG Export Plug-In . SVG Version: 6.00 Build 0)  -->
<svg version="1.1" id="Ebene_1" xmlns="http://www.w3.org/2000/svg" xmlns:xlink="http://www.w3.org/1999/xlink" x="0px" y="0px"
	 viewBox="0 0 267.8 255" enable-background="new 0 0 267.8 255" xml:space="preserve">
<g>
	<g>
		<path opacity="0.5" fill="#004CFF" d="M107.6,197.4h72.7c7.4,0,13.4-6,13.4-13.4v0c0-7.4-6-13.4-13.4-13.4h-72.7
			c-7.4,0-13.4,6-13.4,13.4v0C94.2,191.4,100.2,197.4,107.6,197.4z"/>
		<rect x="152.5" y="0" fill="#00BCFF" width="29.7" height="185.9"/>
		<rect x="170.5" y="0" fill="#5CFAFF" width="11.7" height="185.9"/>
		<path fill="#4F5DFF" d="M152.5,185.9h-46.8V46.8C105.7,21,126.7,0,152.5,0h0V185.9z"/>
		<path fill="#0B24B8" d="M118.5,48.6c0-19.5,15-35.5,34.1-37.2V0l0,0c-25.8,0-46.8,20.9-46.8,46.8v139.1h12.7V48.6z"/>
		<g>
			
				<line fill="none" stroke="#1F38DB" stroke-width="9.142" stroke-linecap="round" stroke-linejoin="round" stroke-miterlimit="10" x1="105.7" y1="36.5" x2="152.5" y2="36.5"/>
			
				<line fill="none" stroke="#1F38DB" stroke-width="9.142" stroke-linecap="round" stroke-linejoin="round" stroke-miterlimit="10" x1="105.7" y1="68.2" x2="152.5" y2="68.2"/>
			
				<line fill="none" stroke="#1F38DB" stroke-width="9.142" stroke-linecap="round" stroke-linejoin="round" stroke-miterlimit="10" x1="105.7" y1="99.8" x2="152.5" y2="99.8"/>
			
				<line fill="none" stroke="#4252B8" stroke-width="9.142" stroke-linecap="round" stroke-linejoin="round" stroke-miterlimit="10" x1="105.7" y1="131.5" x2="152.5" y2="131.5"/>
			
				<line fill="none" stroke="#4252B8" stroke-width="9.142" stroke-linecap="round" stroke-linejoin="round" stroke-miterlimit="10" x1="105.7" y1="163.2" x2="152.5" y2="163.2"/>
		</g>
		<g>
			
				<line fill="none" stroke="#5266E6" stroke-width="9.142" stroke-linecap="round" stroke-linejoin="round" stroke-miterlimit="10" x1="152.5" y1="36.5" x2="182.2" y2="36.5"/>
			
				<line fill="none" stroke="#5266E6" stroke-width="9.142" stroke-linecap="round" stroke-linejoin="round" stroke-miterlimit="10" x1="152.5" y1="68.2" x2="182.2" y2="68.2"/>
			
				<line fill="none" stroke="#5266E6" stroke-width="9.142" stroke-linecap="round" stroke-linejoin="round" stroke-miterlimit="10" x1="152.5" y1="99.8" x2="182.2" y2="99.8"/>
			
				<line fill="none" stroke="#5266E6" stroke-width="9.142" stroke-linecap="round" stroke-linejoin="round" stroke-miterlimit="10" x1="152.5" y1="131.5" x2="182.2" y2="131.5"/>
			
				<line fill="none" stroke="#5266E6" stroke-width="9.142" stroke-linecap="round" stroke-linejoin="round" stroke-miterlimit="10" x1="152.5" y1="163.2" x2="182.2" y2="163.2"/>
		</g>
		<rect x="105.7" y="167.4" fill="#BDC1FF" width="76.5" height="18.8"/>
		<rect x="105.7" y="167.4" fill="#9EA4FF" width="12.7" height="18.8"/>
		<rect x="169.5" y="167.4" fill="#E6E6FF" width="12.7" height="18.8"/>
		<polyline fill="none" stroke="#1F38DB" stroke-width="9.142" stroke-linejoin="round" stroke-miterlimit="10" points="
			152.5,167.4 152.5,4.6 182.2,4.6 		"/>
		
			<line fill="none" stroke="#1F38DB" stroke-width="9.142" stroke-linecap="round" stroke-linejoin="round" stroke-miterlimit="10" x1="152.5" y1="4.6" x2="182.2" y2="4.6"/>
	</g>
	<g>
		<g>
			<g>
				<path fill="#FF9000" d="M118.1,51.8H67.2v171.4H135V68.7C135,59.3,127.4,51.8,118.1,51.8z"/>
				<path fill="#FFA600" d="M101.4,51.8H39c-9.3,0-16.9,7.5-16.9,16.9v154.6h79.3V51.8z"/>
			</g>
			<g>
				<g>
					<path fill="#FF7B00" d="M38.9,88.8h13.9c2.3,0,4.1-1.8,4.1-4.1V70.8c0-2.3-1.8-4.1-4.1-4.1H38.9c-2.3,0-4.1,1.8-4.1,4.1v13.9
						C34.8,86.9,36.6,88.8,38.9,88.8z"/>
					<path fill="#638AFF" d="M44.8,88.8h8.1c2.2,0,3.9-1.7,3.9-3.9V70.7c0-2.2-1.7-3.9-3.9-3.9h-8.1c-2.2,0-3.9,1.7-3.9,3.9v14.3
						C40.9,87.1,42.6,88.8,44.8,88.8z"/>
				</g>
				<g>
					<path fill="#FF7B00" d="M69.6,88.8h13.9c2.3,0,4.1-1.8,4.1-4.1V70.8c0-2.3-1.8-4.1-4.1-4.1H69.6c-2.3,0-4.1,1.8-4.1,4.1v13.9
						C65.5,86.9,67.4,88.8,69.6,88.8z"/>
					<path fill="#638AFF" d="M75.5,88.8h8.1c2.2,0,3.9-1.7,3.9-3.9V70.7c0-2.2-1.7-3.9-3.9-3.9h-8.1c-2.2,0-3.9,1.7-3.9,3.9v14.3
						C71.6,87.1,73.4,88.8,75.5,88.8z"/>
				</g>
				<g>
					<path fill="#FF7B00" d="M38.9,123.3h13.9c2.3,0,4.1-1.8,4.1-4.1v-13.9c0-2.3-1.8-4.1-4.1-4.1H38.9c-2.3,0-4.1,1.8-4.1,4.1v13.9
						C34.8,121.5,36.6,123.3,38.9,123.3z"/>
					<path fill="#638AFF" d="M44.8,123.4h8.1c2.2,0,3.9-1.7,3.9-3.9v-14.3c0-2.2-1.7-3.9-3.9-3.9h-8.1c-2.2,0-3.9,1.7-3.9,3.9v14.3
						C40.9,121.6,42.6,123.4,44.8,123.4z"/>
				</g>
				<g>
					<path fill="#FF7B00" d="M69.6,123.3h13.9c2.3,0,4.1-1.8,4.1-4.1v-13.9c0-2.3-1.8-4.1-4.1-4.1H69.6c-2.3,0-4.1,1.8-4.1,4.1v13.9
						C65.5,121.5,67.4,123.3,69.6,123.3z"/>
					<path fill="#638AFF" d="M75.5,123.4h8.1c2.2,0,3.9-1.7,3.9-3.9v-14.3c0-2.2-1.7-3.9-3.9-3.9h-8.1c-2.2,0-3.9,1.7-3.9,3.9v14.3
						C71.6,121.6,73.4,123.4,75.5,123.4z"/>
				</g>
				<g>
					<path fill="#FF7B00" d="M38.9,155.1h13.9c2.3,0,4.1-1.8,4.1-4.1v-13.9c0-2.3-1.8-4.1-4.1-4.1H38.9c-2.3,0-4.1,1.8-4.1,4.1V151
						C34.8,153.3,36.6,155.1,38.9,155.1z"/>
					<path fill="#638AFF" d="M44.8,155.2h8.1c2.2,0,3.9-1.7,3.9-3.9V137c0-2.2-1.7-3.9-3.9-3.9h-8.1c-2.2,0-3.9,1.7-3.9,3.9v14.3
						C40.9,153.4,42.6,155.2,44.8,155.2z"/>
				</g>
				<g>
					<path fill="#FF7B00" d="M38.9,187.5h13.9c2.3,0,4.1-1.8,4.1-4.1v-13.9c0-2.3-1.8-4.1-4.1-4.1H38.9c-2.3,0-4.1,1.8-4.1,4.1v13.9
						C34.8,185.7,36.6,187.5,38.9,187.5z"/>
					<path fill="#638AFF" d="M44.8,187.6h8.1c2.2,0,3.9-1.7,3.9-3.9v-14.3c0-2.2-1.7-3.9-3.9-3.9h-8.1c-2.2,0-3.9,1.7-3.9,3.9v14.3
						C40.9,185.8,42.6,187.6,44.8,187.6z"/>
				</g>
				<g>
					<path fill="#FF7B00" d="M69.6,155.1h13.9c2.3,0,4.1-1.8,4.1-4.1v-13.9c0-2.3-1.8-4.1-4.1-4.1H69.6c-2.3,0-4.1,1.8-4.1,4.1V151
						C65.5,153.3,67.4,155.1,69.6,155.1z"/>
					<path fill="#638AFF" d="M75.5,155.2h8.1c2.2,0,3.9-1.7,3.9-3.9V137c0-2.2-1.7-3.9-3.9-3.9h-8.1c-2.2,0-3.9,1.7-3.9,3.9v14.3
						C71.6,153.4,73.4,155.2,75.5,155.2z"/>
				</g>
			</g>
		</g>
		<g>
			<path fill="#A33BFF" d="M197.7,145.3l-8.9-3.6l12.3-30.2c0.7-1.8,2.8-2.6,4.5-1.9l2.5,1c1.8,0.7,2.6,2.8,1.9,4.5L197.7,145.3z"/>
			<g>
				<path fill="#00F0D4" d="M222.7,125.9c-3.5,2.7-8.2,3.3-12.8,1.9c-4.2-1.2-8.3-4-11.5-8.1s-4.8-8.8-4.9-13.2
					c-0.1-4.8,1.6-9.1,5.1-11.9c8.2-6.3,11-11,24.3,6.2C236.1,118.1,231.2,119.3,222.7,125.9z"/>
			</g>
			<path fill="#00B6FF" d="M229.2,120.7c-2.6,2-5.8,2.8-9.1,2.6c-1.2-0.1-2.4-0.3-3.6-0.7c-4.2-1.2-8.3-4-11.5-8.1
				s-4.8-8.8-4.9-13.2c0-1.3,0.1-2.5,0.3-3.7c0.6-3.3,2.2-6.2,4.8-8.2c6.7-5.2,17.6-2.4,24.3,6.2C236,104.3,236,115.5,229.2,120.7z"
				/>
			<path fill="#006EFF" d="M220.1,123.3c-1.2-0.1-2.4-0.3-3.6-0.7c-4.2-1.2-8.3-4-11.5-8.1s-4.8-8.8-4.9-13.2c0-1.3,0.1-2.5,0.3-3.7
				c7-4.4,16.4-2.9,21.5,3.8C227,108.2,226.2,117.6,220.1,123.3z"/>
			<path fill="#A33BFF" d="M214.5,107.2L214.5,107.2c-1.6-2.1-1.2-5.1,0.9-6.8l12.3-9.5c2.1-1.6,5.1-1.2,6.8,0.9v0
				c1.6,2.1,1.2,5.1-0.9,6.8l-12.3,9.5C219.2,109.6,216.2,109.3,214.5,107.2z"/>
		</g>
		<g>
			<g>
				<rect x="139.5" y="138.5" fill="#FF9808" width="63.8" height="84.5"/>
				<rect x="139.5" y="138.5" opacity="0.2" fill="#FF5B45" width="63.8" height="18.1"/>
				<g>
					<rect x="92.7" y="138.5" fill="#FF5C6E" width="63.8" height="84.5"/>
				</g>
				<rect x="205.6" y="195" fill="#FF9808" width="42.9" height="27.9"/>
				<g>
					<rect x="174" y="195" fill="#FF5C6E" width="46.6" height="27.9"/>
				</g>
				<g opacity="0.2">
					<polygon fill="#A200FF" points="156.4,138.5 92.7,138.5 92.7,163.4 156.4,156.6 					"/>
				</g>
				<g>
					<path fill="#9117FF" d="M168.6,118.6l-33.9,20.8c-4.6,2.8-2.6,9.9,2.8,9.9h67.7c5.4,0,7.4-7,2.8-9.9l-33.9-20.8
						C172.4,117.6,170.3,117.6,168.6,118.6z"/>
					<rect x="124" y="117.8" fill="#9117FF" width="47.3" height="24.6"/>
					<g>
						<path fill="#AD52FF" d="M137.5,149.2h67.7c5.4,0,7.4-7,2.8-9.9h-70.5V149.2z"/>
						<path fill="#AD52FF" d="M121.8,118.6l-33.9,20.8c-4.6,2.8-2.6,9.9,2.8,9.9h67.7c5.4,0,7.4-7,2.8-9.9l-33.9-20.8
							C125.6,117.6,123.5,117.6,121.8,118.6z"/>
					</g>
				</g>
			</g>
			<g>
				<path fill="#FF9808" d="M120.7,178.9H80.7H68.8v7.7v36.3h11.9v-25.1c0-6.2,5-11.2,11.2-11.2h17.5c6.2,0,11.2,5,11.2,11.2v25.1
					h11.9v-36.3v-7.7H120.7z"/>
				<path fill="#EB4659" d="M145.1,178.9h-23h-11.9v7.7v36.3H122v-27.5c0-4.8,3.9-8.8,8.8-8.8h5.5c4.8,0,8.8,3.9,8.8,8.8v27.5H157
					v-36.3v-7.7H145.1z"/>
				<path fill="#FF9808" d="M156.3,178.9h-23h-11.9v7.7v36.3h11.9v-27.5c0-4.8,3.9-8.8,8.8-8.8h5.5c4.8,0,8.8,3.9,8.8,8.8v27.5h11.9
					v-36.3v-7.7H156.3z"/>
				<path fill="#EB4659" d="M109.5,178.9H69.5H57.6v7.7v36.3h11.9v-25.1c0-6.2,5-11.2,11.2-11.2h17.5c6.2,0,11.2,5,11.2,11.2v25.1
					h11.9v-36.3v-7.7H109.5z"/>
			</g>
			<g>
				<g>
					
						<rect x="119.2" y="160.2" fill="none" stroke="#9A70FF" stroke-width="6.1931" stroke-linecap="round" stroke-linejoin="round" stroke-miterlimit="10" width="34.9" height="16.3"/>
					
						<rect x="131.1" y="160.2" fill="none" stroke="#9A70FF" stroke-width="6.1931" stroke-linecap="round" stroke-linejoin="round" stroke-miterlimit="10" width="11.8" height="16.3"/>
				</g>
				
					<rect x="63.2" y="160.2" fill="none" stroke="#9117FF" stroke-width="6.1931" stroke-linecap="round" stroke-linejoin="round" stroke-miterlimit="10" width="56.1" height="16.3"/>
				
					<rect x="74.8" y="160.2" fill="none" stroke="#9117FF" stroke-width="6.1931" stroke-linecap="round" stroke-linejoin="round" stroke-miterlimit="10" width="22.3" height="16.3"/>
				
					<rect x="86" y="160.2" fill="none" stroke="#9117FF" stroke-width="6.1931" stroke-linecap="round" stroke-linejoin="round" stroke-miterlimit="10" width="22.1" height="16.3"/>
			</g>
			<g>
				<path fill="#9117FF" d="M155.4,181.9H92.7c-2.9,0-5.3-2.4-5.3-5.3v0c0-2.9,2.4-5.3,5.3-5.3h62.6c2.9,0,5.3,2.4,5.3,5.3v0
					C160.7,179.5,158.3,181.9,155.4,181.9z"/>
				<path fill="#AD52FF" d="M120.7,181.9H58.1c-2.9,0-5.3-2.4-5.3-5.3v0c0-2.9,2.4-5.3,5.3-5.3h62.6c2.9,0,5.3,2.4,5.3,5.3v0
					C126.1,179.5,123.7,181.9,120.7,181.9z"/>
			</g>
			<g>
				<path fill="#9117FF" d="M250.4,199.4h-49.2c-2.9,0-5.3-2.4-5.3-5.3l0,0c0-2.9,2.4-5.3,5.3-5.3h49.2c2.9,0,5.3,2.4,5.3,5.3l0,0
					C255.8,197,253.4,199.4,250.4,199.4z"/>
				<path fill="#AD52FF" d="M174,188.7h48.1c2.9,0,5.3,2.4,5.3,5.3l0,0c0,2.9-2.4,5.3-5.3,5.3H174c-2.9,0-5.3-2.4-5.3-5.3l0,0
					C168.7,191.1,171.1,188.7,174,188.7z"/>
			</g>
			<g>
				<g>
					<g>
						<g>
							<path fill="#00E0A1" d="M46.7,184c-0.1-0.3-0.2-0.7-0.3-1c-1.6-5-6.8-8-11.9-7c-6,1.2-9.5,7.2-8,12.9
								c0.1,0.2,0.1,0.5,0.2,0.7c1.5,4.2,1.4,8.8-0.1,13c-1.1,3.3-1.2,7,0,10.7c2.7,8,11.2,12.8,19.5,10.9
								c9.3-2.1,14.9-11.6,12.4-20.7c-0.9-3.4-2.8-6.2-5.3-8.3C49.9,192.3,47.6,188.4,46.7,184z"/>
						</g>
					</g>
					<g>
						<path fill="#00F0AC" d="M58.8,184.8c0-0.4,0-0.7-0.1-1.1c-0.5-5.2-5-9.3-10.2-9.3c-6.1,0-10.8,5-10.4,11c0,0.2,0,0.5,0.1,0.7
							c0.6,4.4-0.5,8.9-2.7,12.7c-1.8,3-2.6,6.6-2.2,10.4c1,8.4,8.3,14.8,16.8,14.7c9.6-0.1,17-8.2,16.4-17.7
							c-0.2-3.5-1.5-6.7-3.5-9.3C60.2,193.6,58.8,189.3,58.8,184.8z"/>
					</g>
				</g>
				<g>
					<path fill="#00D1E0" d="M65.2,224.3c-3.4-5.8-9.7-9.7-16.9-9.7s-13.5,3.9-16.9,9.7H65.2z"/>
				</g>
			</g>
			<g>
				<g>
					<g>
						<g>
							<path fill="#00E0A1" d="M242.1,185.3c0-0.3,0.1-0.6,0.2-1c1.2-4.7,5.7-7.7,10.5-7.1c5.5,0.8,9.1,6,8,11.4
								c0,0.2-0.1,0.4-0.2,0.6c-1.1,3.9-0.8,8.1,0.8,11.9c1.2,3,1.5,6.4,0.6,9.8c-2,7.5-9.5,12.3-17.2,11.1
								c-8.7-1.4-14.3-9.8-12.5-18.3c0.7-3.2,2.3-5.9,4.4-7.9C239.6,193.1,241.5,189.3,242.1,185.3z"/>
						</g>
					</g>
					<g>
						<path fill="#00F0AC" d="M223.1,183.9c0-0.4,0-0.7,0-1.1c0.2-5.4,4.6-9.9,10-10.3c6.3-0.4,11.5,4.5,11.5,10.7
							c0,0.3,0,0.5,0,0.8c-0.3,4.6,1.1,9.2,3.6,13c2,3,3.1,6.7,2.9,10.7c-0.5,8.8-7.7,15.9-16.5,16.3c-10,0.5-18.2-7.5-18.2-17.3
							c0-3.7,1.1-7,3.1-9.8C222.2,193.1,223.4,188.5,223.1,183.9z"/>
					</g>
				</g>
				<g>
					<path fill="#00D1E0" d="M223.6,224.1c3.1-5.3,8.9-8.9,15.6-8.9c6.6,0,12.4,3.6,15.6,8.9H223.6z"/>
				</g>
			</g>
		</g>
		<g>
			<g>
				<path fill="#00E0A1" d="M222,172.2c0.9-1.9,1.3-4,1.2-6.2c-0.3-6.9-5.8-12.6-12.7-13.1c-8-0.6-14.7,5.8-14.7,13.7
					c0,2.1,0.5,4,1.3,5.8c2,4.3,1.1,9.4-2.1,13c-3.3,3.7-5.1,8.7-4.8,14c0.6,9.8,8.7,17.7,18.5,18.1c11,0.4,20.1-8.4,20.1-19.3
					c0-4.9-1.9-9.5-4.9-12.9C220.8,181.6,220.1,176.5,222,172.2z"/>
			</g>
			
				<line fill="none" stroke="#FFFFFF" stroke-width="3.9064" stroke-linecap="round" stroke-miterlimit="10" x1="209.2" y1="232.1" x2="209.2" y2="174.1"/>
			
				<line fill="none" stroke="#FFFFFF" stroke-width="3.9064" stroke-linecap="round" stroke-miterlimit="10" x1="209.2" y1="206" x2="201" y2="197.7"/>
			
				<line fill="none" stroke="#FFFFFF" stroke-width="3.9064" stroke-linecap="round" stroke-miterlimit="10" x1="209.6" y1="192.1" x2="216.5" y2="185.1"/>
		</g>
		<g>
			<path fill="#A33BFF" d="M245.5,255H16c-8.9,0-16-7.2-16-16v0c0-8.9,7.2-16,16-16h229.5c8.9,0,16,7.2,16,16v0
				C261.6,247.8,254.4,255,245.5,255z"/>
			<g>
				<path fill="#00D69A" d="M260,231.9c-2.6-5.3-8.1-9-14.4-9H16c-6.3,0-11.8,3.7-14.4,9H260z"/>
			</g>
			<path fill="#6011A6" d="M251.7,222.9H183c8.9,0,16,7.2,16,16v0c0,8.9-7.2,16-16,16h68.8c8.9,0,16-7.2,16-16v0
				C267.8,230.1,260.6,222.9,251.7,222.9z"/>
			<g>
				<path fill="#009EC2" d="M197.4,231.9h68.8c-2.6-5.3-8.1-9-14.4-9H183C189.3,222.9,194.8,226.6,197.4,231.9z"/>
			</g>
		</g>
	</g>
</g>
</svg>
