<svg xmlns="http://www.w3.org/2000/svg" xmlns:xlink="http://www.w3.org/1999/xlink" viewBox="0 0 206 206"><defs><style>.cls-1,.cls-13,.cls-16,.cls-17,.cls-20,.cls-21,.cls-22,.cls-23,.cls-26,.cls-36,.cls-42,.cls-44,.cls-46,.cls-47,.cls-54,.cls-57,.cls-70,.cls-71,.cls-78,.cls-79,.cls-80,.cls-81{fill:none;}.cls-2{isolation:isolate;}.cls-3{clip-path:url(#clip-path);}.cls-4{clip-path:url(#clip-path-2);}.cls-5{clip-path:url(#clip-path-3);}.cls-6{clip-path:url(#clip-path-4);}.cls-7{clip-path:url(#clip-path-5);}.cls-8{fill:#ffd65c;}.cls-9{fill:url(#Unbenannter_Verlauf_20);}.cls-10{clip-path:url(#clip-path-6);}.cls-11,.cls-15,.cls-34{fill:#ff7f00;}.cls-11,.cls-13,.cls-34,.cls-36{stroke:#ff7f00;}.cls-100,.cls-101,.cls-102,.cls-103,.cls-104,.cls-105,.cls-106,.cls-108,.cls-109,.cls-11,.cls-111,.cls-112,.cls-113,.cls-12,.cls-13,.cls-16,.cls-17,.cls-18,.cls-19,.cls-20,.cls-21,.cls-22,.cls-23,.cls-25,.cls-26,.cls-28,.cls-29,.cls-30,.cls-31,.cls-32,.cls-34,.cls-35,.cls-36,.cls-42,.cls-44,.cls-54,.cls-56,.cls-57,.cls-58,.cls-59,.cls-62,.cls-63,.cls-64,.cls-65,.cls-70,.cls-71,.cls-86,.cls-87,.cls-88,.cls-89,.cls-90,.cls-91,.cls-92,.cls-93,.cls-94,.cls-95,.cls-96,.cls-97,.cls-98,.cls-99{stroke-linecap:round;}.cls-100,.cls-101,.cls-102,.cls-103,.cls-104,.cls-105,.cls-106,.cls-108,.cls-109,.cls-11,.cls-111,.cls-112,.cls-113,.cls-12,.cls-13,.cls-16,.cls-17,.cls-18,.cls-19,.cls-20,.cls-21,.cls-22,.cls-23,.cls-25,.cls-26,.cls-28,.cls-29,.cls-30,.cls-31,.cls-32,.cls-34,.cls-35,.cls-36,.cls-42,.cls-54,.cls-58,.cls-59,.cls-62,.cls-63,.cls-64,.cls-65,.cls-71,.cls-86,.cls-87,.cls-88,.cls-89,.cls-90,.cls-91,.cls-92,.cls-93,.cls-94,.cls-95,.cls-96,.cls-97,.cls-98,.cls-99{stroke-linejoin:round;}.cls-11,.cls-12,.cls-13,.cls-16{stroke-width:3.9px;}.cls-12,.cls-35{fill:#ff5724;stroke:#ff5724;}.cls-14{fill:#ff5e24;}.cls-14,.cls-17,.cls-22,.cls-24,.cls-49,.cls-50,.cls-51,.cls-78,.cls-79{opacity:0.5;}.cls-16{stroke:#f90;}.cls-17{stroke:#ff5e24;stroke-width:2.32px;}.cls-18{fill:#ffd500;stroke:#ffd500;}.cls-18,.cls-19,.cls-25{stroke-width:5.49px;}.cls-19{fill:#ff884d;stroke:#ff884d;}.cls-20{stroke:#fa0;}.cls-20,.cls-26{stroke-width:9.88px;}.cls-21{stroke:#ff6a4d;stroke-width:5.17px;}.cls-22{stroke:#ffe280;stroke-width:5.76px;}.cls-23,.cls-78,.cls-79,.cls-80,.cls-81{stroke:#fff;}.cls-23{stroke-width:5.94px;stroke-dasharray:48.21 32.14 16.07 24.1 0 17.79;}.cls-25{fill:#f50;stroke:#f50;}.cls-26{stroke:#1966ff;}.cls-27{fill:url(#Unbenannter_Verlauf_6);}.cls-28,.cls-31,.cls-32{fill:#d61e1e;stroke:#d61e1e;}.cls-28{stroke-width:7.58px;}.cls-29{fill:#f60;stroke:#f60;}.cls-29,.cls-30,.cls-31{stroke-width:7.07px;}.cls-30{fill:#f02929;stroke:#f02929;}.cls-32{stroke-width:3.53px;}.cls-33{clip-path:url(#clip-path-7);}.cls-34,.cls-35,.cls-36{stroke-width:5.86px;}.cls-37{clip-path:url(#clip-path-8);}.cls-38{fill:url(#Unbenannter_Verlauf_203);}.cls-39{fill:#01ebcf;}.cls-40{fill:#75ffef;}.cls-41{fill:#00cfb0;stroke:#00cfb0;}.cls-110,.cls-41,.cls-43,.cls-44,.cls-45,.cls-46,.cls-47,.cls-48,.cls-52,.cls-56,.cls-57,.cls-70,.cls-78,.cls-79,.cls-80,.cls-81{stroke-miterlimit:10;}.cls-41,.cls-43{stroke-width:12.55px;}.cls-42{stroke:#fff7bf;stroke-width:12.79px;}.cls-43,.cls-45,.cls-48{fill:#00e384;}.cls-43,.cls-44,.cls-45,.cls-48{stroke:#00e384;}.cls-44,.cls-45{stroke-width:4.18px;}.cls-46{stroke:#00cf8d;stroke-width:17.17px;}.cls-47{stroke:#00bbb3;stroke-width:15.07px;}.cls-48{stroke-width:6.91px;}.cls-49{fill:#008bc2;}.cls-50{fill:#0061cf;}.cls-51{fill:#0070f0;}.cls-52{fill:#c8ff00;stroke:#c8ff00;stroke-width:8.38px;}.cls-53{fill:#008082;}.cls-54{stroke:#005b82;stroke-width:13.58px;}.cls-55{fill:#005b82;}.cls-56{fill:#00a339;stroke:#00a339;stroke-width:6.28px;}.cls-57{stroke:#8bff87;stroke-width:9.62px;}.cls-58{fill:#b0f;stroke:#b0f;}.cls-58,.cls-59{stroke-width:4.79px;}.cls-59,.cls-61{fill:#8c00b3;}.cls-59{stroke:#8c00b3;}.cls-60{fill:#70008f;}.cls-62,.cls-63,.cls-64,.cls-65{fill:#ff1965;}.cls-62{stroke:#ff3d7d;stroke-width:4.64px;}.cls-63,.cls-64{stroke:#eb004e;}.cls-63{stroke-width:9.76px;}.cls-64{stroke-width:15.09px;}.cls-65{stroke:#ff75a3;stroke-width:8.12px;}.cls-66{opacity:0;}.cls-67{fill:#412e66;}.cls-68{fill:#5d3473;}.cls-69{fill:#8a38ad;}.cls-70{stroke:#0f134a;}.cls-70,.cls-71{stroke-width:7.65px;}.cls-71{stroke:#152666;}.cls-72{fill:#4a2166;}.cls-73{fill:#281c3d;}.cls-74,.cls-82{fill:#fff;}.cls-75{fill:#0c0f3b;}.cls-76{fill:#1d4491;}.cls-77{fill:#ffea00;mix-blend-mode:hard-light;}.cls-78{stroke-width:109.65px;}.cls-79{stroke-width:184.67px;}.cls-80{stroke-width:14.36px;}.cls-81{stroke-width:124.39px;}.cls-82{opacity:0.77;}.cls-83{fill:#c300ff;}.cls-84{fill:#9100eb;}.cls-100,.cls-101,.cls-102,.cls-104,.cls-108,.cls-109,.cls-111,.cls-112,.cls-113,.cls-85,.cls-90,.cls-91,.cls-92,.cls-93,.cls-94,.cls-95,.cls-96,.cls-97,.cls-98,.cls-99{fill:#7000b5;}.cls-86,.cls-87,.cls-88,.cls-89{fill:#350075;stroke:#350075;}.cls-86{stroke-width:7.23px;}.cls-87{stroke-width:14.39px;}.cls-88{stroke-width:4.25px;}.cls-89{stroke-width:3.96px;}.cls-100,.cls-101,.cls-102,.cls-111,.cls-113,.cls-90,.cls-91,.cls-92,.cls-96,.cls-98,.cls-99{stroke:#7000b5;}.cls-90{stroke-width:3.65px;}.cls-91{stroke-width:2.56px;}.cls-92{stroke-width:1.83px;}.cls-103,.cls-104,.cls-105,.cls-106,.cls-108,.cls-109,.cls-112,.cls-93,.cls-94,.cls-95,.cls-97{stroke:#500083;}.cls-93{stroke-width:2.85px;}.cls-94{stroke-width:2px;}.cls-95{stroke-width:2.37px;}.cls-96{stroke-width:6.72px;}.cls-97{stroke-width:2.85px;}.cls-98{stroke-width:15.66px;}.cls-99{stroke-width:7.3px;}.cls-100{stroke-width:3.66px;}.cls-101{stroke-width:8.76px;}.cls-102{stroke-width:9px;}.cls-103,.cls-105,.cls-106,.cls-107{fill:#500083;}.cls-103,.cls-104{stroke-width:5.69px;}.cls-105{stroke-width:2.03px;}.cls-106{stroke-width:2.35px;}.cls-108{stroke-width:7.02px;}.cls-109{stroke-width:12.22px;}.cls-110{fill:#e8c2ff;stroke:#9544f2;stroke-width:2.69px;}.cls-111{stroke-width:3.05px;}.cls-112{stroke-width:1.95px;}.cls-113{stroke-width:3.26px;}.cls-114{clip-path:url(#clip-path-9);}.cls-115{fill:#38269e;}.cls-116{fill:#231582;}</style><clipPath id="clip-path"><circle class="cls-1" cx="-1403.88" cy="659.74" r="103"/></clipPath><clipPath id="clip-path-2"><circle class="cls-1" cx="103" cy="-712.4" r="103"/></clipPath><clipPath id="clip-path-3"><circle class="cls-1" cx="-1104.88" cy="659.74" r="103"/></clipPath><clipPath id="clip-path-4"><circle class="cls-1" cx="103" cy="-984.2" r="103"/></clipPath><clipPath id="clip-path-5"><circle class="cls-1" cx="393.95" cy="103" r="103"/></clipPath><linearGradient id="Unbenannter_Verlauf_20" x1="403.31" y1="-75.91" x2="403.31" y2="242.63" gradientUnits="userSpaceOnUse"><stop offset="0.11" stop-color="#ff9000"/><stop offset="1" stop-color="#ff9000" stop-opacity="0"/></linearGradient><clipPath id="clip-path-6"><rect class="cls-1" x="101.43" y="-75.91" width="593.13" height="336.35"/></clipPath><linearGradient id="Unbenannter_Verlauf_6" x1="403.31" y1="-75.91" x2="403.31" y2="242.63" gradientUnits="userSpaceOnUse"><stop offset="0" stop-color="#ff5601" stop-opacity="0.86"/><stop offset="0.11" stop-color="#ff5902" stop-opacity="0.84"/><stop offset="0.25" stop-color="#ff6203" stop-opacity="0.78"/><stop offset="0.39" stop-color="#ff7006" stop-opacity="0.69"/><stop offset="0.55" stop-color="#ff8409" stop-opacity="0.56"/><stop offset="0.71" stop-color="#ff9d0e" stop-opacity="0.39"/><stop offset="0.87" stop-color="#ffbc14" stop-opacity="0.19"/><stop offset="1" stop-color="#ffd919" stop-opacity="0"/></linearGradient><clipPath id="clip-path-7"><circle class="cls-1" cx="393.95" cy="374.8" r="103"/></clipPath><clipPath id="clip-path-8"><circle class="cls-1" cx="103" cy="103" r="103"/></clipPath><linearGradient id="Unbenannter_Verlauf_203" x1="103.67" y1="-249.92" x2="103.67" y2="101.78" gradientUnits="userSpaceOnUse"><stop offset="0" stop-color="#0df"/><stop offset="0.16" stop-color="#42e2d3"/><stop offset="0.35" stop-color="#85e6a8"/><stop offset="0.51" stop-color="#b9ea85"/><stop offset="0.65" stop-color="#dfed6c"/><stop offset="0.77" stop-color="#f6ee5d"/><stop offset="0.84" stop-color="#ffef57"/></linearGradient><clipPath id="clip-path-9"><circle class="cls-1" cx="103" cy="-168.8" r="104.63"/></clipPath></defs><title>Zeichenfläche 3</title><g class="cls-2"><g id="Vögel"><g class="cls-7"><rect class="cls-8" x="101.43" y="-75.91" width="603.78" height="339.62"/><rect class="cls-9" x="101.43" y="-75.91" width="603.78" height="339.62"/><g class="cls-10"><path class="cls-11" d="M241.31,72.71l-3.05-3a26,26,0,0,1-7.62-18.41v-.2H205.7a38.76,38.76,0,0,1-5.77,20.34l-.81,1.32Z"/><path class="cls-12" d="M76.21,99.45V41.57H175.8a44,44,0,0,1,31.12,12.9h0a44.06,44.06,0,0,0,31.13,12.89h57.87a25.15,25.15,0,0,0,25.16,25.16h13.77v6.93Z"/><path class="cls-13" d="M194.88,57.34a114.67,114.67,0,0,0,13.17,28.31,3.66,3.66,0,0,0,3,1.7h0a3.67,3.67,0,0,0,3.25-5.48,83.59,83.59,0,0,1-7-16.28"/><path class="cls-12" d="M597.06,92.14a44.43,44.43,0,0,1-12.42-30.81V61H542.08q0,3.12-.29,6.23a27.56,27.56,0,0,1-27.46,24.92H112.92V205.27H705.58V92.14Z"/><path class="cls-11" d="M456.07,103.7q-47.65,4.26-95.53,4.12l-166.77-.49H81.57V272.91h624V92.14l-9.75.36-1.15-1.14a56.35,56.35,0,0,1-16.49-39.83v-.44h0L598.78,40.35h0a12.31,12.31,0,0,1-12.21,10.74H564.85a83.91,83.91,0,0,1-2.35,19.69A34.35,34.35,0,0,1,532.17,96.9Z"/><ellipse class="cls-14" cx="175.65" cy="153.31" rx="31.15" ry="9.77"/><ellipse class="cls-15" cx="168.5" cy="156.82" rx="28.61" ry="8.97"/><ellipse class="cls-15" cx="223.61" cy="139.95" rx="18.95" ry="5.94"/><path class="cls-11" d="M113.17,107.3a56.33,56.33,0,0,0,15.74-39v-.44h53.93q0,4,.37,7.9A34.93,34.93,0,0,0,218,107.3Z"/><path class="cls-16" d="M179.89,70.85a83.84,83.84,0,0,0,8.35,36.47"/><path class="cls-16" d="M171.54,70.85a83.78,83.78,0,0,0,3.5,24"/><path class="cls-11" d="M30,119.67A98.46,98.46,0,0,0,57.56,51.39v-.76h94.32q0,6.93.65,13.8a61.1,61.1,0,0,0,60.87,55.24Z"/><path class="cls-12" d="M14.06,119.67A98.51,98.51,0,0,0,41.58,51.39v-.76H135.9q0,6.93.65,13.8c3,31.34,5.27,55.24,21.43,55.24Z"/></g><path class="cls-17" d="M698.13,166.15H354c-77.15,0-118.4-28.41-188.3-28.41H86"/><path class="cls-17" d="M704.7,170.19H337.27c-46.34,0-117.95-28.07-162.67-28.07H72.74"/><path class="cls-17" d="M311.68,145.07c-5.82,11.56-49.1,36.28-160.41,36.28H52"/><path class="cls-17" d="M305.88,145.07c-4.71,7.25-46.32,32.4-143.49,32.4H89.9"/><path class="cls-18" d="M165.47,249.06a45.87,45.87,0,0,0,90.27-14.6c-6.09,2.74-21-1.71-36.19-11.24-15.39-9.66-26-21.33-25.85-28A45.87,45.87,0,0,0,165.47,249.06Z"/><ellipse class="cls-19" cx="226.14" cy="212.72" rx="12.4" ry="37.5" transform="translate(-74.25 291.16) rotate(-57.88)"/><path class="cls-20" d="M257.91,232.66c-3.65,5.8-20.82,1.57-38.36-9.44s-28.81-24.64-25.17-30.44"/><path class="cls-21" d="M222.39,221c-17.54-11-28.81-24.64-25.17-30.44"/><path class="cls-22" d="M198.58,191.32a48.05,48.05,0,1,0,58.13,35.2"/><path class="cls-23" d="M199,189.63A49.6,49.6,0,1,0,222.64,286"/><g class="cls-24"><path class="cls-25" d="M197.4,219.76A38.12,38.12,0,0,0,250,264.66a47.93,47.93,0,0,0,7.81-31.88l.09-.12c3.64-5.8-7.63-19.43-25.18-30.45a105.55,105.55,0,0,0-13.6-7.25A38,38,0,0,0,197.4,219.76Z"/></g><path class="cls-26" d="M194.38,192.78c3.64-5.8,20.81-1.58,38.35,9.44s28.82,24.64,25.18,30.44"/><rect class="cls-27" x="101.43" y="-75.91" width="603.78" height="339.62"/><path class="cls-28" d="M274.26,295.65H42.51l32.56-88.92a32.22,32.22,0,0,1,30.26-21.15H211.44a32.23,32.23,0,0,1,30.26,21.15Z"/><path class="cls-29" d="M111.3,207.47h89.55l-29.49-78.6a8.7,8.7,0,0,0-8.15-5.65H148.94a8.72,8.72,0,0,0-8.16,5.65Z"/><path class="cls-30" d="M99.13,207.47h89.55l-29.48-78.6a8.72,8.72,0,0,0-8.16-5.65H136.77a8.7,8.7,0,0,0-8.15,5.65Z"/><path class="cls-29" d="M148.92,250.82h89.55L209,172.21a8.72,8.72,0,0,0-8.16-5.65H186.56a8.7,8.7,0,0,0-8.15,5.65Z"/><path class="cls-30" d="M136.76,250.82h89.55l-29.49-78.61a8.71,8.71,0,0,0-8.15-5.65H174.4a8.72,8.72,0,0,0-8.16,5.65Z"/><path class="cls-28" d="M121.25,277.28h96.08L185.7,192.94a9.36,9.36,0,0,0-8.75-6.06H161.64a9.35,9.35,0,0,0-8.75,6.06Z"/><path class="cls-28" d="M84.24,259.45h96.08l-31.64-84.34a9.33,9.33,0,0,0-8.75-6.07h-15.3a9.33,9.33,0,0,0-8.75,6.07Z"/><path class="cls-30" d="M207.89,275.25h89.55L268,196.65A8.7,8.7,0,0,0,259.8,191H245.53a8.72,8.72,0,0,0-8.16,5.65Z"/><path class="cls-31" d="M191.32,281.61h89.55L251.39,203a8.72,8.72,0,0,0-8.16-5.65H229a8.7,8.7,0,0,0-8.15,5.65Z"/><path class="cls-32" d="M188.29,305.76l132,1-34.91-95.33A12.1,12.1,0,0,0,274,203.53H234.18a12.09,12.09,0,0,0-11.36,7.94Z"/></g><g class="cls-33"><path class="cls-34" d="M273.57,172.32h0a109.44,109.44,0,0,0-91.94,50.07l-29.22,45.24H394.73l-29.22-45.24A109.44,109.44,0,0,0,273.57,172.32Z"/><path class="cls-35" d="M504.13,321.46A92.46,92.46,0,0,1,411.67,229H383.35A161.74,161.74,0,0,1,269,181.62h0a161.77,161.77,0,0,0-114.39-47.38H130.08A163.54,163.54,0,0,0,20.4,176.47h0A163.21,163.21,0,0,1,2.06,190.82V346.94H534.84V321.46Z"/><path class="cls-36" d="M161.57,134.24A161.77,161.77,0,0,1,276,181.62h0A161.74,161.74,0,0,0,390.35,229h28.32"/></g><g class="cls-37"><rect class="cls-38" x="-48.87" y="-105.18" width="305.08" height="171.63"/><path class="cls-39" d="M152.23,21.65,130.78-32.62a16.28,16.28,0,0,0-27.56-4.54L48.87,27A16.27,16.27,0,0,1,27.6,30.15L1.65,13.33A16.27,16.27,0,0,0-18.2,15L-48.87,43.14V99.39L141.69,43.24A16.28,16.28,0,0,0,152.23,21.65Z"/><path class="cls-40" d="M14.56,21.7,1.65,13.33A16.27,16.27,0,0,0-18.2,15L-30.5,26.28l14.73.87L-3.28,22.6Z"/><path class="cls-41" d="M-48.87,82.23H307.3S259.6,23.85,202.68,23.85c-43.51,0-118.86,20-251.55,29.38Z"/><line class="cls-42" x1="125.9" y1="-3.48" x2="147.85" y2="-6.06"/><path class="cls-43" d="M-11.91,75.23H214.95A18.58,18.58,0,0,1,233.53,93.8v0a18.58,18.58,0,0,1-18.58,18.58H-11.91a0,0,0,0,1,0,0V75.23A0,0,0,0,1-11.91,75.23Z" transform="translate(221.61 187.61) rotate(180)"/><line class="cls-44" x1="128.09" y1="72.62" x2="146.39" y2="72.62"/><path class="cls-45" d="M136.46,105.94a54.86,54.86,0,0,1,109.72,0Z"/><path class="cls-45" d="M22.73,75.23a69.82,69.82,0,0,1,94.53,0Z"/><path class="cls-45" d="M74.66,75.23a69.83,69.83,0,0,1,94.54,0Z"/><path class="cls-45" d="M142.43,72.62a14.38,14.38,0,1,1,28.75,0Z"/><path class="cls-45" d="M15.27,73.21a14.38,14.38,0,0,1,28.76,0Z"/><path class="cls-45" d="M187.2,59.7a14.38,14.38,0,1,1,28.76,0Z"/><path class="cls-45" d="M202.9,68.06a14.38,14.38,0,0,1,28.76,0Z"/><path class="cls-45" d="M200.17,67a29,29,0,1,1,58.07,0Z"/><rect class="cls-43" x="-48.87" y="75.31" width="304.57" height="197.49"/><path class="cls-46" d="M289,100c-77,.36-154.41-1.32-231.42.77a11.7,11.7,0,0,0-11.3,10.47c0,14.64,11.3,25.53,21.76,34.73,1.68,1.26,2.52,2.51,4.19,3.77a7.55,7.55,0,0,1,2.93,2.09c.42.42,1.25.42,1.67.84l1.26,1.25c.42.42,1.25.42,1.67.84L81,156c10,5.85,19.67,11.3,31.38,13.39,1.68,0,3.77.83,5.45.83,18.41.42,37.24-.41,55.66,0,4.18.42,8.37.84,13,1.68,9.62,1.67,18,5,26.78,8.79,30.55,13.39,56.08,34.73,75.72,60.89"/><path class="cls-47" d="M289,108.39c-76.15.36-151.89-.9-228.06.36a13.58,13.58,0,0,0-5.44,1.67,12.2,12.2,0,0,0-6.28,11.72c.84,7.53,4.19,13.39,8.79,19.25,6.7,7.53,13.39,14.65,22.18,20.09l1.26,1.25c1.25.84,2.09.84,3.34,1.68l1.26,1.25c9.62,5.86,18.83,10.05,29.71,12.14,1.68,0,3.77.83,5.44.83,16.32.42,33.06-.41,49.39.42,8.37.84,16.32,3.35,24.27,6.28,8.37,2.93,15.9,5.86,23.85,10.46l1.26,1.26c23.85,12.55,43.1,29.71,59.42,51.89.42.42,1.26.84,1.68,1.26A111.37,111.37,0,0,0,289,260"/><path class="cls-48" d="M5.63,88.45A23.75,23.75,0,0,0-18.12,64.7,23.75,23.75,0,0,0-41.87,88.45Z"/><path class="cls-48" d="M25.62,77.89a23.75,23.75,0,0,0-47.5,0Z"/><polygon class="cls-49" points="307.4 225.33 -48.87 83.38 -48.87 319 -24.52 319 307.4 287.53 307.4 225.33"/><polygon class="cls-50" points="154.4 319 -48.87 110.59 -48.87 306.79 57.38 319 154.4 319"/><polygon class="cls-51" points="-48.87 108.86 -48.87 268.79 56.58 217.82 -48.87 108.86"/><path class="cls-52" d="M307.4,192c-86.18,14-194.33,43.72-265.62,96L307.4,273.61Z"/><path class="cls-53" d="M161.62,70.25a12.55,12.55,0,0,1-12.11-19A84.33,84.33,0,0,1,282.19,36.33a12.55,12.55,0,0,1-7.58,21.22Z"/><path class="cls-53" d="M150.34,41.84c-18.68,2.1-30.46-17-19-30.59,18.35-21.71,46-37.07,78.07-40.68S271.9-24.2,294.6-7.1c14.26,10.73,7,31.93-11.67,34Z"/><path class="cls-53" d="M155.32,53.05a8.82,8.82,0,0,1-8.51-13.36,59.28,59.28,0,0,1,93.26-10.48,8.82,8.82,0,0,1-5.33,14.91Z"/><path class="cls-53" d="M307.4-14.7A136.28,136.28,0,0,0,129.85,20.5c-13.65,18,.8,43.59,23.26,41.07L307.4,44.22Z"/><path class="cls-54" d="M274.39,300.51c-10.06-62-20.52-124-30.57-186.32C231.69,77.36,219.55,41,206.87,4"/><polyline class="cls-54" points="251.25 164.83 200.1 99.98 184.78 48.44"/><path class="cls-55" d="M307.4-29.06a88.8,88.8,0,0,0-114.56,18,104.61,104.61,0,0,1,18.6,6.19l22.3,13.54q4,3.24,7.66,6.78L307.4,8Z"/><path class="cls-55" d="M164.34,13.86A10,10,0,0,1,154.68-1.3,67.27,67.27,0,0,1,260.52-13.21a10,10,0,0,1-6,16.93Z"/><path class="cls-55" d="M152,70.31a8,8,0,0,1-7.73-12.15,53.9,53.9,0,0,1,84.81-9.54,8,8,0,0,1-4.84,13.57Z"/><path class="cls-56" d="M307.4,182.72c-21.83,2.72-46.15,5.92-74.08,9.81C80.7,213.8,10.31,235.75-48.87,268v51H307.4Z"/><path class="cls-57" d="M233.32,192.53c-6.24.75-12.1,1.59-18.37,2.43-40.18,5.86-76.59,12.55-117.18,20.92L94,217.14c-13.81,2.93-26.36,6.27-39.76,9.62-2.09.84-3.76,1.26-5.86,2.09-15.48,4.61-30.13,8.79-44.77,15.07-.84.42-1.26,0-2.1.42-10.88,4.6-21.76,8.79-31.93,14.14"/><polygon class="cls-58" points="76.66 183 159.56 206.87 159.56 206.88 93.09 232.73 10.2 208.85 10.2 208.84 76.66 183"/><polygon class="cls-59" points="159.56 207.05 159.56 255.74 93.09 281.58 93.09 232.9 159.56 207.05"/><ellipse class="cls-60" cx="84.67" cy="205.45" rx="36.19" ry="14.92"/><ellipse class="cls-61" cx="31.57" cy="205.45" rx="7.83" ry="3.23"/><ellipse class="cls-61" cx="136.03" cy="205.45" rx="7.83" ry="3.23"/><path class="cls-62" d="M43.08,186c0,9.47,18.62,17.15,41.59,17.15s41.6-7.68,41.6-17.15S114,153.77,84.67,153.77,43.08,176.49,43.08,186Z"/><path class="cls-63" d="M53.33,168.86c-5.67,5.77-8.26,12.54-8.26,16.52,0,8,16,16.75,35.38,16.75a77.36,77.36,0,0,0,16.29-1.65"/><path class="cls-64" d="M68.29,163c-.12-1.4,7.64-3.8,15.27-4.11,9.42-.38,18.65,2.42,18.53,3.94-.15,2-15.72,2-17,2.06S68.47,164.93,68.29,163Z"/><path class="cls-65" d="M116.76,186.72a70,70,0,0,1-9.26,3.77c-15.78,5.12-30.18,3.42-39.29,1.37"/><g class="cls-66"><path class="cls-67" d="M81.56,28.19l1-.09A15.23,15.23,0,0,1,98.69,39.21h0a1.61,1.61,0,0,1-1.08,1.95L84.42,45.22A8.43,8.43,0,0,1,74,40.32h0A9,9,0,0,1,81.56,28.19Z"/><path class="cls-68" d="M66.62,17.85l.85-.73a16.77,16.77,0,0,1,21.25-.82h0A1.69,1.69,0,0,1,89,18.66L79.88,30.58A9.35,9.35,0,0,1,67.61,33h0A9.44,9.44,0,0,1,66.62,17.85Z"/><path class="cls-69" d="M50.55,18.41l.15-1.11A17.26,17.26,0,0,1,66.05,2.24h0a1.64,1.64,0,0,1,1.78,1.53L68.94,18.7A9.59,9.59,0,0,1,61.4,28.84h0A9.21,9.21,0,0,1,50.55,18.41Z"/><path class="cls-67" d="M80.41,47.05s-.83,11,8.65,10.72l-12.47,1.9-2.33-5.12Z"/><polygon class="cls-67" points="30.68 48.58 37.29 107.23 59.22 72.48 30.68 48.58"/><line class="cls-70" x1="93.21" y1="161.79" x2="108.66" y2="161.16"/><line class="cls-70" x1="110.73" y1="145.34" x2="105" y2="159.61"/><line class="cls-71" x1="89.39" y1="146" x2="83.65" y2="160.26"/><rect class="cls-72" x="101.71" y="142.77" width="14.42" height="7.52" rx="3.76" transform="translate(222.29 289.64) rotate(178.24)"/><path class="cls-72" d="M93.48,72A15.21,15.21,0,0,0,71.72,85.75c.14,12.48,5.29,27.49,25.56,37.1,30.2,14.33,48.43-4.91,55.58-15.25A5.82,5.82,0,0,0,150.54,99Z"/><path class="cls-67" d="M30.68,48.58a25.17,25.17,0,0,0,1,6.18A24.88,24.88,0,0,0,56.3,72.67a24.87,24.87,0,1,0-25-30.24A25.48,25.48,0,0,0,30.68,48.58Z"/><path class="cls-73" d="M40.92,43.19A11,11,0,0,0,52.25,53.85c6.08-.18,16.39-2.51,16.21-8.58S57.65,31.67,51.58,31.86A11,11,0,0,0,40.92,43.19Z"/><circle class="cls-74" cx="51.91" cy="42.86" r="7.82"/><circle class="cls-67" cx="47.27" cy="32.88" r="7.82"/><ellipse class="cls-68" cx="82.53" cy="102.44" rx="45.6" ry="44.88" transform="translate(-39.42 53.11) rotate(-29.12)"/><path class="cls-68" d="M122.37,80.25l23.26,39.51c6.86,11.65-1.63,26.48-15.32,26.74l-50.13,1Z"/><path class="cls-69" d="M61.2,91.33a15.92,15.92,0,0,0-17.89,20.18c3.78,12.52,13.32,26.13,36.52,29.91,34.55,5.62,47.3-19,51.49-31.52a6.1,6.1,0,0,0-4.83-7.94Z"/><line class="cls-71" x1="71.88" y1="162.17" x2="87.34" y2="161.81"/><rect class="cls-68" x="81.58" y="143.63" width="13.53" height="7.05" rx="3.53" transform="translate(181.17 291.53) rotate(178.24)"/><path class="cls-75" d="M35.08,35.43A12.46,12.46,0,0,0,33,34.31a17.88,17.88,0,0,0-2.06-.8,17.18,17.18,0,0,0-4.36-.84,14.17,14.17,0,0,0-4.65.55,14,14,0,0,0-4.61,2.57,1.88,1.88,0,0,0-.57,1.9.75.75,0,0,0,1,.53l.08,0a8.44,8.44,0,0,1,3.69-.71,10,10,0,0,1,3.39,1,15.21,15.21,0,0,1,3,2,18.54,18.54,0,0,1,1.37,1.3,11.38,11.38,0,0,1,1.16,1.39c1.08,1.66,3.19,1.49,4.7-.39S37.11,38,36,36.34a2.63,2.63,0,0,0-.72-.76Z"/><path class="cls-76" d="M35.31,31.58a12.82,12.82,0,0,0-2.25-.6,18.06,18.06,0,0,0-2.21-.3,18.48,18.48,0,0,0-4.56.19,16.54,16.54,0,0,0-4.7,1.56,17,17,0,0,0-4.4,3.48,1.84,1.84,0,0,0-.35,1.94.73.73,0,0,0,1.12.26l.09,0a9.79,9.79,0,0,1,3.68-1.5,10.58,10.58,0,0,1,3.6.14,15.3,15.3,0,0,1,4.92,2.17,9.32,9.32,0,0,1,1.36,1.06c1.32,1.34,3.45.7,4.77-1.42s1.33-4.94,0-6.28a2.35,2.35,0,0,0-.83-.56Z"/></g><rect class="cls-77" x="-48.87" y="-105.18" width="335.4" height="423.73"/><path class="cls-78" d="M-48.87-105.18v360.7c86.56-27,147.13-92.7,147.13-193A243,243,0,0,0,31.41-105.18Z"/><path class="cls-79" d="M175.09,319a408.84,408.84,0,0,0,90-256.49,409.26,409.26,0,0,0-35.7-167.69H-48.87V319Z"/><path class="cls-80" d="M50.16,319C127.3,260.05,177.07,167.1,177.07,62.51a321.11,321.11,0,0,0-47-167.69h-179V319Z"/><path class="cls-81" d="M175.09,319a408.84,408.84,0,0,0,90-256.49,409.26,409.26,0,0,0-35.7-167.69H-48.87V319Z"/><path class="cls-82" d="M-14.54-105.18H-48.87V224C20.06,199.28,67.26,145.23,67.26,62.51A212.42,212.42,0,0,0-14.54-105.18Z"/><path class="cls-74" d="M-48.87-73.21V176.48c42.34-20.66,69.94-58,69.94-114A166.42,166.42,0,0,0-48.87-73.21Z"/><polygon class="cls-83" points="298.3 319 304.2 191.68 232.2 198.6 226.5 211.8 95.06 217.36 -10.19 263.17 -25.35 274.1 -48.87 280.57 -48.87 319 298.3 319"/><path class="cls-83" d="M307.4,186.27a6.22,6.22,0,0,0-3.8-.8l-36,3.94-36,3.91h-.13a5.19,5.19,0,0,0-4.23,3.17L223,206.83l-62.42,3.26-65.7,3.34h-.07a3.92,3.92,0,0,0-1.33.32L41,237l-52.48,23.22,0,0a3.41,3.41,0,0,0-.55.32l-7.56,5.49-7.12,5.15-11.78,3.23-10.37,2.82V284l.37-.3,11.66-3.24,12.32-3.4a3,3,0,0,0,1-.47l7.59-5.46,7.32-5.23,52.46-22.46,52.08-22.22,65.05-2.2,65.75-2.13a5.06,5.06,0,0,0,4.46-3l0-.1,4.55-10.21,33-2.77,36.05-3,.17,0a6.28,6.28,0,0,0,2.43-.8Z"/><path class="cls-84" d="M17.73,214.43,21,238.94a1.84,1.84,0,0,1,0,.74l-2,7.62a1.93,1.93,0,0,0,1.21,2.3l66.23,24a1.91,1.91,0,0,0,1.27,0l39.07-13.2a1.81,1.81,0,0,1,.61-.1H138a1.93,1.93,0,0,0,1.43-.64l6.6-7.29a1.93,1.93,0,0,1,1.91-.57l9,2.31a1.93,1.93,0,0,0,2.37-2.27l-3.39-16.09a2,2,0,0,1,0-.94L162.16,214a1.92,1.92,0,0,0-1.1-2.33l-18.46-7.72-22-8.3a2,2,0,0,1-.84-.62l-13.19-16.88a1.9,1.9,0,0,0-1.52-.74H84.59a1.92,1.92,0,0,0-1.2.41l-7.31,5.77a1.93,1.93,0,0,1-2,.21l-6.22-3.1a1.93,1.93,0,0,0-2.2.33l-11,10.6-.12.13L41.21,206.92a2,2,0,0,1-1,.61l-21,4.77A1.93,1.93,0,0,0,17.73,214.43Z"/><path class="cls-84" d="M21.92,213.88l1.44,12.44.72,6.22.36,3.11.18,1.55.09.78,0,.39s0,.26.05.45a6.3,6.3,0,0,1-.16,1.73l-.12.44-.21.75-.42,1.51-.84,3-.42,1.51-.1.37s0,.09,0,.07a.24.24,0,0,0,0-.08,1.1,1.1,0,0,0,0-.18,1.72,1.72,0,0,0-.09-.71,1.74,1.74,0,0,0-.92-1l-.15-.06.18.07.37.14.73.28,11.7,4.46,46.85,17.74,5.86,2.21.19.07-.06,0-.15,0-.14,0h-.08s-.09,0,0,0l1.48-.49,3-1,11.91-3.88,11.9-3.88,6-1.94,3-1,1.49-.48.38-.12.1,0,.2-.06.41-.09.42,0h.73l6.26,0,3.13,0H138l-.06.05.44-.49,4.2-4.64,1-1.16.52-.58.26-.29.15-.17a3.83,3.83,0,0,1,.29-.28,4,4,0,0,1,3-1,2.7,2.7,0,0,1,.41.06l.2,0,.12,0,.38.1.76.19,6.07,1.53,1.52.38.18,0h-.07l-.12,0a.28.28,0,0,0-.14.16.27.27,0,0,0,0,.12s0,0,0,0l0-.19-.09-.38-2.68-12.23-.67-3.06,0-.19c0-.14,0-.28-.07-.43a5.06,5.06,0,0,1,0-.87,4.1,4.1,0,0,1,.17-.82l.1-.38.44-1.5,1.74-6,3.51-12,.21-.75.06-.19c0-.05,0,0,0,0s0,0,0,0a.45.45,0,0,0,0,.11.57.57,0,0,0,.17.41l.09.08,0,0h0l-.09,0-.72-.3-1.44-.59-5.78-2.39-5.77-2.38-2.89-1.2c-1-.39-1.92-.8-2.9-1.15l-11.71-4.36-5.86-2.18L120,198.29l-.41-.16a4.61,4.61,0,0,1-1.56-1c-.11-.11-.22-.23-.32-.35l-.15-.19-1-1.23-7.75-9.83L105,180.58l-.49-.61c-.13-.17,0,0,0,0a.81.81,0,0,0,.14.12,1,1,0,0,0,.33.13h-.32l-3.13,0L89,180.29H84.74a1,1,0,0,0,.38-.13l.07-.06-.15.12-.3.25-4.9,3.9-1.23,1-.61.49-.08.06-.18.14-.41.27a5.1,5.1,0,0,1-2.86.64,4.72,4.72,0,0,1-1-.19,4.34,4.34,0,0,1-.47-.16l-.22-.1-.15-.07-1.4-.69-2.81-1.39-1.4-.69-.35-.17-.18-.09h0l.05,0a1.07,1.07,0,0,0,.43.09,1.22,1.22,0,0,0,.42-.09l.19-.11s.18-.16,0,0l-1.12,1.09-2.25,2.18-4.5,4.36-2.25,2.17-.56.55-.14.14-.07.06s0,0,0,0l0,0-.06.07-.13.15-1,1.18-4.09,4.74-4.1,4.74-2,2.37-1,1.18-.51.59-.13.15-.09.11-.18.19a5,5,0,0,1-.8.65,4.43,4.43,0,0,1-.91.49l-.49.17-.25.06-.12,0-.76.18-1.52.35-3.05.71-6.1,1.42-6.1,1.41-3.05.71-.19,0-.08,0,.07,0,.26-.1a1.43,1.43,0,0,0,.42-.35,1.32,1.32,0,0,0,.3-1Zm-7.45,1a5.2,5.2,0,0,1,2.75-5.3,5.56,5.56,0,0,1,1-.39l.26-.07.11,0,.19-.05,3.06-.68L27.93,207,34,205.63,37.1,205l1.53-.33.76-.17.08,0H39.4l-.12.05a1.19,1.19,0,0,0-.22.12,1,1,0,0,0-.19.16l0,0s0,0,0,0l.13-.15.52-.59,1-1.17,2.07-2.35,4.14-4.7,4.14-4.7,1-1.18.13-.14.07-.08.16-.18.16-.15.07-.07.14-.14.57-.53,2.27-2.16L60,182.17,62.3,180l1.13-1.08a5,5,0,0,1,1.47-1,4.9,4.9,0,0,1,3.9-.07l.23.1.16.07.17.09.35.18,1.4.7,2.79,1.41,1.4.71h0l0,0-.1,0-.2,0a1.21,1.21,0,0,0-.42.05,1.63,1.63,0,0,0-.19.09l-.08.06,0,0,.08-.06.62-.48,1.23-1,4.94-3.85.3-.24.16-.12a2.86,2.86,0,0,1,.4-.28,4.76,4.76,0,0,1,1.82-.7l.49-.05H89l12.53.06,3.13,0h.76l.47.05a4.77,4.77,0,0,1,1.79.69,4.23,4.23,0,0,1,.74.6,5.07,5.07,0,0,1,.51.58l.48.62,3.83,5,7.67,9.9,1,1.24.09.12,0-.06-.12-.1-.14-.07.31.12,2.93,1.12,5.86,2.25,11.72,4.49c1,.36,1.94.78,2.9,1.18l2.89,1.23L154,206l5.77,2.45,1.45.61.72.31.1,0,.2.09.4.22a4.65,4.65,0,0,1,.71.55,4.41,4.41,0,0,1,1.29,4.09l0,.22-.05.18-.06.19-.23.75-3.62,12-1.82,6-.46,1.49-.11.38s0,0,0-.06a.28.28,0,0,0,0-.09v0l0,.19.63,3.07,2.48,12.27.07.39,0,.19c0,.12,0,.27.06.4a4,4,0,0,1-.16,1.67,4.19,4.19,0,0,1-2.11,2.48,4.14,4.14,0,0,1-1.62.42,3.82,3.82,0,0,1-.83,0l-.4-.08-.2-.06-1.51-.4-6.06-1.59-.76-.2-.38-.1h0a.2.2,0,0,0,.15-.06L145.68,256l-4.2,4.64-.27.29-.13.15-.08.09-.14.14a3.83,3.83,0,0,1-1.37.88,4.42,4.42,0,0,1-.79.22,3,3,0,0,1-.41,0h-4.24l-6.26,0h-.38l-.08,0-.37.13-1.48.52-3,1-5.91,2.06-11.82,4.14L93,274.58l-3,1-1.47.51-.37.12a3.58,3.58,0,0,1-.45.09,4.85,4.85,0,0,1-.93.06,4.66,4.66,0,0,1-.91-.14c-.15,0-.31-.09-.44-.13l-.18-.06L79.36,274,32,257.57l-11.84-4.09-.74-.25-.37-.13L18.9,253c-.17-.06-.35-.13-.52-.21a5.62,5.62,0,0,1-2.92-3.31,5.75,5.75,0,0,1-.25-2.26,5.39,5.39,0,0,1,.08-.56l.06-.28,0-.12.09-.38.37-1.52.74-3,.37-1.52.19-.76.08-.32a1.19,1.19,0,0,0-.06.37.67.67,0,0,0,0,.2c0,.05,0,.17,0,.05L17.1,239l-.11-.78-.23-1.55-.46-3.1-.92-6.19L13.55,215Z"/><path class="cls-85" d="M26.55,219.31l2.84,17.51a2,2,0,0,1,0,.8l-1.57,6A1.93,1.93,0,0,0,29,246l57.85,20.09a1.91,1.91,0,0,0,1.25,0L120.91,255a1.83,1.83,0,0,1,.61-.11h9.12a1.92,1.92,0,0,0,1.07-.32l12.39-8.31a1.92,1.92,0,0,1,1.58-.27l4.31,1.17a1.93,1.93,0,0,0,2.29-2.59l-3.55-8.7a2,2,0,0,1-.06-1.27l5.07-17.09a1.92,1.92,0,0,0-1.09-2.32l-18.3-7.84-18.43-7a1.91,1.91,0,0,1-.84-.62l-11-14a1.93,1.93,0,0,0-1.52-.74h-17a1.92,1.92,0,0,0-1.2.41l-5.93,4.67a1.91,1.91,0,0,1-2.05.22l-4.88-2.44a1.93,1.93,0,0,0-2.2.34L60.15,197l-.12.12L48.88,209.86a2,2,0,0,1-.84.56l-20.19,6.76A1.92,1.92,0,0,0,26.55,219.31Z"/><path class="cls-85" d="M32.71,218.32,34.14,229l.71,5.32L35,235.6l.06.42a7.69,7.69,0,0,1-.09,2.65l-.08.32,0,.14,0,.16-.75,2.57-.74,2.58-.18.61a3.62,3.62,0,0,0-2.05-4.14l-.29-.11.05,0,.08,0,.31.12,1.26.47,2.51.95,10,3.8,40.19,15.05,2.51.94.32.12.05,0-.08,0-.17,0a2.06,2.06,0,0,0-1.05.09l.32-.1.64-.2,5.11-1.61,10.24-3.23,10.22-3.26,5.11-1.63,1.28-.41.28-.08a3.54,3.54,0,0,1,.44-.11,5.51,5.51,0,0,1,.9-.1h.76l2.68,0,5.36.06c.19,0,.61,0,.31,0a1.48,1.48,0,0,0-.41.12l-.09.06,0,0,.07,0,.28-.19.56-.37,2.23-1.48c3-2,5.94-4,8.9-6l.27-.19.08-.05.19-.12a2.82,2.82,0,0,1,.38-.21,5,5,0,0,1,1.69-.5,5.21,5.21,0,0,1,1.76.1l.73.19,2.59.67.65.17.33.08.15,0a.19.19,0,0,0-.1,0,1.39,1.39,0,0,0-.91.14,1.34,1.34,0,0,0-.58.66,1.45,1.45,0,0,0,0,.94l-2-4.8-1-2.47-.53-1.24,0-.07-.08-.21c0-.14-.1-.29-.14-.44a4.79,4.79,0,0,1-.16-.92,5.24,5.24,0,0,1,.15-1.85l2.95-10.41,1.49-5.16.37-1.29c.05-.17.16-.6.07-.23a1.67,1.67,0,0,0,0,.59,1.7,1.7,0,0,0,.58,1,1.37,1.37,0,0,0,.24.18l.13.07s.08,0,0,0l-.08,0-.62-.26-9.85-4.13-4.93-2.06-2.46-1c-.82-.34-1.67-.63-2.5-.94l-10-3.7-5-1.84-1.34-.5a6,6,0,0,1-1.73-1.08,5.51,5.51,0,0,1-.7-.75l-.21-.26-1.67-2.1-6.68-8.4-1.66-2.1-.84-1.05s-.06-.08,0,0l.06.07.13.14a1.76,1.76,0,0,0,.3.24,2.17,2.17,0,0,0,.69.32l.38.06h-2.05l-2.69,0L87,189.24h-1.3l.21,0a1.89,1.89,0,0,0,.4-.08,2.49,2.49,0,0,0,.72-.38l-2.06,1.66-2.1,1.67-1,.84-.53.42-.13.11-.17.13-.22.16a6.78,6.78,0,0,1-1,.53,6.31,6.31,0,0,1-4.28.31,5.46,5.46,0,0,1-1-.38l-.35-.17-.6-.3-2.41-1.17L69.93,192l-.3-.15c-.2-.1,0,0,.16.06a2.25,2.25,0,0,0,.85.16,2.49,2.49,0,0,0,1.6-.57l.08-.07,0,0-.12.11-.24.24-.48.47-7.68,7.49-.48.46-.05.05.08-.07.08-.09-.06.07-.22.25-.87,1-1.75,2-3.49,4.07-3.5,4.07-.87,1-.22.26-.19.22a5.14,5.14,0,0,1-.41.4,6.41,6.41,0,0,1-1.93,1.23l-.26.11-.19.06-.16.06L49,215l-.63.22-1.27.44L37,219.17l-5.07,1.75-2.46.84A2.93,2.93,0,0,0,31,220.5a3,3,0,0,0,.39-2Zm-11,1.77a6.84,6.84,0,0,1,.88-4.55,6.75,6.75,0,0,1,3.58-2.92l2.63-.86,5.1-1.67,10.2-3.32,1.27-.41.64-.21.32-.1.16-.06s0,0,0,0l-.11,0a2.66,2.66,0,0,0-.8.51c-.39.4,0,0,.08-.11l.89-1,3.56-4,3.55-4,1.78-2,.89-1,.23-.25c-.08.07.56-.6.51-.53l.48-.46,7.81-7.36.48-.46.25-.23.12-.12.15-.13.2-.19a6.41,6.41,0,0,1,4.08-1.46,6.16,6.16,0,0,1,2.16.39,6.55,6.55,0,0,1,.77.34l.3.15,1.19.61,2.39,1.21.6.31.25.12a2.74,2.74,0,0,0-.4-.15,2.46,2.46,0,0,0-1.65.13,2.71,2.71,0,0,0-.37.21l-.08.06,0,0,.13-.1.53-.41,1.06-.82,2.12-1.65L81.75,182a6.18,6.18,0,0,1,1.9-1,6.38,6.38,0,0,1,1-.24l.54-.05H87l10.72.08,2.69,0H103a5.25,5.25,0,0,1,1,.17,6.23,6.23,0,0,1,1.92.85,5.77,5.77,0,0,1,.81.67c.13.12.25.25.37.38l.17.2.08.1.81,1.07,1.64,2.12,6.53,8.51,1.64,2.13.2.26a2,2,0,0,0-.25-.26,2,2,0,0,0-.6-.37l1.17.45,5,2L133.61,203c.83.33,1.68.63,2.5,1l2.47,1.08,4.94,2.16,9.86,4.33.62.27.26.12.43.22a5.39,5.39,0,0,1,.79.56,5.57,5.57,0,0,1,1.9,3.29,5.68,5.68,0,0,1,0,1.93,6.37,6.37,0,0,1-.19.74l-.09.32-.4,1.28-1.57,5.13L152,235.54a1.58,1.58,0,0,0,0-.53,1.11,1.11,0,0,0-.05-.25.5.5,0,0,0,0-.13l0,0,0,.07.5,1.25,1,2.5,2,5.13a5.19,5.19,0,0,1-2.31,6.23,5,5,0,0,1-1.7.62,5.37,5.37,0,0,1-1.79,0l-.43-.09-.17-.05-.32-.09L148,250l-2.58-.73-.57-.16a1.25,1.25,0,0,0,.43,0,1.48,1.48,0,0,0,.41-.12l.09-.06,0,0-.06,0-.28.19q-4.47,3-8.92,6l-2.22,1.5-.55.38-.28.19-.07.05-.18.11c-.12.08-.25.15-.38.22a5.25,5.25,0,0,1-1.68.5c-.75.07-.77,0-1,.05l-5.36.06-2.68,0-.59,0a.85.85,0,0,0,.23,0l.12,0h0l-.07,0-1.27.45-5,1.81L105.46,264l-10.09,3.65-5.05,1.82-.63.23-.32.11a7.18,7.18,0,0,1-1,.25,6.07,6.07,0,0,1-2,0,4.54,4.54,0,0,1-.5-.12l-.24-.07-.11,0-.32-.1-2.55-.82L41.75,255.77l-10.23-3.24L29,251.72l-1.28-.41-.32-.1-.19-.06a6.07,6.07,0,0,1-.59-.24,7.39,7.39,0,0,1-2.14-1.44,7.52,7.52,0,0,1-2.23-4.56,7.27,7.27,0,0,1,.17-2.59l.16-.69.61-2.62.6-2.61,0-.16s0-.11,0,0l0,.16a3.5,3.5,0,0,0-.09.66,3.65,3.65,0,0,0,0,.66c0,.09,0,0,0,0l0-.08,0-.17-.25-1.31-1-5.28-2-10.54Z"/><path class="cls-86" d="M58.26,210.82c0,6.3,12.4,11.42,27.69,11.42s27.69-5.12,27.69-11.42-8.2-21.43-27.69-21.43S58.26,204.51,58.26,210.82Z"/><circle class="cls-87" cx="93.6" cy="199.56" r="8.83"/><path class="cls-88" d="M103.75,187.05a.84.84,0,1,1-.41,1.63c-.46-.11-3-6.57-2.86-7S103.29,186.93,103.75,187.05Z"/><line class="cls-89" x1="83.48" y1="192.09" x2="91.48" y2="189.88"/><circle class="cls-88" cx="123.66" cy="204.54" r="0.84"/><circle class="cls-88" cx="60.86" cy="204.97" r="0.84"/><circle class="cls-88" cx="78.82" cy="191.46" r="0.84"/><circle class="cls-88" cx="63.37" cy="193.15" r="0.84"/><path class="cls-90" d="M111,160.3c-.25,1.21-1.73,2.55-2.65,1.73-1.52-1.35-2-1.45-1.73-2.66a2.24,2.24,0,1,1,4.38.93Z"/><path class="cls-90" d="M105.38,145.16c-.25,1.21-1.73,2.55-2.65,1.73-1.52-1.34-2-1.44-1.73-2.65a2.24,2.24,0,1,1,4.38.92Z"/><circle class="cls-91" cx="106.81" cy="137.11" r="0.51"/><circle class="cls-92" cx="114.73" cy="162.66" r="0.36"/><path class="cls-85" d="M108.77,128.5l-3.24,16.84-.28-1.19c1.36,2,2.71,4.07,4.09,6.1a1.9,1.9,0,0,1,.31.88l0,.22.32,3.89-1.35-2.11,8.62,4-1.76-.27,6.51-1.24a3,3,0,0,1,1.12,5.93l-.15,0-6.56.91-.18,0a2.52,2.52,0,0,1-1.58-.3l-8.28-4.65-.17-.1a2.29,2.29,0,0,1-1.17-2v-3.89l.33,1.1c-1.16-2.15-2.35-4.29-3.52-6.43a2.23,2.23,0,0,1-.28-1V145l-.5-17.14a3.88,3.88,0,1,1,7.69.62Z"/><path class="cls-85" d="M116.58,169.39l5.08-7.34h0l0-.45-.4,1.68a11.56,11.56,0,0,1-1.73-2.08,3.19,3.19,0,0,1-.44-1.11,11.29,11.29,0,0,1-.19-1.14,10.24,10.24,0,0,1,0-2.35,7.58,7.58,0,0,1,.6-2.44l.48-2,2.69-4.3a3,3,0,1,1,5.12,3.21c-.08.12-.17.24-.26.35l-3.28,3.86.48-2a7.91,7.91,0,0,1,1.32,2.14,11.62,11.62,0,0,1,.68,2.25,11,11,0,0,1,.16,1.15,3.17,3.17,0,0,1-.08,1.18,11.08,11.08,0,0,1-1,2.51l-.4,1.68-.43.13h0l-5.3,7.18a1.85,1.85,0,0,1-3-2.15Z"/><path class="cls-93" d="M110.56,160.21c-.2.95-1.35,2-2.07,1.35-1.18-1.05-1.55-1.13-1.35-2.07a1.75,1.75,0,0,1,3.42.72Z"/><path class="cls-93" d="M104.9,145.08c-.2.94-1.35,2-2.07,1.34-1.18-1-1.55-1.12-1.35-2.07a1.75,1.75,0,1,1,3.42.73Z"/><circle class="cls-94" cx="106.81" cy="137.11" r="0.4"/><circle class="cls-95" cx="114.73" cy="162.66" r="0.47"/><path class="cls-90" d="M91.58,166.91c-.26,1.21-1.73,2.55-2.66,1.73-1.51-1.35-2-1.45-1.73-2.66a2.24,2.24,0,0,1,4.39.93Z"/><path class="cls-90" d="M92.52,140.46c-.26,1.21-1.73,2.55-2.65,1.73-1.52-1.35-2-1.44-1.73-2.65a2.24,2.24,0,1,1,4.38.92Z"/><circle class="cls-92" cx="86.81" cy="150.67" r="0.36"/><path class="cls-85" d="M99.09,135.85l-8.27,12.68.16-.82.3,5.44a1.85,1.85,0,0,1-.11.75l-.08.2L89.57,158l.21-1.16,1.33,11.87a3,3,0,1,1-6,.67,2.64,2.64,0,0,1,0-.28l-.22-11.94v-.23a2.21,2.21,0,0,1,.21-.92L87,152.27l-.19.94.15-5.45a1.45,1.45,0,0,1,0-.29l.12-.54,3.48-14.74a4.71,4.71,0,1,1,8.53,3.66Z"/><path class="cls-85" d="M78,165.76l7,2v0l.34-.17-.74-.1A10.73,10.73,0,0,1,86,166.32a2.72,2.72,0,0,1,1.45-.56,4.1,4.1,0,0,1,1.46.18c.49.15,1,.36,1.48.55a6.16,6.16,0,0,0,1.47.39,10.19,10.19,0,0,0,1.46.06,8.5,8.5,0,0,0,2.91-.51,3.21,3.21,0,1,1,.17,6,8.46,8.46,0,0,0-2.93-.34,10.16,10.16,0,0,0-1.46.14,6.28,6.28,0,0,0-1.45.47c-.48.22-1,.46-1.44.64a4.11,4.11,0,0,1-1.45.26,2.73,2.73,0,0,1-1.48-.48A10.07,10.07,0,0,1,84.69,172l-.74-.1-.18-.33v0l-6.88-2.29a1.85,1.85,0,0,1,1.1-3.53Z"/><path class="cls-93" d="M91.09,166.82c-.2.94-1.35,2-2.07,1.35-1.18-1-1.55-1.13-1.35-2.07a1.75,1.75,0,1,1,3.42.72Z"/><path class="cls-93" d="M92,140.37c-.2.95-1.35,2-2.07,1.35-1.19-1.05-1.55-1.12-1.35-2.07a1.75,1.75,0,1,1,3.42.72Z"/><circle class="cls-95" cx="86.81" cy="150.67" r="0.47"/><line class="cls-96" x1="118.19" y1="32.84" x2="123.29" y2="27.11"/><line class="cls-97" x1="117.48" y1="35.44" x2="122.21" y2="28.62"/><circle class="cls-98" cx="111.73" cy="46.39" r="7.15"/><circle class="cls-98" cx="90.98" cy="116.48" r="7.15"/><path class="cls-85" d="M117.88,50a74.31,74.31,0,0,1,.92,8.88c0,.76,0,1.55,0,2.33,0,.4,0,.8,0,1.2s0,.81-.09,1.23a20.7,20.7,0,0,1-1.07,5.24l-.11.35-.15.36-.31.71c-.1.24-.25.49-.38.73s-.27.49-.42.74a12.1,12.1,0,0,1-2.5,2.82c-.27.21-.55.4-.83.6l-.41.26-.4.23c-.47.26-.89.47-1.22.63-.67.34-1.15.59-1.52.83a2.4,2.4,0,0,0-1.05,1.12c0,.09-.06.17-.07.25a.29.29,0,0,0,0,.16,6.46,6.46,0,0,1,0,.93c0,.34-.06.79-.14,1.34s-.22,1.12-.35,1.68l-.1.42-.14.42-.3.83a11.38,11.38,0,0,1-.72,1.59,19.85,19.85,0,0,1-3.8,5c-1.3,1.28-2.46,2.23-3.43,3.11a21.32,21.32,0,0,0-2.34,2.36,7.7,7.7,0,0,0-1.75,4.08,15.54,15.54,0,0,0,.43,5.3,8.43,8.43,0,1,1-16.42,3.84,9,9,0,0,1-.2-1.35l0-.43A30.77,30.77,0,0,1,80.17,96.4a22.36,22.36,0,0,1,2.68-5.66,24.08,24.08,0,0,1,3.94-4.55,37.32,37.32,0,0,1,4-3.09c1.23-.84,2.33-1.53,3.11-2.11a9.82,9.82,0,0,0,1.6-1.39,1.09,1.09,0,0,0,.22-.27l.1-.15.05-.06,0-.09c0-.12.11-.23.17-.35a5.85,5.85,0,0,0,.18-.73,17.4,17.4,0,0,1,.84-3.17A12.78,12.78,0,0,1,98,73a16.35,16.35,0,0,1,1-1.53A13.4,13.4,0,0,1,101.57,69a14.84,14.84,0,0,1,2.78-1.63,24.48,24.48,0,0,1,2.29-.9l.69-.24.06,0h.09a.68.68,0,0,0,.35-.22l.13-.16c0-.06.1-.09.14-.18l.14-.22.07-.12.07-.14a11.34,11.34,0,0,0,1-2.87,7.3,7.3,0,0,0,.16-.86l.15-.88c.06-.62.16-1.22.19-1.85a64.2,64.2,0,0,0,0-7.86v-.05a4,4,0,0,1,8-.81Z"/><path class="cls-85" d="M98.94,107.6a28.08,28.08,0,0,0,5.65,3.9,26.67,26.67,0,0,0,3.22,1.43,38.37,38.37,0,0,0,3.79,1.13,39.84,39.84,0,0,1,5.24,1.56c.49.21,1,.42,1.47.67a15.13,15.13,0,0,1,1.41.81,17.73,17.73,0,0,1,2.5,1.91,18.56,18.56,0,0,1,3.64,4.65,23.41,23.41,0,0,1,2,5,4,4,0,0,1-7.3,3.3l-.11-.18a11,11,0,0,0-4.58-4.36,6.64,6.64,0,0,0-1.21-.41c-.2,0-.39-.08-.59-.09a5.39,5.39,0,0,0-.6,0c-.8,0-1.94,0-3.38,0a47.89,47.89,0,0,1-4.89-.06,43.37,43.37,0,0,1-5.28-.69,44.79,44.79,0,0,1-10.26-3.35l-.56-.26a9,9,0,0,1,7.6-16.36A9.19,9.19,0,0,1,98.94,107.6Z"/><circle class="cls-99" cx="96.99" cy="131.39" r="4.48"/><circle class="cls-99" cx="107.12" cy="57" r="4.48"/><path class="cls-99" d="M103.12,87.22c-.51,2.42-3.46,5.1-5.31,3.45-3-2.69-4-2.88-3.45-5.3a4.48,4.48,0,1,1,8.76,1.85Z"/><path class="cls-99" d="M107.71,76.2c-.51,2.42-3.46,5.1-5.31,3.45-3-2.69-4-2.89-3.45-5.31a4.48,4.48,0,1,1,8.76,1.86Z"/><path class="cls-99" d="M94,102c-.51,2.42-3.46,5.1-5.31,3.46-3-2.69-4-2.89-3.45-5.31A4.48,4.48,0,1,1,94,102Z"/><circle class="cls-99" cx="119.8" cy="46.69" r="4.48"/><circle class="cls-99" cx="111" cy="33.83" r="4.48"/><circle class="cls-100" cx="119.97" cy="129" r="2.25"/><circle class="cls-101" cx="101.06" cy="111.79" r="5.38"/><circle class="cls-100" cx="104.61" cy="127.14" r="2.25"/><circle class="cls-100" cx="82.33" cy="92.22" r="2.25"/><circle class="cls-100" cx="102.53" cy="82.03" r="2.25"/><line class="cls-100" x1="123.57" y1="121.7" x2="131.23" y2="121.23"/><line class="cls-100" x1="109.8" y1="66.84" x2="117.46" y2="66.37"/><line class="cls-96" x1="125.38" y1="43.7" x2="131.93" y2="47.71"/><line class="cls-85" x1="101.94" y1="35.71" x2="89.01" y2="28.42"/><path class="cls-85" d="M100.2,38.8,88.11,30a1.84,1.84,0,0,1,1.8-3.18l13.77,5.8a3.57,3.57,0,0,1-2.77,6.57A4.07,4.07,0,0,1,100.2,38.8Z"/><line class="cls-100" x1="96.31" y1="44.11" x2="103.97" y2="43.64"/><circle class="cls-92" cx="92.33" cy="97.65" r="0.36"/><circle class="cls-92" cx="76.34" cy="107.03" r="0.36"/><circle class="cls-92" cx="118.88" cy="24.43" r="0.36"/><circle class="cls-102" cx="107.75" cy="126.42" r="1.79"/><circle class="cls-92" cx="135.52" cy="52.98" r="0.36"/><circle class="cls-92" cx="150.18" cy="57.45" r="0.36"/><circle class="cls-92" cx="134.15" cy="49.41" r="0.36"/><circle class="cls-92" cx="95.9" cy="26.21" r="0.36"/><circle class="cls-92" cx="102.38" cy="101.06" r="0.36"/><circle class="cls-92" cx="121.61" cy="116.23" r="0.36"/><circle class="cls-92" cx="107.75" cy="109.33" r="0.36"/><polygon class="cls-100" points="108.18 33.91 100.46 32.69 100.63 38.77 108.18 33.91"/><line class="cls-85" x1="98.57" y1="41" x2="85.89" y2="37.66"/><path class="cls-85" d="M97.68,44.42l-12.5-4a2.82,2.82,0,0,1,1.43-5.44l12.86,2.63a3.55,3.55,0,0,1-1.42,7Z"/><circle class="cls-103" cx="98.55" cy="127.6" r="3.49"/><circle class="cls-104" cx="108.28" cy="55.09" r="3.49"/><path class="cls-104" d="M102.15,87c-.4,1.89-2.7,4-4.14,2.7-2.36-2.1-3.09-2.25-2.69-4.14A3.49,3.49,0,1,1,102.15,87Z"/><path class="cls-104" d="M106.74,76c-.4,1.89-2.7,4-4.14,2.7-2.36-2.1-3.09-2.26-2.7-4.14A3.49,3.49,0,1,1,106.74,76Z"/><path class="cls-104" d="M90.64,106.05c-.4,1.89-2.7,4-4.15,2.7-2.36-2.1-3.09-2.26-2.69-4.15a3.5,3.5,0,0,1,6.84,1.45Z"/><circle class="cls-104" cx="118.36" cy="47.1" r="3.49"/><circle class="cls-104" cx="111.77" cy="37.29" r="3.49"/><circle class="cls-97" cx="121.34" cy="126.94" r="1.75"/><circle class="cls-105" cx="101.4" cy="110" r="2.48"/><circle class="cls-97" cx="104.61" cy="127.14" r="1.75"/><circle class="cls-106" cx="84.15" cy="92.6" r="1.44"/><circle class="cls-97" cx="102.53" cy="82.03" r="1.75"/><line class="cls-97" x1="124.41" y1="121.65" x2="130.38" y2="121.28"/><line class="cls-97" x1="110.64" y1="66.79" x2="116.62" y2="66.42"/><line class="cls-97" x1="122.7" y1="43.47" x2="130.25" y2="46.92"/><line class="cls-96" x1="122.69" y1="37.62" x2="130.26" y2="36.37"/><line class="cls-97" x1="120.51" y1="39.2" x2="128.48" y2="36.88"/><line class="cls-85" x1="104.83" y1="37.79" x2="94.75" y2="32.1"/><path class="cls-107" d="M104,39.35l-9.66-6.44a.93.93,0,0,1,.92-1.62l10.5,4.94a1.8,1.8,0,0,1-1.53,3.25Z"/><line class="cls-85" x1="105.2" y1="43" x2="89.72" y2="38.38"/><path class="cls-107" d="M104.69,44.72,89.45,39.27A.93.93,0,0,1,90,37.49l15.74,3.8a1.79,1.79,0,1,1-.85,3.48Z"/><line class="cls-97" x1="97.16" y1="44.06" x2="103.13" y2="43.69"/><circle class="cls-95" cx="92.33" cy="97.65" r="0.47"/><circle class="cls-95" cx="76.34" cy="107.03" r="0.47"/><circle class="cls-95" cx="120.27" cy="34.47" r="0.47"/><circle class="cls-108" cx="107.75" cy="126.42" r="1.39"/><circle class="cls-95" cx="135.52" cy="52.98" r="0.47"/><circle class="cls-95" cx="134.15" cy="49.41" r="0.47"/><circle class="cls-95" cx="95.9" cy="26.21" r="0.47"/><circle class="cls-95" cx="94.88" cy="48.61" r="0.47"/><circle class="cls-95" cx="121.61" cy="116.23" r="0.47"/><circle class="cls-109" cx="111.73" cy="46.39" r="5.58"/><circle class="cls-109" cx="90.98" cy="116.48" r="5.58"/><path class="cls-107" d="M113.11,56.89a56.23,56.23,0,0,1,.64,6.84c0,.58,0,1.19,0,1.78s0,1.21-.11,1.83a15.73,15.73,0,0,1-.82,3.9,9.82,9.82,0,0,1-.43,1c-.16.35-.37.71-.57,1.06a8.43,8.43,0,0,1-1.78,2,9.23,9.23,0,0,1-1.15.77c-.34.18-.66.33-.91.45-.52.26-.92.46-1.25.66a3,3,0,0,0-1.18,1.11c0,.11-.1.2-.14.3s0,.18-.07.26,0,.37-.09.91c0,.26,0,.6-.11,1s-.17.8-.27,1.2l-.07.29-.1.3-.22.59a6.89,6.89,0,0,1-.52,1.14,14.26,14.26,0,0,1-2.77,3.58c-1,.94-1.87,1.66-2.65,2.35a19,19,0,0,0-2,1.9A7.31,7.31,0,0,0,94.8,95.8a12.93,12.93,0,0,0,.19,4.63,5.16,5.16,0,1,1-10.12,2.06,4.2,4.2,0,0,1-.08-.62l0-.17a22.68,22.68,0,0,1,.83-8.35,16.67,16.67,0,0,1,1.91-4.11,18,18,0,0,1,2.85-3.35,29.32,29.32,0,0,1,3-2.35c.94-.65,1.81-1.21,2.46-1.72a7,7,0,0,0,1.43-1.38,1.26,1.26,0,0,0,.21-.32l.1-.17,0-.08,0-.1c0-.13.09-.25.14-.38s.09-.35.14-.62a12.66,12.66,0,0,1,.58-2.28,8.32,8.32,0,0,1,.59-1.24,8.93,8.93,0,0,1,.72-1.09,9.44,9.44,0,0,1,1.83-1.8,11.12,11.12,0,0,1,2-1.19c.65-.3,1.25-.52,1.73-.7l.58-.22c.12,0,.16-.08.23-.1a1.75,1.75,0,0,0,.46-.38c.08-.11.17-.22.25-.35a4,4,0,0,0,.25-.46,10.25,10.25,0,0,0,.75-2.43c.1-.45.16-.94.23-1.42s.12-1,.14-1.48a51.61,51.61,0,0,0,0-6.21v0a2.47,2.47,0,0,1,4.91-.5Z"/><path class="cls-107" d="M99,112.18a23.38,23.38,0,0,0,7.79,3.45c1,.22,2,.39,3.11.55a26.39,26.39,0,0,1,4,.77,12.56,12.56,0,0,1,2.17.86A13.18,13.18,0,0,1,118,119a14.21,14.21,0,0,1,3,3.14,17.84,17.84,0,0,1,1.89,3.54,2.44,2.44,0,0,1-4.28,2.3l0-.07a9.82,9.82,0,0,0-4-3.57,6.94,6.94,0,0,0-1.09-.36,6.5,6.5,0,0,0-1.09-.14,25,25,0,0,0-2.8.12c-1.12.08-2.41.16-3.72.14a31.32,31.32,0,0,1-4-.29,33.45,33.45,0,0,1-7.79-2.06l-.2-.08a5.42,5.42,0,1,1,4-10.07A6.28,6.28,0,0,1,99,112.18Z"/><circle class="cls-110" cx="112.08" cy="45.57" r="7.58"/><line class="cls-97" x1="112.12" y1="99.75" x2="112.01" y2="105.73"/><line class="cls-97" x1="109.83" y1="97.03" x2="107.91" y2="102.7"/><circle class="cls-95" cx="113.63" cy="106.13" r="0.47"/><circle class="cls-95" cx="133" cy="92.03" r="0.47"/><circle class="cls-95" cx="142.39" cy="96.04" r="0.47"/><circle class="cls-111" cx="115.41" cy="94.72" r="1.87"/><circle class="cls-111" cx="121.33" cy="105.07" r="1.87"/><circle class="cls-112" cx="121.41" cy="104.72" r="1.2"/><polygon class="cls-113" points="120.67 92.81 115.69 99.05 116.64 103.12 118.71 100.97 135.7 99.88 129.46 93.72 120.67 92.81"/><polygon class="cls-105" points="119.91 93.68 116.26 98.24 116.95 101.21 118.47 99.64 130.89 98.84 126.33 94.34 119.91 93.68"/><circle class="cls-112" cx="116.78" cy="95.64" r="1.2"/><circle class="cls-111" cx="77.23" cy="81.41" r="1.87"/><line class="cls-97" x1="71.39" y1="90.22" x2="71.27" y2="96.2"/><circle class="cls-95" cx="72.13" cy="76.09" r="0.47"/><circle class="cls-95" cx="62.72" cy="84.69" r="0.47"/><polygon class="cls-113" points="74.42 82.61 67.41 77.05 62.87 78.12 65.27 80.43 69.19 91.91 74.42 82.61"/><polygon class="cls-106" points="73.21 82.43 68.17 78.43 64.89 79.2 66.63 80.87 69.45 89.13 73.21 82.43"/><circle class="cls-112" cx="76.41" cy="81.26" r="1.2"/></g><g class="cls-114"><path class="cls-115" d="M262.52,22.51c-1-.79-1.79-1.47-2.65-2.22s-1.68-1.48-2.51-2.22c-1.67-1.49-3.28-3-4.88-4.56-3.18-3.1-6.29-6.26-9.29-9.53-6-6.5-11.69-13.33-17.08-20.38a306.73,306.73,0,0,1-28.47-45.14c-2-4-4-8-5.84-12.08-.91-2-1.89-4.06-2.75-6.13s-1.71-4.15-2.57-6.22-1.62-4.18-2.39-6.29l-1.15-3.17c-.38-1-.72-2.13-1.08-3.19L179.81-105q-.94-3.24-1.81-6.5c-.29-1.09-.61-2.17-.88-3.26s-.51-2.19-.76-3.29c-.48-2.2-1-4.38-1.46-6.59-.78-4.44-1.66-8.85-2.15-13.33-.25-2.24-.57-4.46-.76-6.71s-.32-4.49-.45-6.74c-.07-1.12-.13-2.24-.17-3.37s0-2.25,0-3.38,0-2.25,0-3.37,0-2.25.08-3.38a8.84,8.84,0,0,1,9.2-8.47,8.84,8.84,0,0,1,8.19,6.55l0,.17c4.33,16.29,8.42,32.22,13.67,47.9.67,2,1.32,3.91,1.94,5.88l2.06,5.84c.34,1,.66,2,1,2.93l1.09,2.9c.75,1.92,1.39,3.89,2.15,5.81,1.52,3.85,3,7.73,4.58,11.55L216.57-81c.4,1,.83,1.9,1.24,2.85.84,1.9,1.63,3.82,2.49,5.72a479.69,479.69,0,0,0,23,44.54c4.22,7.26,8.65,14.43,13.23,21.52,2.28,3.56,4.63,7.07,7,10.57L267.1,9.4,268.91,12l1.79,2.49.17.23a5.77,5.77,0,0,1-8.35,7.81Z"/><path class="cls-115" d="M280.81,47.25l-15.09-18c-5.05-6-10.09-12-15.19-17.87C240.34-.46,230-12.07,219.4-23.19c-2.65-2.79-5.36-5.51-8-8.27s-5.43-5.4-8.18-8-5.5-5.26-8.25-7.87l-4.16-3.85c-.69-.65-1.38-1.29-2.09-1.91L186.6-55l-2.1-1.89c-.7-.64-1.41-1.23-2.12-1.85l-4.24-3.69L173.85-66c-1.42-1.23-2.9-2.32-4.34-3.51-5.8-4.66-11.74-9-17.84-13.31l-.25-.18a8.85,8.85,0,0,1-2.15-12.34,8.88,8.88,0,0,1,9.65-3.44,108.9,108.9,0,0,1,23.43,10.09c.92.52,1.82,1.06,2.73,1.59s1.84,1.06,2.71,1.64l5.26,3.44c1.74,1.17,3.39,2.43,5.1,3.65s3.32,2.51,4.95,3.8c3.3,2.54,6.37,5.3,9.5,8s6.08,5.58,8.93,8.53,5.69,5.89,8.49,8.88l4.09,4.56c1.37,1.51,2.65,3.09,4,4.63a380.79,380.79,0,0,1,29,39c4.39,6.77,8.6,13.65,12.53,20.69q3,5.27,5.74,10.65c.91,1.8,1.83,3.6,2.69,5.43s1.74,3.63,2.58,5.57a5.79,5.79,0,0,1-9.75,6Z"/><path class="cls-116" d="M186.34,35.35c.16-.85.34-1.85.48-2.81l.44-2.9c.28-1.95.52-3.91.75-5.87.43-3.93.73-7.88,1-11.83s.42-7.91.5-11.88l.06-3V-8.86l-.05-3a293.74,293.74,0,0,0-4.68-47.33l-.55-2.93c-.17-1-.36-2-.58-2.92l-1.24-5.83c-.42-1.94-.92-3.86-1.38-5.79l-.71-2.9-.79-2.87c-2-7.69-4.51-15.25-7.16-22.75a307.53,307.53,0,0,0-19.85-43.5h0a2.43,2.43,0,0,1,.94-3.3,2.45,2.45,0,0,1,3.23.82,270,270,0,0,1,22.37,43.43c.76,1.89,1.46,3.81,2.19,5.72l1.09,2.87c.37,1,.67,1.93,1,2.89l2,5.8c.62,2,1.2,3.91,1.8,5.87l.88,2.94.8,3c.52,2,1.09,3.94,1.58,5.93l1.41,6c.24,1,.46,2,.65,3l.61,3A260.34,260.34,0,0,1,198.38-12l0,3.08,0,3.07,0,3.07L198.23.32c-.13,4.1-.43,8.19-.78,12.28s-.88,8.16-1.5,12.23c-.32,2-.66,4.06-1,6.09-.19,1-.4,2-.63,3s-.45,2-.73,3.11a3.71,3.71,0,0,1-7.24-1.59Z"/></g></g></g></svg>