<svg xmlns="http://www.w3.org/2000/svg" version="1.1" xmlns:xlink="http://www.w3.org/1999/xlink" xmlns:svgjs="http://svgjs.com/svgjs" width="1440" height="560" preserveAspectRatio="none" viewBox="0 0 1440 560"><g mask="url(&quot;#SvgjsMask1010&quot;)" fill="none"><path d="M227 211L226 392" stroke-width="6" stroke="url(#SvgjsLinearGradient1011)" stroke-linecap="round" class="Up"></path><path d="M1214 388L1213 72" stroke-width="6" stroke="url(#SvgjsLinearGradient1011)" stroke-linecap="round" class="Up"></path><path d="M738 231L737 37" stroke-width="10" stroke="url(#SvgjsLinearGradient1012)" stroke-linecap="round" class="Down"></path><path d="M1047 0L1046 260" stroke-width="6" stroke="url(#SvgjsLinearGradient1011)" stroke-linecap="round" class="Up"></path><path d="M1229 438L1228 842" stroke-width="8" stroke="url(#SvgjsLinearGradient1012)" stroke-linecap="round" class="Down"></path><path d="M1132 111L1131 -216" stroke-width="6" stroke="url(#SvgjsLinearGradient1011)" stroke-linecap="round" class="Up"></path><path d="M83 413L82 219" stroke-width="10" stroke="url(#SvgjsLinearGradient1011)" stroke-linecap="round" class="Up"></path><path d="M667 39L666 253" stroke-width="8" stroke="url(#SvgjsLinearGradient1011)" stroke-linecap="round" class="Up"></path><path d="M1004 368L1003 706" stroke-width="6" stroke="url(#SvgjsLinearGradient1012)" stroke-linecap="round" class="Down"></path><path d="M1105 33L1104 -219" stroke-width="10" stroke="url(#SvgjsLinearGradient1012)" stroke-linecap="round" class="Down"></path><path d="M477 174L476 439" stroke-width="10" stroke="url(#SvgjsLinearGradient1011)" stroke-linecap="round" class="Up"></path><path d="M911 429L910 742" stroke-width="8" stroke="url(#SvgjsLinearGradient1012)" stroke-linecap="round" class="Down"></path><path d="M914 343L913 736" stroke-width="6" stroke="url(#SvgjsLinearGradient1012)" stroke-linecap="round" class="Down"></path><path d="M655 448L654 827" stroke-width="10" stroke="url(#SvgjsLinearGradient1011)" stroke-linecap="round" class="Up"></path><path d="M145 308L144 491" stroke-width="10" stroke="url(#SvgjsLinearGradient1012)" stroke-linecap="round" class="Down"></path><path d="M369 89L368 338" stroke-width="10" stroke="url(#SvgjsLinearGradient1011)" stroke-linecap="round" class="Up"></path><path d="M583 554L582 136" stroke-width="6" stroke="url(#SvgjsLinearGradient1012)" stroke-linecap="round" class="Down"></path><path d="M1400 494L1399 226" stroke-width="8" stroke="url(#SvgjsLinearGradient1012)" stroke-linecap="round" class="Down"></path><path d="M301 307L300 3" stroke-width="10" stroke="url(#SvgjsLinearGradient1011)" stroke-linecap="round" class="Up"></path><path d="M659 501L658 814" stroke-width="6" stroke="url(#SvgjsLinearGradient1011)" stroke-linecap="round" class="Up"></path><path d="M1294 387L1293 565" stroke-width="6" stroke="url(#SvgjsLinearGradient1012)" stroke-linecap="round" class="Down"></path><path d="M948 410L947 188" stroke-width="8" stroke="url(#SvgjsLinearGradient1011)" stroke-linecap="round" class="Up"></path><path d="M281 242L280 51" stroke-width="8" stroke="url(#SvgjsLinearGradient1012)" stroke-linecap="round" class="Down"></path><path d="M498 45L497 358" stroke-width="6" stroke="url(#SvgjsLinearGradient1011)" stroke-linecap="round" class="Up"></path><path d="M817 80L816 -140" stroke-width="10" stroke="url(#SvgjsLinearGradient1012)" stroke-linecap="round" class="Down"></path><path d="M286 6L285 -234" stroke-width="6" stroke="url(#SvgjsLinearGradient1011)" stroke-linecap="round" class="Up"></path><path d="M642 111L641 -128" stroke-width="6" stroke="url(#SvgjsLinearGradient1011)" stroke-linecap="round" class="Up"></path><path d="M749 135L748 -235" stroke-width="6" stroke="url(#SvgjsLinearGradient1012)" stroke-linecap="round" class="Down"></path><path d="M384 536L383 868" stroke-width="6" stroke="url(#SvgjsLinearGradient1012)" stroke-linecap="round" class="Down"></path><path d="M94 334L93 700" stroke-width="6" stroke="url(#SvgjsLinearGradient1012)" stroke-linecap="round" class="Down"></path><path d="M1055 413L1054 -6" stroke-width="8" stroke="url(#SvgjsLinearGradient1012)" stroke-linecap="round" class="Down"></path><path d="M686 105L685 290" stroke-width="10" stroke="url(#SvgjsLinearGradient1011)" stroke-linecap="round" class="Up"></path><path d="M1166 226L1165 46" stroke-width="8" stroke="url(#SvgjsLinearGradient1011)" stroke-linecap="round" class="Up"></path><path d="M1325 542L1324 336" stroke-width="8" stroke="url(#SvgjsLinearGradient1012)" stroke-linecap="round" class="Down"></path><path d="M245 472L244 661" stroke-width="6" stroke="url(#SvgjsLinearGradient1011)" stroke-linecap="round" class="Up"></path><path d="M399 433L398 675" stroke-width="6" stroke="url(#SvgjsLinearGradient1011)" stroke-linecap="round" class="Up"></path></g><defs><mask id="SvgjsMask1010"><rect width="1440" height="560" fill="#ffffff"></rect></mask><linearGradient x1="0%" y1="100%" x2="0%" y2="0%" id="SvgjsLinearGradient1011"><stop stop-color="rgba(208, 80, 75, 0)" offset="0"></stop><stop stop-color="rgba(208, 80, 75, 0.33)" offset="1"></stop></linearGradient><linearGradient x1="0%" y1="0%" x2="0%" y2="100%" id="SvgjsLinearGradient1012"><stop stop-color="rgba(208, 80, 75, 0)" offset="0"></stop><stop stop-color="rgba(208, 80, 75, 0.33)" offset="1"></stop></linearGradient></defs></svg>