<svg width="1341" height="895" viewBox="0 0 1341 895" fill="none" xmlns="http://www.w3.org/2000/svg">
<rect x="1" width="1340" height="888" fill="white"/>
<path d="M451 392L447.5 385.5L461 371.5L471 326.5L479.5 304.5L490.5 282.5L508.5 262L573.5 244L748.5 253.5L797 295L808 344.5L818.5 359.5L812 376.5V392L775.5 430L761.5 417.5L771.5 427L765.032 455.644L775.5 462L779.5 483L761.5 529.5L748.5 540.5L741 553H725.5L716.252 540.5L713.5 549L709 545L694.5 591V615.5L717.5 656L769 675L808.5 690.5L858.5 743L872.5 770L958.5 882.511H853L678.5 882.521L579.5 883L543.5 882.511L373 880.197L358.5 880L350 880.171L209 883V756.5H224.5L284 713.5L293.5 694.5L303.5 684.75L313.5 675H350L355.5 666.5H362H380.5L414.5 663L447.5 647L479.5 615.5L509.5 647L539 659.5H551.391L513.5 647L490.5 607.1L539 501.5L531.5 438L474.837 435L451 392Z" fill="#585858" fill-opacity="0.38"/>
<path d="M536 467L531.5 438L594.5 414V429L580 450.5L568.5 471.5L553.5 474.5L536 512L531.5 531L518 571H510.5L518 555.5L531.5 512L536 467Z" fill="url(#paint0_linear)" fill-opacity="0.62" stroke="black"/>
<path d="M279 483L287.5 442.5L550.5 437.5L515.5 568L492 613L440.5 654.5L384 675L343.5 669L326.5 659.5L308 634.5L287.5 583L281.5 533.5L279 483Z" fill="url(#paint1_linear)" stroke="black"/>
<path d="M411.589 469.5L389.25 461.244L393.924 453.765L394.527 452.8L393.409 453.008L350.454 461H302.056L267.445 453.089L259.51 399.034L277.464 336.694L302.4 292.308L320.764 274.441L350.635 264.982L393.56 254.5H537.347L577.122 281.348L611.031 341.686L618.49 372.02L611.049 417.662L537.324 453.03L477.932 469.5H411.589Z" fill="url(#paint2_linear)" stroke="#040404"/>
<path d="M584 476.5L573 470L550 473L547.5 481.5L531.5 522.5L524 554.5L536 566.5L550 564.5L555.5 554.5L570 540.5L577 522.5L584 499V476.5Z" fill="url(#paint3_linear)" stroke="black"/>
<path d="M281 606L288.5 589L325.5 656.5L345.5 668L393 672L441 656.5L488.5 618L503 595L506 615.5L492 634L519 694L512.5 710L488.5 759.5L474.5 804V827.5L486 890.5H389.5L312.5 736L251 643.5L281 606Z" fill="url(#paint4_linear)" stroke="black"/>
<path d="M233 659.5L254 643.5L321.5 752.5L371 856L388.5 894.5H356L332 872L313.5 830L287.5 801.5L240.5 777.5L258 741.5L240.5 733L213 700.5L163.5 678.5L189.5 664L204 667L233 659.5Z" fill="#646464" stroke="black"/>
<path d="M149 684.5L156 681L182 690L231.5 734.5L247 742.5L231.5 779L255.5 790L291 816L314 855.5L347.5 894.5H1V772.5L33.5 763.5L85.5 728.5V718L96.5 698L121 684.5H149Z" fill="url(#paint5_linear)" stroke="black"/>
<path d="M157.5 680L163 677L213.5 700L241 732.5L258 741.5L241 777.5L286.5 800.5L315.5 829.5L332.5 872L355 894.5H348.5L315.5 858L290 815L253.5 788L232 777.5L246.5 741.5L232 735.5L181 689L157.5 680Z" fill="#565656" stroke="black"/>
<path d="M505 615H513.5L509 627L534.5 662L610.5 690L657.5 734.5L691 779.5L761.5 860.5L772.5 893L496.5 885.5L485.5 889.5L474 801L519 693L492.5 633.5L505 615Z" fill="url(#paint6_linear)"/>
<path d="M534.5 662L509 627L513.5 615H505L492.5 633.5L519 693L474 801L485.5 889.5L496.5 885.5M534.5 662L610.5 690L657.5 734.5L691 779.5L761.5 860.5L772.5 893L496.5 885.5M534.5 662L565.5 705L577 731L565.5 749.5L561 718.5L531.5 731V749.5L523 752.5L483 807M534.5 662L523 724L483 807M496.5 885.5L483 807" stroke="#090909"/>
<path d="M120.5 758.5L91 734L120.5 687L157.5 734L174.5 783V891H135.5V829.5L120.5 783V758.5Z" stroke="black"/>
<path d="M468 744L497.5 728L523.5 697.5L497.5 763L483 805L491 887L396.5 891L310.72 731.957L262 730.5L271 711.5L280 675L310.72 731.957L379 734L468 744Z" fill="#575757"/>
<path d="M280 675L396.5 891L491 887L483 805L497.5 763L523.5 697.5L497.5 728L468 744L379 734L262 730.5L271 711.5L280 675Z" stroke="black"/>
<defs>
<linearGradient id="paint0_linear" x1="540" y1="511" x2="552.5" y2="571" gradientUnits="userSpaceOnUse">
<stop/>
<stop offset="1" stop-color="#141414" stop-opacity="0"/>
</linearGradient>
<linearGradient id="paint1_linear" x1="304" y1="509.5" x2="453.5" y2="708" gradientUnits="userSpaceOnUse">
<stop stop-color="#6F6F6F" stop-opacity="0.46"/>
<stop offset="0.625798" stop-color="#686868" stop-opacity="0.3"/>
</linearGradient>
<linearGradient id="paint2_linear" x1="485.5" y1="470" x2="488.5" y2="490" gradientUnits="userSpaceOnUse">
<stop stop-color="#212121"/>
<stop offset="1" stop-color="#171717" stop-opacity="0"/>
</linearGradient>
<linearGradient id="paint3_linear" x1="542" y1="559.5" x2="584" y2="477.5" gradientUnits="userSpaceOnUse">
<stop stop-opacity="0.29"/>
<stop offset="1" stop-color="#6B6B6B" stop-opacity="0.04"/>
</linearGradient>
<linearGradient id="paint4_linear" x1="519" y1="676.5" x2="385" y2="890.5" gradientUnits="userSpaceOnUse">
<stop offset="0.198583" stop-color="#1C1C1C" stop-opacity="0.87"/>
<stop offset="0.82017" stop-color="#2D2D2D" stop-opacity="0.49"/>
</linearGradient>
<linearGradient id="paint5_linear" x1="199" y1="870" x2="340.5" y2="727" gradientUnits="userSpaceOnUse">
<stop stop-opacity="0.81"/>
<stop offset="1" stop-opacity="0.49"/>
</linearGradient>
<linearGradient id="paint6_linear" x1="584" y1="893.5" x2="704" y2="772" gradientUnits="userSpaceOnUse">
<stop offset="0.378191" stop-color="#414141" stop-opacity="0.97"/>
<stop offset="0.806257" stop-opacity="0.86"/>
</linearGradient>
</defs>
</svg>
