<svg xmlns="http://www.w3.org/2000/svg" version="1.1" xmlns:xlink="http://www.w3.org/1999/xlink" xmlns:svgjs="http://svgjs.com/svgjs" width="1440" height="560" preserveAspectRatio="none" viewBox="0 0 1440 560"><g mask="url(&quot;#SvgjsMask1002&quot;)" fill="none"><path d="M-92.43 362.18L-92.43 362.18" stroke="#132e65" stroke-width="1.5"></path><path d="M-92.43 362.18L51.09 385.74" stroke="#132e65" stroke-width="1.5"></path><path d="M-92.43 362.18L-42.75 511" stroke="#132e65" stroke-width="1.5"></path><path d="M-92.43 362.18L234.49 356.33" stroke="#132e65" stroke-width="1.5"></path><path d="M-92.43 362.18L-59.27 691.19" stroke="#132e65" stroke-width="1.5"></path><path d="M-92.43 362.18L61.87 659.84" stroke="#132e65" stroke-width="1.5"></path><path d="M-42.75 511L-42.75 511" stroke="#132e65" stroke-width="1.5"></path><path d="M-42.75 511L51.09 385.74" stroke="#132e65" stroke-width="1.5"></path><path d="M-42.75 511L-59.27 691.19" stroke="#132e65" stroke-width="1.5"></path><path d="M-59.27 691.19L-59.27 691.19" stroke="#132e65" stroke-width="1.5"></path><path d="M-59.27 691.19L61.87 659.84" stroke="#132e65" stroke-width="1.5"></path><path d="M51.09 385.74L51.09 385.74" stroke="#132e65" stroke-width="1.5"></path><path d="M51.09 385.74L234.49 356.33" stroke="#132e65" stroke-width="1.5"></path><path d="M51.09 385.74L255.42 548.11" stroke="#132e65" stroke-width="1.5"></path><path d="M51.09 385.74L61.87 659.84" stroke="#132e65" stroke-width="1.5"></path><path d="M51.09 385.74L218.58 659.22" stroke="#132e65" stroke-width="1.5"></path><path d="M61.87 659.84L61.87 659.84" stroke="#132e65" stroke-width="1.5"></path><path d="M61.87 659.84L218.58 659.22" stroke="#132e65" stroke-width="1.5"></path><path d="M234.49 356.33L234.49 356.33" stroke="#132e65" stroke-width="1.5"></path><path d="M234.49 356.33L255.42 548.11" stroke="#132e65" stroke-width="1.5"></path><path d="M234.49 356.33L391.89 541.42" stroke="#132e65" stroke-width="1.5"></path><path d="M234.49 356.33L493.49 352.68" stroke="#132e65" stroke-width="1.5"></path><path d="M234.49 356.33L218.58 659.22" stroke="#132e65" stroke-width="1.5"></path><path d="M234.49 356.33L-42.75 511" stroke="#132e65" stroke-width="1.5"></path><path d="M255.42 548.11L255.42 548.11" stroke="#132e65" stroke-width="1.5"></path><path d="M255.42 548.11L218.58 659.22" stroke="#132e65" stroke-width="1.5"></path><path d="M255.42 548.11L391.89 541.42" stroke="#132e65" stroke-width="1.5"></path><path d="M218.58 659.22L218.58 659.22" stroke="#132e65" stroke-width="1.5"></path><path d="M391.89 541.42L391.89 541.42" stroke="#132e65" stroke-width="1.5"></path><path d="M391.89 541.42L503.23 552.36" stroke="#132e65" stroke-width="1.5"></path><path d="M391.89 541.42L503.39 641.36" stroke="#132e65" stroke-width="1.5"></path><path d="M391.89 541.42L369.82 710.49" stroke="#132e65" stroke-width="1.5"></path><path d="M391.89 541.42L218.58 659.22" stroke="#132e65" stroke-width="1.5"></path><path d="M369.82 710.49L369.82 710.49" stroke="#132e65" stroke-width="1.5"></path><path d="M369.82 710.49L503.39 641.36" stroke="#132e65" stroke-width="1.5"></path><path d="M369.82 710.49L218.58 659.22" stroke="#132e65" stroke-width="1.5"></path><path d="M369.82 710.49L255.42 548.11" stroke="#132e65" stroke-width="1.5"></path><path d="M493.49 352.68L493.49 352.68" stroke="#132e65" stroke-width="1.5"></path><path d="M493.49 352.68L687.39 339.37" stroke="#132e65" stroke-width="1.5"></path><path d="M493.49 352.68L662.09 246.4" stroke="#132e65" stroke-width="1.5"></path><path d="M493.49 352.68L503.23 552.36" stroke="#132e65" stroke-width="1.5"></path><path d="M493.49 352.68L391.89 541.42" stroke="#132e65" stroke-width="1.5"></path><path d="M493.49 352.68L503.39 641.36" stroke="#132e65" stroke-width="1.5"></path><path d="M503.23 552.36L503.23 552.36" stroke="#132e65" stroke-width="1.5"></path><path d="M503.23 552.36L503.39 641.36" stroke="#132e65" stroke-width="1.5"></path><path d="M503.23 552.36L656.96 658.55" stroke="#132e65" stroke-width="1.5"></path><path d="M503.23 552.36L706.92 551.57" stroke="#132e65" stroke-width="1.5"></path><path d="M503.39 641.36L503.39 641.36" stroke="#132e65" stroke-width="1.5"></path><path d="M503.39 641.36L656.96 658.55" stroke="#132e65" stroke-width="1.5"></path><path d="M503.39 641.36L706.92 551.57" stroke="#132e65" stroke-width="1.5"></path><path d="M662.09 246.4L662.09 246.4" stroke="#132e65" stroke-width="1.5"></path><path d="M662.09 246.4L687.39 339.37" stroke="#132e65" stroke-width="1.5"></path><path d="M662.09 246.4L836.75 194.13" stroke="#132e65" stroke-width="1.5"></path><path d="M687.39 339.37L687.39 339.37" stroke="#132e65" stroke-width="1.5"></path><path d="M706.92 551.57L706.92 551.57" stroke="#132e65" stroke-width="1.5"></path><path d="M706.92 551.57L656.96 658.55" stroke="#132e65" stroke-width="1.5"></path><path d="M706.92 551.57L840 520.7" stroke="#132e65" stroke-width="1.5"></path><path d="M706.92 551.57L835.48 657.06" stroke="#132e65" stroke-width="1.5"></path><path d="M706.92 551.57L823.03 404.5" stroke="#132e65" stroke-width="1.5"></path><path d="M706.92 551.57L687.39 339.37" stroke="#132e65" stroke-width="1.5"></path><path d="M656.96 658.55L656.96 658.55" stroke="#132e65" stroke-width="1.5"></path><path d="M656.96 658.55L835.48 657.06" stroke="#132e65" stroke-width="1.5"></path><path d="M836.75 194.13L836.75 194.13" stroke="#132e65" stroke-width="1.5"></path><path d="M836.75 194.13L986.47 202.35" stroke="#132e65" stroke-width="1.5"></path><path d="M823.03 404.5L823.03 404.5" stroke="#132e65" stroke-width="1.5"></path><path d="M823.03 404.5L840 520.7" stroke="#132e65" stroke-width="1.5"></path><path d="M823.03 404.5L949.36 370.52" stroke="#132e65" stroke-width="1.5"></path><path d="M823.03 404.5L687.39 339.37" stroke="#132e65" stroke-width="1.5"></path><path d="M840 520.7L840 520.7" stroke="#132e65" stroke-width="1.5"></path><path d="M840 520.7L950.31 558.61" stroke="#132e65" stroke-width="1.5"></path><path d="M840 520.7L835.48 657.06" stroke="#132e65" stroke-width="1.5"></path><path d="M840 520.7L949.36 370.52" stroke="#132e65" stroke-width="1.5"></path><path d="M835.48 657.06L835.48 657.06" stroke="#132e65" stroke-width="1.5"></path><path d="M835.48 657.06L950.38 684.68" stroke="#132e65" stroke-width="1.5"></path><path d="M835.48 657.06L950.31 558.61" stroke="#132e65" stroke-width="1.5"></path><path d="M1001.05 51.88L1001.05 51.88" stroke="#132e65" stroke-width="1.5"></path><path d="M1001.05 51.88L1111.55 89.44" stroke="#132e65" stroke-width="1.5"></path><path d="M986.47 202.35L986.47 202.35" stroke="#132e65" stroke-width="1.5"></path><path d="M986.47 202.35L1115.31 208.16" stroke="#132e65" stroke-width="1.5"></path><path d="M986.47 202.35L1001.05 51.88" stroke="#132e65" stroke-width="1.5"></path><path d="M986.47 202.35L1111.55 89.44" stroke="#132e65" stroke-width="1.5"></path><path d="M986.47 202.35L949.36 370.52" stroke="#132e65" stroke-width="1.5"></path><path d="M986.47 202.35L1099.84 386.21" stroke="#132e65" stroke-width="1.5"></path><path d="M949.36 370.52L949.36 370.52" stroke="#132e65" stroke-width="1.5"></path><path d="M949.36 370.52L1099.84 386.21" stroke="#132e65" stroke-width="1.5"></path><path d="M950.31 558.61L950.31 558.61" stroke="#132e65" stroke-width="1.5"></path><path d="M950.31 558.61L950.38 684.68" stroke="#132e65" stroke-width="1.5"></path><path d="M950.38 684.68L950.38 684.68" stroke="#132e65" stroke-width="1.5"></path><path d="M950.38 684.68L1112.03 659.75" stroke="#132e65" stroke-width="1.5"></path><path d="M1138.24 -44.92L1138.24 -44.92" stroke="#132e65" stroke-width="1.5"></path><path d="M1138.24 -44.92L1238.64 -70.57" stroke="#132e65" stroke-width="1.5"></path><path d="M1138.24 -44.92L1111.55 89.44" stroke="#132e65" stroke-width="1.5"></path><path d="M1111.55 89.44L1111.55 89.44" stroke="#132e65" stroke-width="1.5"></path><path d="M1111.55 89.44L1115.31 208.16" stroke="#132e65" stroke-width="1.5"></path><path d="M1115.31 208.16L1115.31 208.16" stroke="#132e65" stroke-width="1.5"></path><path d="M1115.31 208.16L1282.55 241.27" stroke="#132e65" stroke-width="1.5"></path><path d="M1099.84 386.21L1099.84 386.21" stroke="#132e65" stroke-width="1.5"></path><path d="M1099.84 386.21L1246.17 355.74" stroke="#132e65" stroke-width="1.5"></path><path d="M1099.84 386.21L1152.79 553.26" stroke="#132e65" stroke-width="1.5"></path><path d="M1099.84 386.21L1115.31 208.16" stroke="#132e65" stroke-width="1.5"></path><path d="M1099.84 386.21L950.31 558.61" stroke="#132e65" stroke-width="1.5"></path><path d="M1152.79 553.26L1152.79 553.26" stroke="#132e65" stroke-width="1.5"></path><path d="M1152.79 553.26L1112.03 659.75" stroke="#132e65" stroke-width="1.5"></path><path d="M1152.79 553.26L1302.92 520.02" stroke="#132e65" stroke-width="1.5"></path><path d="M1112.03 659.75L1112.03 659.75" stroke="#132e65" stroke-width="1.5"></path><path d="M1112.03 659.75L950.31 558.61" stroke="#132e65" stroke-width="1.5"></path><path d="M1238.64 -70.57L1238.64 -70.57" stroke="#132e65" stroke-width="1.5"></path><path d="M1285.65 75.86L1285.65 75.86" stroke="#132e65" stroke-width="1.5"></path><path d="M1285.65 75.86L1238.64 -70.57" stroke="#132e65" stroke-width="1.5"></path><path d="M1285.65 75.86L1282.55 241.27" stroke="#132e65" stroke-width="1.5"></path><path d="M1285.65 75.86L1111.55 89.44" stroke="#132e65" stroke-width="1.5"></path><path d="M1285.65 75.86L1138.24 -44.92" stroke="#132e65" stroke-width="1.5"></path><path d="M1285.65 75.86L1439.75 214.76" stroke="#132e65" stroke-width="1.5"></path><path d="M1285.65 75.86L1115.31 208.16" stroke="#132e65" stroke-width="1.5"></path><path d="M1282.55 241.27L1282.55 241.27" stroke="#132e65" stroke-width="1.5"></path><path d="M1282.55 241.27L1246.17 355.74" stroke="#132e65" stroke-width="1.5"></path><path d="M1282.55 241.27L1439.75 214.76" stroke="#132e65" stroke-width="1.5"></path><path d="M1282.55 241.27L1399.38 374.03" stroke="#132e65" stroke-width="1.5"></path><path d="M1246.17 355.74L1246.17 355.74" stroke="#132e65" stroke-width="1.5"></path><path d="M1246.17 355.74L1399.38 374.03" stroke="#132e65" stroke-width="1.5"></path><path d="M1302.92 520.02L1302.92 520.02" stroke="#132e65" stroke-width="1.5"></path><path d="M1302.92 520.02L1246.17 355.74" stroke="#132e65" stroke-width="1.5"></path><path d="M1302.92 520.02L1399.38 374.03" stroke="#132e65" stroke-width="1.5"></path><path d="M1302.92 520.02L1311.8 708.71" stroke="#132e65" stroke-width="1.5"></path><path d="M1302.92 520.02L1449.99 649.12" stroke="#132e65" stroke-width="1.5"></path><path d="M1302.92 520.02L1112.03 659.75" stroke="#132e65" stroke-width="1.5"></path><path d="M1311.8 708.71L1311.8 708.71" stroke="#132e65" stroke-width="1.5"></path><path d="M1311.8 708.71L1449.99 649.12" stroke="#132e65" stroke-width="1.5"></path><path d="M1446.38 -91.28L1446.38 -91.28" stroke="#132e65" stroke-width="1.5"></path><path d="M1446.38 -91.28L1558.89 -65.98" stroke="#132e65" stroke-width="1.5"></path><path d="M1446.38 -91.28L1238.64 -70.57" stroke="#132e65" stroke-width="1.5"></path><path d="M1446.38 -91.28L1285.65 75.86" stroke="#132e65" stroke-width="1.5"></path><path d="M1446.38 -91.28L1605 110.78" stroke="#132e65" stroke-width="1.5"></path><path d="M1446.38 -91.28L1439.75 214.76" stroke="#132e65" stroke-width="1.5"></path><path d="M1439.75 214.76L1439.75 214.76" stroke="#132e65" stroke-width="1.5"></path><path d="M1439.75 214.76L1562.38 223.57" stroke="#132e65" stroke-width="1.5"></path><path d="M1399.38 374.03L1399.38 374.03" stroke="#132e65" stroke-width="1.5"></path><path d="M1399.38 374.03L1439.75 214.76" stroke="#132e65" stroke-width="1.5"></path><path d="M1449.99 649.12L1449.99 649.12" stroke="#132e65" stroke-width="1.5"></path><path d="M1449.99 649.12L1565.92 678.23" stroke="#132e65" stroke-width="1.5"></path><path d="M1449.99 649.12L1555.88 505.22" stroke="#132e65" stroke-width="1.5"></path><path d="M1449.99 649.12L1399.38 374.03" stroke="#132e65" stroke-width="1.5"></path><path d="M1449.99 649.12L1583.66 391.21" stroke="#132e65" stroke-width="1.5"></path><path d="M1558.89 -65.98L1558.89 -65.98" stroke="#132e65" stroke-width="1.5"></path><path d="M1558.89 -65.98L1605 110.78" stroke="#132e65" stroke-width="1.5"></path><path d="M1558.89 -65.98L1562.38 223.57" stroke="#132e65" stroke-width="1.5"></path><path d="M1605 110.78L1605 110.78" stroke="#132e65" stroke-width="1.5"></path><path d="M1605 110.78L1562.38 223.57" stroke="#132e65" stroke-width="1.5"></path><path d="M1605 110.78L1439.75 214.76" stroke="#132e65" stroke-width="1.5"></path><path d="M1605 110.78L1583.66 391.21" stroke="#132e65" stroke-width="1.5"></path><path d="M1562.38 223.57L1562.38 223.57" stroke="#132e65" stroke-width="1.5"></path><path d="M1562.38 223.57L1583.66 391.21" stroke="#132e65" stroke-width="1.5"></path><path d="M1562.38 223.57L1399.38 374.03" stroke="#132e65" stroke-width="1.5"></path><path d="M1562.38 223.57L1282.55 241.27" stroke="#132e65" stroke-width="1.5"></path><path d="M1583.66 391.21L1583.66 391.21" stroke="#132e65" stroke-width="1.5"></path><path d="M1583.66 391.21L1555.88 505.22" stroke="#132e65" stroke-width="1.5"></path><path d="M1583.66 391.21L1399.38 374.03" stroke="#132e65" stroke-width="1.5"></path><path d="M1583.66 391.21L1439.75 214.76" stroke="#132e65" stroke-width="1.5"></path><path d="M1555.88 505.22L1555.88 505.22" stroke="#132e65" stroke-width="1.5"></path><path d="M1555.88 505.22L1565.92 678.23" stroke="#132e65" stroke-width="1.5"></path><path d="M1555.88 505.22L1399.38 374.03" stroke="#132e65" stroke-width="1.5"></path><path d="M1555.88 505.22L1302.92 520.02" stroke="#132e65" stroke-width="1.5"></path><path d="M1565.92 678.23L1565.92 678.23" stroke="#132e65" stroke-width="1.5"></path><path d="M1565.92 678.23L1311.8 708.71" stroke="#132e65" stroke-width="1.5"></path><path d="M1565.92 678.23L1583.66 391.21" stroke="#132e65" stroke-width="1.5"></path><circle r="5" cx="-92.43" cy="362.18" fill="#132e65"></circle><circle r="5" cx="-42.75" cy="511" fill="#132e65"></circle><circle r="5" cx="-59.27" cy="691.19" fill="#132e65"></circle><circle r="5" cx="51.09" cy="385.74" fill="#132e65"></circle><circle r="5" cx="61.87" cy="659.84" fill="#132e65"></circle><circle r="5" cx="234.49" cy="356.33" fill="#132e65"></circle><circle r="5" cx="255.42" cy="548.11" fill="#132e65"></circle><circle r="5" cx="218.58" cy="659.22" fill="#132e65"></circle><circle r="5" cx="391.89" cy="541.42" fill="#132e65"></circle><circle r="5" cx="369.82" cy="710.49" fill="#132e65"></circle><circle r="5" cx="493.49" cy="352.68" fill="#132e65"></circle><circle r="5" cx="503.23" cy="552.36" fill="#132e65"></circle><circle r="5" cx="503.39" cy="641.36" fill="#132e65"></circle><circle r="5" cx="662.09" cy="246.4" fill="#132e65"></circle><circle r="5" cx="687.39" cy="339.37" fill="#132e65"></circle><circle r="5" cx="706.92" cy="551.57" fill="#132e65"></circle><circle r="5" cx="656.96" cy="658.55" fill="#132e65"></circle><circle r="5" cx="836.75" cy="194.13" fill="#132e65"></circle><circle r="5" cx="823.03" cy="404.5" fill="#132e65"></circle><circle r="5" cx="840" cy="520.7" fill="#132e65"></circle><circle r="5" cx="835.48" cy="657.06" fill="#132e65"></circle><circle r="5" cx="1001.05" cy="51.88" fill="#132e65"></circle><circle r="5" cx="986.47" cy="202.35" fill="#132e65"></circle><circle r="5" cx="949.36" cy="370.52" fill="#132e65"></circle><circle r="5" cx="950.31" cy="558.61" fill="#132e65"></circle><circle r="5" cx="950.38" cy="684.68" fill="#132e65"></circle><circle r="5" cx="1138.24" cy="-44.92" fill="#132e65"></circle><circle r="5" cx="1111.55" cy="89.44" fill="#132e65"></circle><circle r="5" cx="1115.31" cy="208.16" fill="#132e65"></circle><circle r="5" cx="1099.84" cy="386.21" fill="#132e65"></circle><circle r="5" cx="1152.79" cy="553.26" fill="#132e65"></circle><circle r="5" cx="1112.03" cy="659.75" fill="#132e65"></circle><circle r="5" cx="1238.64" cy="-70.57" fill="#132e65"></circle><circle r="5" cx="1285.65" cy="75.86" fill="#132e65"></circle><circle r="5" cx="1282.55" cy="241.27" fill="#132e65"></circle><circle r="5" cx="1246.17" cy="355.74" fill="#132e65"></circle><circle r="5" cx="1302.92" cy="520.02" fill="#132e65"></circle><circle r="5" cx="1311.8" cy="708.71" fill="#132e65"></circle><circle r="5" cx="1446.38" cy="-91.28" fill="#132e65"></circle><circle r="5" cx="1439.75" cy="214.76" fill="#132e65"></circle><circle r="5" cx="1399.38" cy="374.03" fill="#132e65"></circle><circle r="5" cx="1449.99" cy="649.12" fill="#132e65"></circle><circle r="5" cx="1558.89" cy="-65.98" fill="#132e65"></circle><circle r="5" cx="1605" cy="110.78" fill="#132e65"></circle><circle r="5" cx="1562.38" cy="223.57" fill="#132e65"></circle><circle r="5" cx="1583.66" cy="391.21" fill="#132e65"></circle><circle r="5" cx="1555.88" cy="505.22" fill="#132e65"></circle><circle r="5" cx="1565.92" cy="678.23" fill="#132e65"></circle><path d="M-46.8 640.34L-46.8 640.34" stroke="hsl(228.5, 77.2%, 51.5%)" stroke-width="1.5"></path><path d="M-46.8 640.34L48.91 654.28" stroke="hsl(228.5, 77.2%, 51.5%)" stroke-width="1.5"></path><path d="M-46.8 640.34L-57.69 540.41" stroke="hsl(228.5, 77.2%, 51.5%)" stroke-width="1.5"></path><path d="M-46.8 640.34L81.33 515.65" stroke="hsl(228.5, 77.2%, 51.5%)" stroke-width="1.5"></path><path d="M-46.8 640.34L225.65 534.31" stroke="hsl(228.5, 77.2%, 51.5%)" stroke-width="1.5"></path><path d="M81.33 515.65L81.33 515.65" stroke="hsl(228.5, 77.2%, 51.5%)" stroke-width="1.5"></path><path d="M81.33 515.65L-57.69 540.41" stroke="hsl(228.5, 77.2%, 51.5%)" stroke-width="1.5"></path><path d="M81.33 515.65L48.91 654.28" stroke="hsl(228.5, 77.2%, 51.5%)" stroke-width="1.5"></path><path d="M81.33 515.65L225.65 534.31" stroke="hsl(228.5, 77.2%, 51.5%)" stroke-width="1.5"></path><path d="M370.17 703.22L370.17 703.22" stroke="hsl(228.5, 77.2%, 51.5%)" stroke-width="1.5"></path><path d="M370.17 703.22L261.92 696.97" stroke="hsl(228.5, 77.2%, 51.5%)" stroke-width="1.5"></path><path d="M370.17 703.22L544.3 649.37" stroke="hsl(228.5, 77.2%, 51.5%)" stroke-width="1.5"></path><path d="M638.54 394.57L638.54 394.57" stroke="hsl(228.5, 77.2%, 51.5%)" stroke-width="1.5"></path><path d="M638.54 394.57L561.03 411.22" stroke="hsl(228.5, 77.2%, 51.5%)" stroke-width="1.5"></path><path d="M638.54 394.57L699.53 525.95" stroke="hsl(228.5, 77.2%, 51.5%)" stroke-width="1.5"></path><path d="M638.54 394.57L809.75 383.56" stroke="hsl(228.5, 77.2%, 51.5%)" stroke-width="1.5"></path><path d="M638.54 394.57L788.45 505.05" stroke="hsl(228.5, 77.2%, 51.5%)" stroke-width="1.5"></path><path d="M638.54 394.57L496.07 535.18" stroke="hsl(228.5, 77.2%, 51.5%)" stroke-width="1.5"></path><path d="M638.54 394.57L544.3 649.37" stroke="hsl(228.5, 77.2%, 51.5%)" stroke-width="1.5"></path><path d="M809.75 383.56L809.75 383.56" stroke="hsl(228.5, 77.2%, 51.5%)" stroke-width="1.5"></path><path d="M809.75 383.56L788.45 505.05" stroke="hsl(228.5, 77.2%, 51.5%)" stroke-width="1.5"></path><path d="M993.05 379.78L993.05 379.78" stroke="hsl(228.5, 77.2%, 51.5%)" stroke-width="1.5"></path><path d="M993.05 379.78L1148.42 376.84" stroke="hsl(228.5, 77.2%, 51.5%)" stroke-width="1.5"></path><path d="M993.05 379.78L1010.17 549.36" stroke="hsl(228.5, 77.2%, 51.5%)" stroke-width="1.5"></path><path d="M993.05 379.78L809.75 383.56" stroke="hsl(228.5, 77.2%, 51.5%)" stroke-width="1.5"></path><path d="M1148.42 376.84L1148.42 376.84" stroke="hsl(228.5, 77.2%, 51.5%)" stroke-width="1.5"></path><path d="M1148.42 376.84L1146.57 492.24" stroke="hsl(228.5, 77.2%, 51.5%)" stroke-width="1.5"></path><path d="M1148.42 376.84L1297.34 399.18" stroke="hsl(228.5, 77.2%, 51.5%)" stroke-width="1.5"></path><path d="M1408.39 61.96L1408.39 61.96" stroke="hsl(228.5, 77.2%, 51.5%)" stroke-width="1.5"></path><path d="M1408.39 61.96L1398.78 -66.32" stroke="hsl(228.5, 77.2%, 51.5%)" stroke-width="1.5"></path><path d="M1408.39 61.96L1408.17 247.98" stroke="hsl(228.5, 77.2%, 51.5%)" stroke-width="1.5"></path><path d="M1408.39 61.96L1597.42 58.27" stroke="hsl(228.5, 77.2%, 51.5%)" stroke-width="1.5"></path><path d="M1408.39 61.96L1543.61 203.03" stroke="hsl(228.5, 77.2%, 51.5%)" stroke-width="1.5"></path><path d="M1408.39 61.96L1258.31 202.85" stroke="hsl(228.5, 77.2%, 51.5%)" stroke-width="1.5"></path><path d="M1408.17 247.98L1408.17 247.98" stroke="hsl(228.5, 77.2%, 51.5%)" stroke-width="1.5"></path><path d="M1408.17 247.98L1543.61 203.03" stroke="hsl(228.5, 77.2%, 51.5%)" stroke-width="1.5"></path><path d="M1408.17 247.98L1258.31 202.85" stroke="hsl(228.5, 77.2%, 51.5%)" stroke-width="1.5"></path><path d="M1408.17 247.98L1399.14 409.27" stroke="hsl(228.5, 77.2%, 51.5%)" stroke-width="1.5"></path><path d="M1408.17 247.98L1297.34 399.18" stroke="hsl(228.5, 77.2%, 51.5%)" stroke-width="1.5"></path><path d="M1408.17 247.98L1559.31 406.69" stroke="hsl(228.5, 77.2%, 51.5%)" stroke-width="1.5"></path><path d="M1402.33 519.83L1402.33 519.83" stroke="hsl(228.5, 77.2%, 51.5%)" stroke-width="1.5"></path><path d="M1402.33 519.83L1311.24 496.33" stroke="hsl(228.5, 77.2%, 51.5%)" stroke-width="1.5"></path><path d="M1402.33 519.83L1399.14 409.27" stroke="hsl(228.5, 77.2%, 51.5%)" stroke-width="1.5"></path><path d="M1453.33 681.04L1453.33 681.04" stroke="hsl(228.5, 77.2%, 51.5%)" stroke-width="1.5"></path><path d="M1453.33 681.04L1556.53 680.79" stroke="hsl(228.5, 77.2%, 51.5%)" stroke-width="1.5"></path><path d="M1453.33 681.04L1402.33 519.83" stroke="hsl(228.5, 77.2%, 51.5%)" stroke-width="1.5"></path><path d="M1453.33 681.04L1283.17 699.66" stroke="hsl(228.5, 77.2%, 51.5%)" stroke-width="1.5"></path><path d="M1597.42 58.27L1597.42 58.27" stroke="hsl(228.5, 77.2%, 51.5%)" stroke-width="1.5"></path><path d="M1597.42 58.27L1543.61 203.03" stroke="hsl(228.5, 77.2%, 51.5%)" stroke-width="1.5"></path><path d="M1597.42 58.27L1553.48 -102.47" stroke="hsl(228.5, 77.2%, 51.5%)" stroke-width="1.5"></path><path d="M1597.42 58.27L1398.78 -66.32" stroke="hsl(228.5, 77.2%, 51.5%)" stroke-width="1.5"></path><path d="M1597.42 58.27L1408.17 247.98" stroke="hsl(228.5, 77.2%, 51.5%)" stroke-width="1.5"></path><path d="M1597.42 58.27L1559.31 406.69" stroke="hsl(228.5, 77.2%, 51.5%)" stroke-width="1.5"></path><path d="M1543.61 203.03L1543.61 203.03" stroke="hsl(228.5, 77.2%, 51.5%)" stroke-width="1.5"></path><path d="M1556.53 680.79L1556.53 680.79" stroke="hsl(228.5, 77.2%, 51.5%)" stroke-width="1.5"></path><path d="M1556.53 680.79L1577.39 508.01" stroke="hsl(228.5, 77.2%, 51.5%)" stroke-width="1.5"></path><path d="M-57.69 540.41L-57.69 540.41" stroke="hsl(228.5, 77.2%, 51.5%)" stroke-width="1.5"></path><path d="M48.91 654.28L48.91 654.28" stroke="hsl(228.5, 77.2%, 51.5%)" stroke-width="1.5"></path><path d="M225.65 534.31L225.65 534.31" stroke="hsl(228.5, 77.2%, 51.5%)" stroke-width="1.5"></path><path d="M225.65 534.31L343.06 503.26" stroke="hsl(228.5, 77.2%, 51.5%)" stroke-width="1.5"></path><path d="M225.65 534.31L261.92 696.97" stroke="hsl(228.5, 77.2%, 51.5%)" stroke-width="1.5"></path><path d="M225.65 534.31L48.91 654.28" stroke="hsl(228.5, 77.2%, 51.5%)" stroke-width="1.5"></path><path d="M225.65 534.31L370.17 703.22" stroke="hsl(228.5, 77.2%, 51.5%)" stroke-width="1.5"></path><path d="M225.65 534.31L496.07 535.18" stroke="hsl(228.5, 77.2%, 51.5%)" stroke-width="1.5"></path><path d="M261.92 696.97L261.92 696.97" stroke="hsl(228.5, 77.2%, 51.5%)" stroke-width="1.5"></path><path d="M261.92 696.97L343.06 503.26" stroke="hsl(228.5, 77.2%, 51.5%)" stroke-width="1.5"></path><path d="M261.92 696.97L48.91 654.28" stroke="hsl(228.5, 77.2%, 51.5%)" stroke-width="1.5"></path><path d="M343.06 503.26L343.06 503.26" stroke="hsl(228.5, 77.2%, 51.5%)" stroke-width="1.5"></path><path d="M561.03 411.22L561.03 411.22" stroke="hsl(228.5, 77.2%, 51.5%)" stroke-width="1.5"></path><path d="M561.03 411.22L496.07 535.18" stroke="hsl(228.5, 77.2%, 51.5%)" stroke-width="1.5"></path><path d="M496.07 535.18L496.07 535.18" stroke="hsl(228.5, 77.2%, 51.5%)" stroke-width="1.5"></path><path d="M496.07 535.18L544.3 649.37" stroke="hsl(228.5, 77.2%, 51.5%)" stroke-width="1.5"></path><path d="M496.07 535.18L343.06 503.26" stroke="hsl(228.5, 77.2%, 51.5%)" stroke-width="1.5"></path><path d="M544.3 649.37L544.3 649.37" stroke="hsl(228.5, 77.2%, 51.5%)" stroke-width="1.5"></path><path d="M699.53 525.95L699.53 525.95" stroke="hsl(228.5, 77.2%, 51.5%)" stroke-width="1.5"></path><path d="M699.53 525.95L788.45 505.05" stroke="hsl(228.5, 77.2%, 51.5%)" stroke-width="1.5"></path><path d="M699.53 525.95L708.82 698.23" stroke="hsl(228.5, 77.2%, 51.5%)" stroke-width="1.5"></path><path d="M699.53 525.95L561.03 411.22" stroke="hsl(228.5, 77.2%, 51.5%)" stroke-width="1.5"></path><path d="M699.53 525.95L809.75 383.56" stroke="hsl(228.5, 77.2%, 51.5%)" stroke-width="1.5"></path><path d="M708.82 698.23L708.82 698.23" stroke="hsl(228.5, 77.2%, 51.5%)" stroke-width="1.5"></path><path d="M708.82 698.23L807.69 708.97" stroke="hsl(228.5, 77.2%, 51.5%)" stroke-width="1.5"></path><path d="M708.82 698.23L544.3 649.37" stroke="hsl(228.5, 77.2%, 51.5%)" stroke-width="1.5"></path><path d="M708.82 698.23L788.45 505.05" stroke="hsl(228.5, 77.2%, 51.5%)" stroke-width="1.5"></path><path d="M708.82 698.23L970.05 677.17" stroke="hsl(228.5, 77.2%, 51.5%)" stroke-width="1.5"></path><path d="M708.82 698.23L496.07 535.18" stroke="hsl(228.5, 77.2%, 51.5%)" stroke-width="1.5"></path><path d="M788.45 505.05L788.45 505.05" stroke="hsl(228.5, 77.2%, 51.5%)" stroke-width="1.5"></path><path d="M788.45 505.05L807.69 708.97" stroke="hsl(228.5, 77.2%, 51.5%)" stroke-width="1.5"></path><path d="M807.69 708.97L807.69 708.97" stroke="hsl(228.5, 77.2%, 51.5%)" stroke-width="1.5"></path><path d="M807.69 708.97L970.05 677.17" stroke="hsl(228.5, 77.2%, 51.5%)" stroke-width="1.5"></path><path d="M1010.17 549.36L1010.17 549.36" stroke="hsl(228.5, 77.2%, 51.5%)" stroke-width="1.5"></path><path d="M1010.17 549.36L970.05 677.17" stroke="hsl(228.5, 77.2%, 51.5%)" stroke-width="1.5"></path><path d="M1010.17 549.36L1146.57 492.24" stroke="hsl(228.5, 77.2%, 51.5%)" stroke-width="1.5"></path><path d="M1010.17 549.36L1125.89 679.14" stroke="hsl(228.5, 77.2%, 51.5%)" stroke-width="1.5"></path><path d="M1010.17 549.36L1148.42 376.84" stroke="hsl(228.5, 77.2%, 51.5%)" stroke-width="1.5"></path><path d="M1010.17 549.36L788.45 505.05" stroke="hsl(228.5, 77.2%, 51.5%)" stroke-width="1.5"></path><path d="M970.05 677.17L970.05 677.17" stroke="hsl(228.5, 77.2%, 51.5%)" stroke-width="1.5"></path><path d="M970.05 677.17L1125.89 679.14" stroke="hsl(228.5, 77.2%, 51.5%)" stroke-width="1.5"></path><path d="M970.05 677.17L788.45 505.05" stroke="hsl(228.5, 77.2%, 51.5%)" stroke-width="1.5"></path><path d="M970.05 677.17L1146.57 492.24" stroke="hsl(228.5, 77.2%, 51.5%)" stroke-width="1.5"></path><path d="M1158.33 69.72L1158.33 69.72" stroke="hsl(228.5, 77.2%, 51.5%)" stroke-width="1.5"></path><path d="M1158.33 69.72L1112.04 209.47" stroke="hsl(228.5, 77.2%, 51.5%)" stroke-width="1.5"></path><path d="M1158.33 69.72L1258.31 202.85" stroke="hsl(228.5, 77.2%, 51.5%)" stroke-width="1.5"></path><path d="M1112.04 209.47L1112.04 209.47" stroke="hsl(228.5, 77.2%, 51.5%)" stroke-width="1.5"></path><path d="M1112.04 209.47L1258.31 202.85" stroke="hsl(228.5, 77.2%, 51.5%)" stroke-width="1.5"></path><path d="M1146.57 492.24L1146.57 492.24" stroke="hsl(228.5, 77.2%, 51.5%)" stroke-width="1.5"></path><path d="M1146.57 492.24L1311.24 496.33" stroke="hsl(228.5, 77.2%, 51.5%)" stroke-width="1.5"></path><path d="M1146.57 492.24L1297.34 399.18" stroke="hsl(228.5, 77.2%, 51.5%)" stroke-width="1.5"></path><path d="M1146.57 492.24L1125.89 679.14" stroke="hsl(228.5, 77.2%, 51.5%)" stroke-width="1.5"></path><path d="M1146.57 492.24L993.05 379.78" stroke="hsl(228.5, 77.2%, 51.5%)" stroke-width="1.5"></path><path d="M1125.89 679.14L1125.89 679.14" stroke="hsl(228.5, 77.2%, 51.5%)" stroke-width="1.5"></path><path d="M1125.89 679.14L1283.17 699.66" stroke="hsl(228.5, 77.2%, 51.5%)" stroke-width="1.5"></path><path d="M1125.89 679.14L1311.24 496.33" stroke="hsl(228.5, 77.2%, 51.5%)" stroke-width="1.5"></path><path d="M1258.31 202.85L1258.31 202.85" stroke="hsl(228.5, 77.2%, 51.5%)" stroke-width="1.5"></path><path d="M1258.31 202.85L1297.34 399.18" stroke="hsl(228.5, 77.2%, 51.5%)" stroke-width="1.5"></path><path d="M1297.34 399.18L1297.34 399.18" stroke="hsl(228.5, 77.2%, 51.5%)" stroke-width="1.5"></path><path d="M1297.34 399.18L1311.24 496.33" stroke="hsl(228.5, 77.2%, 51.5%)" stroke-width="1.5"></path><path d="M1297.34 399.18L1399.14 409.27" stroke="hsl(228.5, 77.2%, 51.5%)" stroke-width="1.5"></path><path d="M1311.24 496.33L1311.24 496.33" stroke="hsl(228.5, 77.2%, 51.5%)" stroke-width="1.5"></path><path d="M1311.24 496.33L1399.14 409.27" stroke="hsl(228.5, 77.2%, 51.5%)" stroke-width="1.5"></path><path d="M1283.17 699.66L1283.17 699.66" stroke="hsl(228.5, 77.2%, 51.5%)" stroke-width="1.5"></path><path d="M1283.17 699.66L1311.24 496.33" stroke="hsl(228.5, 77.2%, 51.5%)" stroke-width="1.5"></path><path d="M1283.17 699.66L1402.33 519.83" stroke="hsl(228.5, 77.2%, 51.5%)" stroke-width="1.5"></path><path d="M1398.78 -66.32L1398.78 -66.32" stroke="hsl(228.5, 77.2%, 51.5%)" stroke-width="1.5"></path><path d="M1398.78 -66.32L1553.48 -102.47" stroke="hsl(228.5, 77.2%, 51.5%)" stroke-width="1.5"></path><path d="M1399.14 409.27L1399.14 409.27" stroke="hsl(228.5, 77.2%, 51.5%)" stroke-width="1.5"></path><path d="M1399.14 409.27L1559.31 406.69" stroke="hsl(228.5, 77.2%, 51.5%)" stroke-width="1.5"></path><path d="M1399.14 409.27L1577.39 508.01" stroke="hsl(228.5, 77.2%, 51.5%)" stroke-width="1.5"></path><path d="M1553.48 -102.47L1553.48 -102.47" stroke="hsl(228.5, 77.2%, 51.5%)" stroke-width="1.5"></path><path d="M1553.48 -102.47L1408.39 61.96" stroke="hsl(228.5, 77.2%, 51.5%)" stroke-width="1.5"></path><path d="M1553.48 -102.47L1543.61 203.03" stroke="hsl(228.5, 77.2%, 51.5%)" stroke-width="1.5"></path><path d="M1553.48 -102.47L1408.17 247.98" stroke="hsl(228.5, 77.2%, 51.5%)" stroke-width="1.5"></path><path d="M1559.31 406.69L1559.31 406.69" stroke="hsl(228.5, 77.2%, 51.5%)" stroke-width="1.5"></path><path d="M1559.31 406.69L1577.39 508.01" stroke="hsl(228.5, 77.2%, 51.5%)" stroke-width="1.5"></path><path d="M1559.31 406.69L1402.33 519.83" stroke="hsl(228.5, 77.2%, 51.5%)" stroke-width="1.5"></path><path d="M1577.39 508.01L1577.39 508.01" stroke="hsl(228.5, 77.2%, 51.5%)" stroke-width="1.5"></path><path d="M1577.39 508.01L1402.33 519.83" stroke="hsl(228.5, 77.2%, 51.5%)" stroke-width="1.5"></path><path d="M1577.39 508.01L1453.33 681.04" stroke="hsl(228.5, 77.2%, 51.5%)" stroke-width="1.5"></path><path d="M1577.39 508.01L1311.24 496.33" stroke="hsl(228.5, 77.2%, 51.5%)" stroke-width="1.5"></path><circle r="25" cx="-46.8" cy="640.34" fill="url(#SvgjsRadialGradient1003)"></circle><circle r="25" cx="81.33" cy="515.65" fill="url(#SvgjsRadialGradient1003)"></circle><circle r="25" cx="370.17" cy="703.22" fill="url(#SvgjsRadialGradient1003)"></circle><circle r="25" cx="638.54" cy="394.57" fill="url(#SvgjsRadialGradient1003)"></circle><circle r="25" cx="809.75" cy="383.56" fill="url(#SvgjsRadialGradient1003)"></circle><circle r="25" cx="993.05" cy="379.78" fill="url(#SvgjsRadialGradient1003)"></circle><circle r="25" cx="1148.42" cy="376.84" fill="url(#SvgjsRadialGradient1003)"></circle><circle r="25" cx="1408.39" cy="61.96" fill="url(#SvgjsRadialGradient1003)"></circle><circle r="25" cx="1408.17" cy="247.98" fill="url(#SvgjsRadialGradient1003)"></circle><circle r="25" cx="1402.33" cy="519.83" fill="url(#SvgjsRadialGradient1003)"></circle><circle r="25" cx="1453.33" cy="681.04" fill="url(#SvgjsRadialGradient1003)"></circle><circle r="25" cx="1597.42" cy="58.27" fill="url(#SvgjsRadialGradient1003)"></circle><circle r="25" cx="1543.61" cy="203.03" fill="url(#SvgjsRadialGradient1003)"></circle><circle r="25" cx="1556.53" cy="680.79" fill="url(#SvgjsRadialGradient1003)"></circle><circle r="5" cx="-57.69" cy="540.41" fill="#8b9ad9"></circle><circle r="5" cx="48.91" cy="654.28" fill="#8b9ad9"></circle><circle r="5" cx="225.65" cy="534.31" fill="#8b9ad9"></circle><circle r="5" cx="261.92" cy="696.97" fill="#8b9ad9"></circle><circle r="5" cx="343.06" cy="503.26" fill="#8b9ad9"></circle><circle r="5" cx="561.03" cy="411.22" fill="#8b9ad9"></circle><circle r="5" cx="496.07" cy="535.18" fill="#8b9ad9"></circle><circle r="5" cx="544.3" cy="649.37" fill="#8b9ad9"></circle><circle r="5" cx="699.53" cy="525.95" fill="#8b9ad9"></circle><circle r="5" cx="708.82" cy="698.23" fill="#8b9ad9"></circle><circle r="5" cx="788.45" cy="505.05" fill="#8b9ad9"></circle><circle r="5" cx="807.69" cy="708.97" fill="#8b9ad9"></circle><circle r="5" cx="1010.17" cy="549.36" fill="#8b9ad9"></circle><circle r="5" cx="970.05" cy="677.17" fill="#8b9ad9"></circle><circle r="5" cx="1158.33" cy="69.72" fill="#8b9ad9"></circle><circle r="5" cx="1112.04" cy="209.47" fill="#8b9ad9"></circle><circle r="5" cx="1146.57" cy="492.24" fill="#8b9ad9"></circle><circle r="5" cx="1125.89" cy="679.14" fill="#8b9ad9"></circle><circle r="5" cx="1258.31" cy="202.85" fill="#8b9ad9"></circle><circle r="5" cx="1297.34" cy="399.18" fill="#8b9ad9"></circle><circle r="5" cx="1311.24" cy="496.33" fill="#8b9ad9"></circle><circle r="5" cx="1283.17" cy="699.66" fill="#8b9ad9"></circle><circle r="5" cx="1398.78" cy="-66.32" fill="#8b9ad9"></circle><circle r="5" cx="1399.14" cy="409.27" fill="#8b9ad9"></circle><circle r="5" cx="1553.48" cy="-102.47" fill="#8b9ad9"></circle><circle r="5" cx="1559.31" cy="406.69" fill="#8b9ad9"></circle><circle r="5" cx="1577.39" cy="508.01" fill="#8b9ad9"></circle></g><defs><mask id="SvgjsMask1002"><rect width="1440" height="560" fill="#ffffff"></rect></mask><radialGradient id="SvgjsRadialGradient1003"><stop stop-color="#ffffff" offset="0.1"></stop><stop stop-color="#1735b3" offset="0.2"></stop><stop stop-color="rgba(23, 53, 179, 0)" offset="1"></stop></radialGradient></defs></svg>