<svg xmlns="http://www.w3.org/2000/svg" version="1.1" xmlns:xlink="http://www.w3.org/1999/xlink" xmlns:svgjs="http://svgjs.com/svgjs" width="800" height="400" preserveAspectRatio="none" viewBox="0 0 800 400"><g mask="url(&quot;#SvgjsMask1148&quot;)" fill="none"><path d="M850.4489081929951 332.7926546319468L821.1563199018234 247.72080108144655 736.0844663513232 277.01338937261824 765.3770546424948 362.0852429231185z" fill="rgba(244, 162, 97, 1)" class="triangle-float3"></path><path d="M145.407,500.678C186.701,500.374,235.666,505.327,256.808,469.855C278.195,433.972,254.635,390.643,231.864,355.622C211.686,324.588,182.396,299.97,145.407,298.521C105.826,296.971,68.196,315.304,46.363,348.355C21.925,385.349,6.958,434.348,31.127,471.518C54.097,506.844,103.271,500.988,145.407,500.678" fill="rgba(244, 162, 97, 1)" class="triangle-float3"></path><path d="M53.208,281.12C71.745,280.84,89.87,274.373,100.11,258.919C111.54,241.669,116.825,218.999,106.09,201.308C95.632,184.074,73.355,180.927,53.208,181.627C34.541,182.276,16.26,188.955,6.331,204.775C-4.239,221.617,-6.617,243.428,3.787,260.373C13.807,276.691,34.061,281.409,53.208,281.12" fill="rgba(244, 162, 97, 1)" class="triangle-float2"></path><path d="M701.7687620567367 191.7815023740592L642.9482261725191 215.54654148896103 666.7132652874209 274.36707737317863 725.5338011716385 250.60203825827682z" fill="rgba(244, 162, 97, 1)" class="triangle-float3"></path><path d="M120.51699646319777 126.99315297599347L193.96098828283095 162.8141812207931 229.78201652763062 89.37018940115993 156.33802470799742 53.549161156360285z" fill="rgba(244, 162, 97, 1)" class="triangle-float2"></path><path d="M311.322,105.004C326.473,104.937,340.952,98.51,349.103,85.739C357.932,71.906,360.669,54.379,352.837,39.958C344.679,24.936,328.401,15.457,311.322,16.171C295.28,16.842,283.138,29.119,275.413,43.194C268.029,56.647,265.245,72.809,272.954,86.078C280.632,99.294,296.038,105.072,311.322,105.004" fill="rgba(244, 162, 97, 1)" class="triangle-float1"></path></g><defs><mask id="SvgjsMask1148"><rect width="800" height="400" fill="#ffffff"></rect></mask><style>
            @keyframes float1 {
                0%{transform: translate(0, 0)}
                50%{transform: translate(-10px, 0)}
                100%{transform: translate(0, 0)}
            }

            .triangle-float1 {
                animation: float1 5s infinite;
            }

            @keyframes float2 {
                0%{transform: translate(0, 0)}
                50%{transform: translate(-5px, -5px)}
                100%{transform: translate(0, 0)}
            }

            .triangle-float2 {
                animation: float2 4s infinite;
            }

            @keyframes float3 {
                0%{transform: translate(0, 0)}
                50%{transform: translate(0, -10px)}
                100%{transform: translate(0, 0)}
            }

            .triangle-float3 {
                animation: float3 6s infinite;
            }
        </style></defs></svg>