<svg xmlns="http://www.w3.org/2000/svg" version="1.1" xmlns:xlink="http://www.w3.org/1999/xlink" xmlns:svgjs="http://svgjs.com/svgjs" width="1440" height="560" preserveAspectRatio="none" viewBox="0 0 1440 560"><g mask="url(&quot;#SvgjsMask1002&quot;)" fill="none"><circle r="5.29" cx="258.61" cy="467.31" filter="url(#SvgjsFilter1003)" fill="rgba(51, 121, 194, 0.58)"></circle><circle r="5.12" cx="104.06" cy="16.580000000000002" filter="url(#SvgjsFilter1003)" fill="rgba(51, 121, 194, 0.58)"></circle><circle r="6.89" cx="204.63" cy="77.33" filter="url(#SvgjsFilter1003)" fill="rgba(51, 121, 194, 0.58)"></circle><circle r="7.305" cx="265.21500000000003" cy="323.005" filter="url(#SvgjsFilter1003)" fill="rgba(51, 121, 194, 0.58)"></circle><circle r="8.235" cx="776.145" cy="532.955" filter="url(#SvgjsFilter1003)" fill="rgba(51, 121, 194, 0.58)"></circle><circle r="7.05" cx="753.12" cy="38.12" filter="url(#SvgjsFilter1003)" fill="rgba(51, 121, 194, 0.58)"></circle><circle r="5.7" cx="1214.54" cy="102.83" filter="url(#SvgjsFilter1003)" fill="rgba(51, 121, 194, 0.58)"></circle><circle r="7.375" cx="1026.185" cy="155.065" filter="url(#SvgjsFilter1003)" fill="rgba(51, 121, 194, 0.58)"></circle><circle r="6.6" cx="922.95" cy="338.26000000000005" filter="url(#SvgjsFilter1003)" fill="rgba(51, 121, 194, 0.58)"></circle><circle r="7.445" cx="1241.0249999999999" cy="473.745" filter="url(#SvgjsFilter1003)" fill="rgba(51, 121, 194, 0.58)"></circle><circle r="4.815" cx="1248.7050000000002" cy="154.98499999999999" filter="url(#SvgjsFilter1003)" fill="rgba(51, 121, 194, 0.58)"></circle><circle r="5.94" cx="169.76" cy="95.38" filter="url(#SvgjsFilter1003)" fill="rgba(51, 121, 194, 0.58)"></circle><circle r="5.41" cx="743.37" cy="339.35" filter="url(#SvgjsFilter1003)" fill="rgba(51, 121, 194, 0.58)"></circle><circle r="5.445" cx="314.985" cy="490.545" filter="url(#SvgjsFilter1003)" fill="rgba(51, 121, 194, 0.58)"></circle><circle r="8.79" cx="1191.17" cy="190.17999999999998" filter="url(#SvgjsFilter1003)" fill="rgba(51, 121, 194, 0.58)"></circle><circle r="7.79" cx="652.91" cy="197.85" filter="url(#SvgjsFilter1003)" fill="rgba(51, 121, 194, 0.58)"></circle><circle r="5.59" cx="1170.78" cy="434.10999999999996" filter="url(#SvgjsFilter1003)" fill="rgba(51, 121, 194, 0.58)"></circle><circle r="8.13" cx="1206.8100000000002" cy="386.01" filter="url(#SvgjsFilter1003)" fill="rgba(51, 121, 194, 0.58)"></circle><circle r="8.705" cx="312.375" cy="231.435" filter="url(#SvgjsFilter1003)" fill="rgba(51, 121, 194, 0.58)"></circle><circle r="7.365" cx="1187.435" cy="466.225" filter="url(#SvgjsFilter1003)" fill="rgba(51, 121, 194, 0.58)"></circle><path d="M462.8 317.1L477.2 299.9 482.4 312.4C482.8 313.8 484.6 314.7 486.6 314.4 488.1 313.3 489 311.5 487.9 310.1L482 294.2 492.7 280.3 504.9 313.4C506 314.9 507.8 315.8 509.1 315.4 511.2 314.4 512.2 312.6 511.1 311.1L497.5 274.6 514.4 254 521.9 283.7 538.4 257.8 548 282.7 523.7 313.2C523.1 313.1 523 313.7 522.9 314.3 522.7 315.6 523.1 316.9 524.3 317.8 525.5 318.6 527.5 318.3 528.9 317.2L550.8 289.6 556.6 306.1 546.1 319.3C545.4 319.8 545.3 320.5 545.2 321.1 545.1 321.7 545.5 323.1 546.6 323.9 547.8 324.8 549.8 324.4 550.6 323.3L559.4 313 567.8 333.8C568.1 335.8 570 336.1 572 335.7 573.4 335.3 574.3 333.5 573.3 331.4L565.6 310.7 578.9 312.9C580.8 313.2 582.3 311.5 582.5 310.2 582.8 308.3 581.8 306.8 579.9 306.5L562.8 303.8 557 287.3 591.1 292.8C593 293.1 594.5 292 594.8 290.1 595 288.8 594 286.8 592.1 286.5L554.2 280.4 544.6 255.6 573.8 263.4 559.9 236.6 586.4 240.8 600.2 276.7C601.1 278.8 603 279.1 604.4 278.7 605.8 278.2 606.7 276.5 606.4 274.5L593.4 241.9 610.5 244.6 617 260.6C617.3 262.6 619.1 263.5 621.2 262.6 622.6 262.1 623.5 260.3 622.6 258.2L618 245.9 640.2 249.4C642.1 249.7 643.5 248.6 643.8 246.7S643.1 243.4 641.2 243.1L619 239.5 627.2 229.2C628.7 227.5 628.4 225.5 627.2 224.6 625.6 223.1 623.6 223.4 622.6 225.2L611.5 238.3 594.4 235.6 616.8 208.7C617.8 206.9 617.4 204.9 616.3 204.1 614.6 202.5 612.6 202.9 611.6 204.7L587.4 234.5 560.9 230.3 582.4 209.1 552.2 207.5 569.1 186.9 607 192.9C608.9 193.2 610.5 191.5 610.7 190.2 611 188.4 609.9 186.9 608 186.6L573.3 181.1 584.5 167.3 601.6 170C603.5 170.3 605 169.2 605.3 167.4 605.5 166.1 604.5 164 602.6 163.7L589.3 161.6 603.1 144.3C604.7 142.6 604.3 140.6 602.5 139.7 601.4 138.9 599.5 138.6 598.5 140.4L584.1 157.5 579 145C578.6 143.7 576.8 142.7 575.4 143.2 574 143.6 573.2 144.8 573.1 145.4 573 146 572.9 146.7 573.4 147.4L579.3 163.2 568.7 177.1 556.5 144C555.4 142.6 553.6 141.6 552.3 142.1 550.9 142.5 550.1 143.7 549.9 144.9 549.8 145.6 549.8 145.6 550.3 146.3L563.9 182.8 547 203.4 539.4 173.7 523 199.6 513.4 174.8 537.6 144.3C538.5 143.1 538.8 141.2 537.1 139.7 535.9 138.8 533.9 139.2 532.5 140.2L510.6 167.8 504.8 151.4 515.3 138.1C516.8 137.1 516.4 135.1 514.7 133.5 513.6 132.7 511.6 133 510.1 134.1L502 144.4 493.6 123.7C493.3 121.7 491.4 121.4 489.4 121.7 488.7 122.2 487.8 123.4 487.7 124 487.6 124.7 487.5 125.3 488.1 126L495.8 146.7 482.5 144.6C480.6 144.3 479 146 478.8 147.2L478.8 147.2C478.5 149.1 479.6 150.6 481.5 150.9L498.6 153.6 504.4 170.1 470.2 164.7C468.3 164.4 466.9 165.4 466.6 167.3S467.3 170.7 469.2 171L507.2 177 516.8 201.9 487.6 194 501.5 220.8 474.9 216.6 461.2 180.7C460.2 178.6 458.3 178.3 457 178.8 455.6 179.2 454.7 181 455 183L467.4 215.4 450.9 212.8 444.4 196.8C444.1 194.8 442.3 193.9 440.2 194.9 438.8 195.3 437.9 197.1 438.2 199.1L443.3 211.6 421.2 208.1C419.3 207.8 417.9 208.8 417.6 210.7S418.3 214.1 420.2 214.4L442.3 217.9 434.2 228.3C433.5 228.8 433.4 229.4 433.3 230.1 433.1 231.3 433.6 232.1 434.1 232.8 435.8 234.4 437.8 234 438.8 232.2L449.9 219.1 467 221.8 444.6 248.7C444.5 249.3 444.4 250 444.3 250.6 444.1 251.9 444.6 252.6 445.1 253.3 446.8 254.9 448.8 254.6 449.7 252.8L473.9 222.9 500.5 227.2 479 248.4 509.2 249.9 492.3 270.6 454.4 264.5C452.5 264.2 450.9 265.9 450.7 267.2 450.4 269.1 451.5 270.5 453.3 270.8L487.5 276.3 476.8 290.1 459.8 287.4C457.9 287.1 456.4 288.2 456.1 290.1S456.9 293.4 458.8 293.7L472.1 295.9 458.3 313.1C457.6 313.6 457.5 314.3 457.4 314.9 457.3 315.5 457.7 316.9 458.8 317.7 460 318.6 461.9 318.9 462.8 317.1ZM493.4 242.9L511.1 225.6 499.7 203.7 523.9 210.1 536.9 189.5 543.5 213.3 567.9 214.6 550.3 231.8 561.7 253.7 538.1 247.4 524.5 267.9 518.5 244.3 493.4 242.9Z" fill="rgba(51, 121, 194, 0.58)"></path><path d="M855.4 555.5L804.1 542.7 796.2 530.4 811.9 501.7 826.9 501.2 865 538.1C865.5 538.4 865.5 538.4 866.1 538.8 867.2 539.4 868.7 539.4 870.1 538 871.1 536.4 871.1 534.9 869.7 533.5L836.3 501.2 859.2 500.7 874.2 514.7C874.2 514.7 874.7 515 874.7 515 875.9 515.6 877.3 515.7 878.8 514.3 880 513.5 879.8 511.2 878.4 509.7L869 500.2 885.9 500C887.3 500 888.8 498.7 889.2 496.7S887.3 493.4 885.3 493.1L869 493.6 877.9 483.9C879.4 482.6 879.2 480.3 877.8 478.8 876.7 478.2 874.7 477.8 873.2 479.2L859.2 494.1 835.7 494.3 867.9 460.9C869.4 459.5 869.2 457.2 868.4 456.1 866.7 455.1 864.7 454.8 863.2 456.2L826.8 494.6 811.3 494.8 794.9 467.6 802.3 454.1 853 438.9C854.7 438.4 855.7 436.7 855.2 434.9S853 432.3 851.2 432.8L806.6 446.3 818 425.5 837.1 419.9C838.9 419.4 839.8 417.7 839.6 415.4S837.4 412.8 835.7 413.3L822.3 417.6 830.6 402.5C831.5 400.8 830.5 398.8 828.8 397.8 827.1 396.9 825.4 397.4 824.5 399.1L816.1 414.3 812.3 401.2C812.1 398.9 810.5 398 808.4 399.1 806.7 399.6 805.8 401.3 806.3 403L811.8 422.1 800.4 442.9 787.8 398C787.3 396.3 785.1 395 783.3 395.5S780.7 397.7 781.2 399.5L796.1 450.7 788.7 464.2 756.4 464.7 748.8 451.8 761.7 400.4C762 398.4 760.7 397 759 396 757 395.7 755.5 397.1 754.6 398.7L743.7 443.9 731.8 424.2 736.9 404.4C737.3 402.4 735.9 400.9 734.2 400 732.8 399.9 730.7 401 730.4 403L727 415.7 718.1 401.4C717.3 400.2 715.3 399.8 713.6 400.3 712.1 401.7 711.7 403.7 712.5 404.9L721.4 419.2 707.8 416.1C706.4 416.1 704.3 417.2 704.3 418.6 703.3 420.3 704.2 421.4 705.8 422.4 705.8 422.4 706.4 422.7 706.4 422.7L726.3 427.7 738.1 447.4 693 436.5C691 436.1 689.3 436.6 688.9 438.6 688.5 440.6 689.4 441.8 690.5 442.4 691 442.7 691 442.7 691 442.7L743.3 455.3 750.8 468.2 735.1 496.8 720.5 496.8 681.5 460.1C680.7 458.9 678.4 459.1 677.2 459.9 675.7 461.3 675.9 463.6 677.3 465.1L710.7 497.3 687.8 497.9 672.9 483.8C671.5 482.4 669.5 482 668.6 483.7 667.1 485 667.3 487.3 668.1 488.5L678.3 497.8 661.4 498C659.7 498.5 658.2 499.9 657.8 501.9 658.1 502.7 658.9 503.9 660 504.5 660.6 504.8 660.6 504.8 661.5 504.6L678.4 504.4 669.1 514.6C667.6 516 668.1 517.7 668.9 518.9 669.5 519.2 669.5 519.2 670.1 519.5 671.2 520.1 672.6 520.2 673.8 519.4L687.8 504.5 710.8 503.9 678.5 537.3C677.6 539 677.3 541 678.9 541.9 679.2 542.8 679.2 542.8 679.8 543.1 680.9 543.7 682.6 543.2 683.8 542.4L720.5 503.4 735.1 503.4 752.1 531 745 543.9 693.8 558.8C692 559.3 690.8 561.6 691.3 563.3S694.1 566.3 695.8 565.8L740.4 552.3 729.3 572.5 709.9 578.6C708.2 579.1 707.2 580.8 707.8 582.6 708.3 584.3 709.9 585.2 711.7 584.7L724.7 580.9 716.4 596.1C715.8 597.2 716 599.5 717.7 600.4 719.4 601.3 722 600.6 722.6 599.4L730.9 584.3 734.7 597.3C734.9 598.2 735.2 599.1 735.8 599.4 736.9 600 737.7 599.7 738.6 599.5 740.4 599 741.3 597.3 740.8 595.6L735.5 575.9 746.6 555.7 759.2 600.6C759.5 601.4 760 601.7 761.1 602.3 761.7 602.7 762.3 603 763.1 602.7 764.9 602.2 766.1 600 765.6 598.2L751.2 547.3 758.3 534.4 790.1 533.6 798.5 546.2 785.4 598.1C785.3 599.5 785.8 601.3 786.9 601.9 787.5 602.2 787.5 602.2 787.8 601.6 789.5 602.6 791.5 601.5 791.9 599.5L802.8 554.4 815.2 574.3 810.1 594.2C810.1 595.6 810.9 596.8 812 597.4 812 597.4 812.6 597.7 812.6 597.7 814.3 598.6 816.3 597.6 816.7 595.6L819.8 582 828.7 596.3C828.9 597.2 829.5 597.5 830 597.8 831.2 598.4 832.6 598.5 832.9 597.9 835 596.9 835.3 594.9 834.8 593.1L825.9 578.8 838.7 582.1C840.7 582.5 842.7 581.4 843.1 579.4 843.1 578 842.1 575.9 840.6 575.9L820.8 570.8 808.9 551.2 854 562.1C856 562.4 857.5 561.1 858.4 559.4 858.5 557.9 857.4 555.9 855.4 555.5ZM803.9 501.7L791.9 523.6 790.1 527 786.3 527.1 762 527.6 757.7 527.5 755.8 524.2 743.1 503.4 741.3 500.2 743.1 496.8 755.1 474.9 757 471.6 760.7 471.4 785.1 470.9 788.8 470.8 791.2 474.3 803.9 495.1 805.8 498.4 803.9 501.7Z" fill="rgba(51, 121, 194, 0.58)"></path><path d="M1402.2 145.9L1371.6 136.9 1366.2 126.5 1376.6 129.6C1377.6 130.2 1378.6 129.4 1379.2 128.4 1379.3 127.5 1378.7 126.2 1377.8 126.1L1363.6 121.6 1358.1 111.6 1369.5 112.1 1379.7 123C1379.7 123 1380 123.3 1380 123.3 1380.7 123.7 1381.8 123.4 1382.6 122.9 1383.2 121.9 1383.3 121 1382.5 120.1L1375.1 112.2 1386.5 112.7 1408.5 135.7C1408.5 135.7 1408.7 136.2 1408.7 136.2 1409.3 136.7 1410.4 136.4 1411.2 135.9 1412.2 135.1 1412.1 133.7 1411.1 133.1L1392.1 112.8 1406.1 113 1414.6 122.1C1414.6 122.1 1414.6 122.1 1414.9 122.3 1415.6 122.7 1416.5 122.8 1417.3 122.3 1417.9 121.3 1418.2 120 1417.4 119.1L1411.6 113.2 1421.9 113.4C1423.1 113.7 1423.7 112.6 1423.8 111.7 1424.1 110.5 1423.3 109.5 1421.8 109.6L1411.8 109.1 1417.9 103.8C1418.5 102.8 1418.8 101.6 1417.8 101 1416.9 100 1416.1 99.9 1415.1 100.7L1406.1 109.3 1392.3 108.7 1412.7 89.4C1413.5 88.9 1413.4 87.5 1412.6 86.5 1411.9 86.1 1410.7 85.8 1409.7 86.6L1386.7 108.6 1375.3 108.1 1383.1 100.7C1384.1 99.9 1383.8 98.8 1383 97.8 1382.5 97.1 1381.1 97.1 1380.3 97.6L1369.7 108 1358.1 107.8 1364.1 97.9 1378.5 94.6C1379.6 94.3 1380.2 93.3 1379.9 92.2 1380 91.3 1378.7 90.4 1377.5 90.7L1367.1 93.2 1373.2 83.3 1404.4 76.2C1405.5 76 1406.1 75 1405.8 73.9 1405.6 72.7 1404.5 72.1 1403.4 72.4L1376.1 78.5 1383.3 67 1395.4 64.1C1396.5 63.9 1397.1 62.8 1396.9 61.7 1396.6 60.6 1395.6 60 1394.5 60.3L1386.4 61.9 1391.7 53.4C1392.3 52.3 1392.1 51.2 1391 50.6 1390 50 1388.9 50.2 1388.3 51.3L1383 59.8 1381.2 52.1C1380.9 51 1379.9 50.3 1378.8 50.6S1377.1 51.9 1377.3 53L1380.1 64.5 1372.7 76.4 1366.3 49.5C1366.1 48.4 1365.1 47.7 1364 48 1362.9 48.3 1362.2 49.3 1362.5 50.4L1369.8 81.2 1363.7 91.1 1361.2 80.6C1361 79.5 1359.9 78.9 1358.8 79.1 1357.7 79.4 1357.1 80.4 1357.4 81.5L1360.7 95.8 1354.9 105.4 1349.6 95.6 1353.8 81.2C1353.9 80.3 1353.3 79 1352.4 78.9 1351.2 78.6 1350.4 79.1 1349.8 80.1L1346.7 90.4 1341.5 80.6 1350.5 50C1350.8 48.8 1350.3 48 1349.3 47.4 1348.1 47.1 1347.1 47.9 1346.7 48.6L1338.5 75.5 1332.1 63.1 1335.4 51.5C1336.1 50.5 1335.3 49.5 1334.2 48.9 1333.4 48.8 1332 49.4 1331.8 50.7L1329.5 58.2 1324.5 49.5C1324.2 48.4 1323 48.1 1321.7 48.7 1320.9 49.2 1320.6 50.4 1321.1 51.2L1325.9 60.2 1318 57.7C1316.8 57.4 1315.8 58.2 1315.7 59.1 1315.1 60.1 1315.6 60.9 1316.3 61.3 1316.6 61.5 1316.6 61.5 1316.9 61.7L1328.5 65.1 1334.9 77.5 1308.3 69.6C1307.3 68.9 1306.3 69.8 1305.7 70.8 1305.6 71.7 1306.1 72.4 1306.8 72.9 1307.1 73.1 1307.1 73.1 1307.1 73.1L1337.9 82.7 1343.1 92.5 1332.8 89.4C1331.5 89.1 1330.8 89.6 1330.1 90.6 1330.1 91.5 1330.3 92.6 1331 93 1331.3 93.2 1331.3 93.2 1331.7 93.4L1346 97.6 1351.3 107.4 1340.2 107.1 1329.8 96.5C1329 95.5 1327.5 95.6 1326.8 96 1326.2 97 1325.9 98.3 1326.9 98.9L1334.3 106.8 1322.9 106.8 1300.8 83.3C1300.3 82.5 1298.9 82.6 1298.1 83 1297.5 84.1 1297.2 85.3 1298 86.3L1317 106.5 1303.3 105.9 1295.1 97.1C1294.3 96.2 1292.8 96.2 1292.2 97.2 1291.4 97.7 1291.1 98.9 1291.9 99.9L1297.7 105.8 1287.5 105.6C1286.6 105.5 1285.6 106.3 1285.3 107.6 1285.5 108.1 1285.9 108.9 1286.6 109.3 1286.6 109.3 1287 109.5 1287.3 109.7L1297.5 109.9 1291.6 115.7C1290.8 116.1 1290.9 117.6 1291.4 118.3 1291.7 118.6 1291.7 118.6 1291.7 118.6 1292.7 119.2 1293.8 118.9 1294.3 118.2L1303.1 110.1 1317.1 110.2 1296.6 129.6C1296 130.6 1295.9 131.5 1296.7 132.5 1296.7 132.5 1297.1 132.7 1297.1 132.7 1297.8 133.1 1298.7 133.2 1299.6 132.4L1323 110.6 1334.1 110.9 1326.2 118.2C1325.6 119.3 1325.3 120.5 1326.3 121.1 1326.1 121.5 1326.5 121.7 1326.5 121.7 1327.1 122.1 1328.2 121.8 1329 121.4L1339.6 111 1351.1 111.5 1345.2 121 1330.9 124.4C1329.8 124.7 1328.9 126 1329.2 127.1 1329.7 127.9 1330.7 128.5 1331.6 128.6L1342.2 125.8 1336.2 135.7 1305.3 142.9C1304.2 143.2 1303.6 144.2 1303.9 145.3 1304.1 146.4 1305.1 147.1 1306.2 146.8L1333.2 140.4 1325.9 152.3 1314.3 155.1C1313.2 155.3 1312.6 156.4 1312.8 157.5S1314.1 159.2 1315.2 158.9L1322.9 157.1 1317.7 165.6C1317 166.6 1317.3 167.7 1318.3 168.4 1319.3 169 1320.4 168.7 1321.1 167.7L1326.3 159.2 1328.5 167.1C1328.6 167.7 1328.7 168.2 1329.1 168.4 1329.4 168.6 1330.3 168.7 1330.9 168.6 1332 168.3 1332.6 167.3 1332.3 166.2L1329.3 154.4 1336.6 142.5 1343.3 169.7C1343.5 170.3 1343.6 170.8 1343.9 171 1344.3 171.2 1345.2 171.3 1345.7 171.2 1346.8 170.9 1347.4 169.9 1347.2 168.8L1339.6 137.8 1345.7 127.9 1347.9 138.7C1348 139.2 1348.7 139.7 1349.1 139.9 1349.4 140.1 1349.7 140.3 1350.3 140.2 1351.4 139.9 1352.2 138.5 1351.8 137.8L1348.6 123.1 1354.5 113.6 1360 123.6 1355.5 137.8C1355.5 138.7 1355.7 139.8 1356.4 140.2 1356.7 140.4 1356.7 140.4 1357 140 1358 140.7 1359.3 140.1 1359.6 138.8L1362.7 128.5 1368.2 138.5 1358.6 169.3C1358.6 170.2 1359 170.9 1359.7 171.4 1360 171.6 1360 171.6 1360 171.6 1361.3 171.9 1362.4 171.6 1362.7 170.4L1370.8 143.4 1377.3 155.9 1373.9 167.4C1373.6 168.7 1374.1 169.4 1374.7 169.8 1374.7 169.8 1375.1 170.1 1375.1 170.1 1376.3 170.3 1377.3 169.5 1377.7 168.9L1379.9 160.8 1384.6 169.8C1385 170 1385.3 170.3 1385.6 170.5 1386 170.7 1386.9 170.8 1387.4 170.6 1388.4 169.8 1389 168.8 1388.2 167.8L1383.5 158.8 1391.3 161.3C1392.6 161.6 1393.5 160.8 1393.9 160.1 1394.2 158.8 1393.4 157.9 1392.4 157.2L1380.9 153.9 1374.2 141.8 1400.8 149.7C1402 150 1403.3 149.4 1403.4 148.5 1403.7 147.3 1403.5 146.2 1402.2 145.9Z" fill="rgba(51, 121, 194, 0.58)"></path><path d="M1034 329L1077 356.6 1080.5 374.9 1066.1 365.5C1064.8 364.1 1062.9 364.9 1061.5 366.2 1061 367.5 1061.3 369.8 1062.7 370.3L1082.4 383.6 1086.4 401.5 1069 395.6 1058.4 374.2C1058.4 374.2 1057.9 373.7 1057.9 373.7 1057.1 372.8 1055.3 372.7 1053.9 373.1 1052.5 374.3 1052 375.7 1052.8 377.5L1060.6 392.9 1043.2 387 1019.7 341.8C1019.7 341.8 1019.8 340.9 1019.8 340.9 1018.9 339.9 1017.1 339.9 1015.8 340.2 1013.9 341 1013.3 343.3 1014.6 344.7L1034.7 384.3 1013.3 377.7 1004.3 360C1004.3 360 1004.3 360 1003.9 359.5 1003 358.6 1001.7 358.1 1000.3 358.5 998.9 359.7 997.9 361.5 998.7 363.4L1004.9 375 989.3 370.1C987.5 369.1 986.1 370.4 985.5 371.7 984.5 373.5 985.4 375.3 987.6 375.9L1002.7 381.2 991.1 386.5C989.7 387.8 988.7 389.6 990 391 990.8 392.8 992.1 393.4 994 392.6L1011.7 383.5 1032.6 390.5 992.5 411.1C991.2 411.4 990.6 413.7 991.4 415.5 992.3 416.5 994 417.5 995.9 416.7L1041.1 393.2 1058.4 399.1 1043.1 406.9C1041.2 407.7 1041.1 409.5 1041.9 411.4 1042.3 412.8 1044.5 413.3 1045.9 413L1066.9 401.8 1084.7 407.3 1070.9 419.7 1047.4 418.5C1045.6 418.4 1044.2 419.7 1044.1 421.5 1043.6 422.8 1045.3 424.7 1047.1 424.8L1064.3 425.7 1050.5 438.1 999.4 435C997.6 434.9 996.2 436.2 996.1 438 996 439.8 997.3 441.2 999.1 441.3L1043.8 444.1 1027.6 458.7 1007.8 457.6C1006 457.5 1004.5 458.8 1004.4 460.6 1004.3 462.4 1005.6 463.9 1007.4 464L1020.5 465.1 1008.6 475.8C1007.2 477.1 1007.1 478.9 1008.4 480.3 1009.7 481.8 1011.5 481.9 1012.9 480.6L1024.8 469.9 1024.1 482.5C1024 484.3 1025.3 485.8 1027.1 485.8S1030.4 484.7 1030.5 482.9L1031.5 463.9 1048.1 448.9 1045.8 493.2C1045.7 495 1047 496.4 1048.8 496.5 1050.6 496.6 1052 495.3 1052.1 493.5L1054.8 442.9 1068.6 430.5 1067.7 447.6C1067.6 449.5 1068.8 450.9 1070.7 451 1072.5 451.1 1073.9 449.8 1074 448L1075.2 424.5 1088.5 412.5 1092.2 429.9 1079.3 450.1C1078.8 451.4 1079.1 453.7 1080.5 454.2 1082.2 455.2 1083.6 454.8 1085 453.5L1094.4 439.1 1098 456.5 1070.4 499.5C1069.4 501.2 1069.8 502.6 1071 504 1072.8 505 1074.7 504.2 1075.6 503.4L1100.2 465.7 1104.5 487.7 1094.2 503.9C1092.7 505.2 1093.5 507 1094.8 508.4 1096.2 509 1098.4 508.6 1099.4 506.9L1106.3 496.4 1110 512C1109.9 513.8 1111.7 514.8 1114 514.4 1115.4 514.1 1116.4 512.3 1116 510.9L1112.8 494.9 1123.7 502.3C1125.5 503.3 1127.3 502.4 1127.8 501.1 1129.3 499.8 1128.9 498.4 1128 497.5 1127.6 497 1127.6 497 1127.2 496.5L1110.9 486.2 1106.7 464.2 1143.9 488.4C1145.2 489.8 1147.1 489 1148.5 487.7 1149 486.4 1148.6 485 1147.8 484 1147.3 483.6 1147.3 483.6 1147.3 483.6L1104.4 455 1100.8 437.6 1115.3 447C1117 448 1118.4 447.6 1119.8 446.3 1120.4 445 1120.5 443.2 1119.6 442.2 1119.2 441.7 1119.2 441.7 1118.7 441.3L1098.6 428.4 1095 411 1111.9 416.4 1123 437.4C1123.8 439.3 1126.1 439.8 1127.5 439.5 1128.9 438.2 1129.9 436.4 1128.6 435L1120.8 419.6 1138.2 424.6 1161.6 470.7C1162 472.1 1164.2 472.7 1165.6 472.3 1167 471 1168 469.2 1167.2 467.4L1147.1 427.8 1168 434.8 1176.6 452C1177.4 453.9 1179.7 454.4 1181.1 453.2 1182.5 452.8 1183.5 451 1182.7 449.2L1176.5 437.5 1192.1 442.4C1193.4 442.9 1195.3 442.1 1196.3 440.4 1196.3 439.5 1196 438.1 1195.1 437.1 1195.1 437.1 1194.7 436.7 1194.2 436.2L1178.6 431.3 1190.3 425.1C1191.7 424.7 1192.2 422.5 1191.9 421.1 1191.4 420.6 1191.4 420.6 1191.4 420.6 1190.1 419.2 1188.3 419.1 1187.4 420L1170.2 428.6 1148.8 422 1188.8 401.4C1190.2 400.2 1190.8 398.8 1190 397 1190 397 1189.5 396.5 1189.5 396.5 1188.7 395.5 1187.3 395 1185.5 395.8L1139.9 418.8 1122.9 413.4 1138.3 405.6C1139.7 404.3 1140.7 402.5 1139.4 401.1 1139.9 400.7 1139.5 400.2 1139.5 400.2 1138.6 399.3 1136.8 399.2 1135.4 399.5L1114.5 410.7 1097.1 404.8 1110.4 392.8 1133.9 394C1135.7 394.1 1137.6 392.4 1137.7 390.6 1137.3 389.2 1136.1 387.8 1134.7 387.3L1117.1 386.8 1130.9 374.4 1181.5 377C1183.3 377.1 1184.7 375.9 1184.8 374 1184.9 372.2 1183.6 370.8 1181.8 370.7L1137.5 368.4 1154.2 353.4 1173.2 354.4C1175 354.5 1176.4 353.2 1176.5 351.4S1175.3 348.2 1173.5 348.1L1160.8 347.4 1172.7 336.7C1174.2 335.4 1174.3 333.6 1173 332.2 1171.7 330.8 1169.9 330.7 1168.5 331.9L1156.6 342.7 1156.8 329.5C1156.8 328.6 1156.9 327.7 1156.5 327.2 1156 326.8 1154.7 326.2 1153.8 326.2 1152 326.1 1150.6 327.4 1150.5 329.2L1149.9 348.6 1133.3 363.6 1135.2 318.9C1135.2 318 1135.2 317.1 1134.8 316.6 1134.4 316.1 1133.1 315.6 1132.2 315.5 1130.3 315.4 1128.9 316.7 1128.8 318.5L1126.6 369.6 1112.8 382 1114.2 364.4C1114.2 363.5 1113.4 362.6 1112.9 362.1 1112.5 361.6 1112.1 361.2 1111.2 361.1 1109.4 361 1107.5 362.7 1107.8 364.1L1106.1 388 1092.8 400 1088.8 382.1 1102 362.4C1102.6 361.1 1102.7 359.3 1101.8 358.4 1101.4 357.9 1101.4 357.9 1100.9 358.3 1099.6 356.9 1097.3 357.2 1096.3 359L1087 373.4 1082.9 355.5 1111.5 312.6C1112 311.3 1111.6 309.9 1110.7 309 1110.3 308.5 1110.3 308.5 1110.3 308.5 1108.6 307.5 1106.8 307.4 1105.8 309.2L1081.1 346.8 1076.8 324.9 1087.2 308.6C1088.2 306.9 1087.8 305.5 1087 304.6 1087 304.6 1086.5 304.1 1086.5 304.1 1084.8 303.1 1082.9 303.9 1082 304.7L1075 316.2 1071.8 300.1C1071.4 299.7 1070.9 299.2 1070.5 298.7 1070.1 298.2 1068.7 297.7 1067.8 297.7 1066 298.5 1064.6 299.7 1065.4 301.6L1068.6 317.6 1057.7 310.3C1055.9 309.3 1054 310.1 1053.1 310.9 1052.1 312.7 1052.9 314.5 1054.2 316L1070.4 326.3 1075.2 347.9 1037.9 323.7C1036.2 322.7 1033.9 323.1 1033.4 324.4 1032.4 326.2 1032.3 328 1034 329Z" fill="rgba(51, 121, 194, 0.58)"></path><path d="M335.1 495.9L317.2 486.8 328.2 479C329.5 478.3 330 476.3 329.2 474.5 327.9 473.3 325.9 472.7 324.7 473.5L309.9 483.4 293.3 474.9 323.4 455C325.3 453.5 325.8 451.6 324.4 450.4 323.7 448.5 321.7 448 319.9 449.4L286.7 471.5 271.5 464.2 268.9 425.2 281.1 416.7 319 436C319.6 436 320.3 435.9 320.9 435.9 321.5 435.8 322.8 435.1 323.4 434.4 324.5 432.4 323.8 430.6 321.8 430L287.3 412.4 302.7 402.4 320.5 410.9C320.6 411.5 321.2 411.5 321.9 411.4 323.1 411.4 324.4 410.6 324.9 409.3 325.5 408 324.7 406.1 323.3 404.9L308.8 398.2 327.8 385.4C329.1 384.7 329.6 382.7 328.8 380.8 327.4 379.6 325.5 379.1 324.3 379.9L306.5 391.9 305.6 378.5C305.4 376.6 303.4 375.5 302.2 375.5 300.2 375.7 298.4 377.1 298.5 379L299.7 396.2 284.3 406.2 281.9 370.5C281.8 368.5 280.5 367.4 278.5 367.5 276.6 367.6 275.4 369 275.6 370.9L278.2 410.5 265.3 419.7 230.2 402.1 229.2 387.4 263 364.7C264.8 363.9 265.3 361.3 263.9 360.1 263.2 358.2 261.3 358.4 259.4 359.1L228.7 379.8 227.5 361.2 242.8 351.2C244.1 350.5 244.5 347.9 243.8 346.7S240.5 345 238.6 345.7L226.9 353.6 225.5 331.2C225.3 329.3 223.3 328.2 221.4 328.3 220.2 328.4 218.3 329.8 218.4 331.7L219.9 354 206.7 347.9C205.4 347.3 203.5 347.4 202.3 349.4 201.7 350.7 202.6 353.3 203.9 353.8L220.4 361.7 221.7 380.2 188.5 363.8C186.5 363.3 184.6 363.4 183.5 365.4 182.9 366.7 183.7 369.3 185 369.8L222.2 387.9 223.1 402.6 190.6 424.6 176.6 417.2 174 377.6C173.9 375.7 172.5 374.5 170.6 374.6 168.7 374.7 166.9 376.1 167 378.1L169.4 413.8 152.8 405.9 151.7 388.7C151.5 386.8 150.2 385.6 148.3 385.7 146.3 385.8 145.1 387.2 145.3 389.1L146.2 402.5 126.9 392.9C125.6 392.3 123.1 393.1 122.5 394.5 122 396.4 122.2 398.3 124.1 398.9L144 409.1 131.1 417.6C129.9 419 129.4 420.9 130.1 422.2 130.9 423.4 132.2 424 133.5 423.9 133.5 423.9 134.1 423.8 134.7 423.2L151.3 412.4 167.9 420.3 136 442.3C134.1 443.1 133.6 445 135 446.9 135.7 447.5 136.3 448.1 137.6 448 138.3 447.9 138.9 447.9 139.5 447.9L174.5 423.7 187.8 430.6 190.4 469.5 176.2 478.8 140.4 461.3C138.4 460.1 136.5 460.9 136 462.8 134.8 464.2 135.6 466.1 137.6 467.2L170.1 483 154.7 493.7 138.8 485.7C137.5 485.2 135.6 486 134.4 487.3 133.9 489.3 134.1 491.2 136 491.7L148 498 131.4 509.3C129.5 510.1 129.7 512 130.4 513.9 131.1 514.5 132.4 515 133.7 515 133.7 515 134.3 514.9 135 514.9L152.8 502.8 153.8 518.8C153.9 520 155.3 521.9 157.2 521.7 159.2 521.6 160.3 519.6 160.2 518.3L158.9 498.5 174.2 487.9 176.8 526.9C177 528.8 179 529.9 180.9 529.8S184 528.3 183.8 526.4L181 483.6 193.9 475.1 229.1 492.6 230.2 509.2 195.8 532C194.6 533.4 194.1 535.3 194.8 537.2 195.5 537.8 196.8 538.4 198.1 538.3 198.7 538.2 199.4 538.2 200 537.5L230.7 516.9 231.9 535.4 216.6 546C215.3 546.8 214.8 548.7 215.6 550.6 217 551.8 218.9 552.3 220.1 551.6L232.4 543.1 233.8 563.5C233.8 564.8 235.9 566.6 237.2 566.5 239.1 566.4 240.9 564.3 240.8 563L239.4 542.6 252.1 549.5C252.7 549.4 253.4 549.4 254 549.3 255.3 549.3 256.5 548.5 257.1 547.8 257.6 545.9 256.8 544 255.5 542.8L238.9 534.9 237.7 516.4 270.9 532.8C272.9 534 274.7 533.2 275.3 531.9 276.4 529.9 275.7 528 274.3 526.8L237.2 508.8 236.1 492.2 268.6 470.1 282.6 476.9 285.4 519.7C285.5 521.6 286.9 522.8 288.8 522.7 290.7 522.5 291.9 521.2 291.8 519.3L289.2 480.3 305.8 488.8 307.1 508.6C307.2 509.9 309.2 511.7 311.1 511.6 313.1 511.4 314.2 509.4 314.1 508.2L313.1 492.2 332.3 501.8C333 501.8 333 501.8 333.6 501.7 334.9 501.7 336.1 500.9 336.7 500.3 337.2 498.3 336.4 496.4 335.1 495.9ZM235.6 484.5L231.9 486.7 228.6 485 200.1 470.8 196.7 469.1 196.5 465.3 194.4 434 194.2 430.1 197.2 428 223.6 410.2 226.7 408.1 230.7 409.8 258.5 424 262.5 425.6 262.7 429.5 264.8 460.7 265.1 464.6 261.4 466.7 235.6 484.5Z" fill="rgba(51, 121, 194, 0.58)"></path><path d="M1381.1 385.9L1403.3 434.2 1386.6 478.4 1356.6 441.9 1362.1 389.1C1362.1 389.1 1362 388.4 1362 388.4 1361.8 387.2 1360.3 386.1 1359 385.7 1357 385.4 1355.3 386.9 1355.6 388.8L1350.9 435 1336.3 417.3 1338.1 396.9C1338.1 396.9 1338 396.3 1338 396.3 1337.8 395 1336.3 394 1335 393.5 1333 393.2 1331.3 394.8 1331.6 396.7L1330 410.6 1319.4 397.4C1318.5 396.2 1315.9 396 1314.8 396.9 1313 397.8 1313.4 400.3 1314.2 401.5L1324.8 414.7 1310.9 413.1C1308.9 412.8 1307.3 414.3 1307.6 416.2 1307.2 418.2 1308.8 419.9 1310.7 419.6L1331.1 421.4 1345.1 439.2 1298.9 434.5C1296.9 434.2 1295.2 435.8 1295.5 437.7 1295.2 439.7 1296.8 441.3 1298.7 441L1351.5 446.6 1381.5 483.2 1334.2 491 1290.8 459.9C1289.3 458.8 1287.4 459.1 1286.3 460.6 1285.3 462.1 1285.6 463.9 1287.1 465L1325.3 492.4 1302.6 496.2 1286.4 484.6C1284.9 483.5 1283 483.8 1282 485.3 1280.9 486.8 1281.2 488.7 1282.7 489.7L1293.7 497.6 1276.1 500.5C1274.1 500.2 1273.1 502.3 1273.4 504.2 1273.7 506.1 1275.2 507.2 1277.1 506.9L1293.5 504.2 1285.6 515.2C1284.6 516.7 1284.9 518.6 1286.3 519.6S1289.7 520.4 1290.8 518.9L1302.4 502.7 1325.1 499 1297.7 537.2C1296.6 538.7 1296.9 540.6 1298.4 541.6 1299.9 542.7 1301.8 542.4 1302.8 540.9L1333.9 497.5 1380.7 489.8 1364 534.1 1316.9 555.4C1315.1 556.4 1314.8 558.4 1315.1 560.3 1316 562.1 1318 562.4 1319.9 562.1L1362.2 542.8 1354 564.2 1335.3 572.5C1333.5 573.5 1333.2 575.5 1333.5 577.4 1334.4 579.1 1336.4 579.5 1337.7 579.3L1350.3 573.3 1344.5 589.2C1344.1 590.5 1344.5 593 1346.5 593.4 1348.5 593.7 1350.4 593.4 1350.7 591.4L1356.5 575.5 1362.5 588.1C1363.4 589.9 1365.4 590.2 1366.7 590 1367.9 589.2 1368.9 587.7 1368.7 586.5 1368.7 586.5 1368.6 585.8 1368.6 585.8L1360.3 567.1 1368.5 545.6 1387.8 587.9C1388.7 589.7 1390.7 590 1392 589.8 1393.1 588.9 1394.2 587.5 1394 586.2 1394 586.2 1393.9 585.6 1393.9 585.6L1371.6 537.3 1388.3 493.1 1418.4 529.6 1412.8 582.4C1412.5 584.4 1414.1 586.1 1416 585.8 1418 586.1 1419.6 584.6 1419.3 582.7L1424 536.5 1438.6 554.2 1436.8 574.6C1436.5 576.6 1438.1 578.3 1440 578 1442 578.3 1443.6 576.7 1443.3 574.8L1444.9 560.9 1455.5 574.1C1456.4 575.3 1459 575.5 1460.2 574.6 1461.3 573.8 1461.7 572.4 1461.5 571.2 1461.4 570.5 1461.3 569.9 1460.6 569.4L1450 556.2 1463.9 557.8C1465.9 558.1 1467.6 556.5 1467.2 554.7 1467.2 554.7 1467.1 554 1467.1 554 1466.9 552.8 1465.5 551.7 1464.1 551.3L1443.7 549.5 1429.1 531.8 1475.3 536.5C1477.3 536.8 1479 535.2 1478.7 533.3 1478.7 533.3 1478.5 532.7 1478.5 532.7 1478.3 531.4 1476.9 530.4 1475.5 529.9L1422.7 524.4 1392.7 487.8 1439.4 480.1 1482.8 511.2C1484.3 512.3 1486.2 512 1487.2 510.5 1488.3 509 1488 507.1 1486.5 506.1L1448.9 478.5 1471.6 474.8 1487.8 486.4C1489.3 487.5 1491.1 487.1 1492.2 485.7S1492.9 482.3 1491.5 481.3L1480.4 473.3 1496.9 470.6C1498.8 470.3 1499.8 468.9 1499.5 467 1499.2 465.1 1497.7 464 1495.8 464.3L1479.4 467 1487.3 456C1487.8 455.3 1488.4 454.5 1488.2 453.3S1487.2 451.5 1486.5 450.9C1485 449.9 1483.1 450.2 1482.1 451.7L1470.5 467.9 1447.7 471.6 1475.1 433.4C1475.7 432.6 1476.2 431.9 1476 430.6 1475.9 430 1475 428.8 1474.3 428.3 1472.8 427.2 1470.9 427.6 1469.9 429L1438.8 472.4 1392 480.1 1408.8 435.9 1457 413.6C1458.1 412.8 1459.2 411.3 1459 410.1 1459 410.1 1458.9 409.4 1458.9 409.4 1457.9 407.7 1455.9 407.3 1454.7 407.5L1412.4 426.8 1420.6 405.4 1439.3 397.1C1440.5 396.3 1441.5 394.8 1441.3 393.5 1441.3 393.5 1441.2 392.9 1441.2 392.9 1440.3 391.1 1438.3 390.8 1437 391L1424.4 397 1430.2 381.1C1430.1 380.5 1430.6 379.7 1430.5 379.1 1430.3 377.8 1429.5 376.7 1428.1 376.2 1426.1 375.9 1424.2 376.2 1423.9 378.2L1418.1 394.1 1412.1 381.5C1411.2 379.7 1409.2 379.4 1407.9 379.6 1406.1 380.5 1405.8 382.5 1406 383.8L1414.3 402.5 1406.1 424 1386.9 381.7C1385.9 380 1383.9 379.6 1382.7 379.8 1381.1 382.1 1380.1 384.2 1381.1 385.9Z" fill="rgba(51, 121, 194, 0.58)"></path><path d="M264.6 155L231.5 155.2 210.6 134.2 239.2 126.6 267.8 143.5C267.8 143.5 268.2 143.6 268.2 143.6 268.9 143.8 269.9 143.2 270.5 142.5 271.2 141.5 270.8 140.1 269.6 139.8L244.6 125.2 258.4 121.4 269.5 127.8C269.5 127.8 269.9 127.9 269.9 127.9 270.7 128.1 271.7 127.5 272.3 126.9 273 125.8 272.5 124.4 271.4 124.1L263.9 119.6 274.1 117C275 116.8 275.8 115.4 275.6 114.5 275.5 113.2 274 112.8 273.1 113L262.9 115.6 267.4 108.1C268.1 107.1 267.6 105.7 266.5 105.4 265.4 104.7 264 105.2 263.7 106.3L257.4 117.4 243.7 120.8 258.3 95.7C259 94.7 258.5 93.3 257.4 93 256.3 92.3 255 92.8 254.7 93.9L237.8 122.5 209.2 130.1 217.1 101.2 246 84.5C247 84 247.3 82.8 246.7 81.8 246.2 80.8 245 80.5 244 81.1L218.5 95.7 222.3 81.8 233.1 75.6C234.1 75.1 234.4 73.9 233.8 72.9 233.2 72 232.1 71.7 231.1 72.2L223.7 76.4 226.7 65.6C227.4 64.6 226.4 63.5 225.3 63.2 224.1 62.9 223.1 63.4 222.8 64.6L220.1 74.6 215.9 67.3C215.3 66.3 214.1 66 213.2 66.5S211.9 68.3 212.4 69.2L218.6 80 214.9 93.9 200.2 68.4C199.7 67.4 198.5 67.1 197.5 67.7 196.5 68.3 196.2 69.4 196.8 70.4L213.4 99.3 205.7 127.9 184.8 106.9 184.9 74.6C184.8 73.4 183.7 72.7 182.6 72.4 181.3 72.4 180.6 73.5 180.3 74.6L180.3 103.7 170.2 93.5 170.4 80.7C170.3 79.4 169.3 78.7 168.1 78.4 166.8 78.5 166.1 79.5 165.9 80.3L166.1 89 158.5 81.6C157.9 81 156.3 80.6 155.6 81.6 154.9 82.7 154.6 83.9 155.7 84.6L163.2 92 154.5 92.1C153.2 92.2 152.5 93.2 152.3 94 152.5 94.9 153 95.9 153.8 96.1 153.8 96.1 154.2 96.2 154.2 96.2L167 96.3 177.1 106.5 148.1 106.5C146.8 106.6 146.1 107.7 145.9 108.4 146.1 109.3 146.6 110.3 147.4 110.5 147.4 110.5 147.8 110.6 147.8 110.6L181 110.5 201.8 131.4 173.3 139 144.7 122.2C143.6 121.5 142.2 121.9 141.9 123.1 141.2 124.2 141.7 125.5 142.8 125.8L167.9 140.5 154 144.2 142.9 137.9C141.9 137.2 140.5 137.6 140.2 138.8 139.5 139.8 139.9 141.2 141.1 141.5L148.6 146 138.3 148.7C137.5 148.8 136.7 150.3 136.8 151.1 137 152 137.7 152.6 138.5 152.8 138.8 152.9 139.2 153 139.7 152.8L150 150.1 145.4 157.6C144.7 158.7 145.2 160 146.4 160.4 146.4 160.4 146.7 160.5 146.7 160.5 147.5 160.7 148.5 160.1 149.1 159.4L155.4 148.3 169.3 144.6 154.6 169.6C153.9 170.7 154.4 172.1 155.5 172.4 155.5 172.4 155.9 172.5 155.9 172.5 156.7 172.7 157.7 172.1 158.3 171.4L175.1 142.9 203.7 135.2 196 163.8 167 180.4C166.1 181 165.7 182.2 166.3 183.1 166.9 184.1 168 184.4 169 183.9L194.4 169.6 190.7 183.5 179.9 189.7C178.9 190.3 178.6 191.4 179.1 192.4S180.9 193.7 181.8 193.1L189.2 188.9 186.5 199C186.2 200.1 186.7 201.1 187.9 201.4 189 201.7 190 201.2 190.3 200L193.1 190 197.3 197.3C197.6 197.8 197.8 198.3 198.6 198.5S199.9 198.4 200.4 198.2C201.3 197.6 201.7 196.4 201.1 195.5L194.9 184.7 198.7 170.8 213.3 196.3C213.6 196.8 213.9 197.3 214.6 197.5 215 197.6 215.9 197.4 216.4 197.1 217.4 196.5 217.7 195.4 217.1 194.4L200.5 165.5 208.2 136.9 229.1 157.9 229.2 191C229.4 191.9 230 192.9 230.7 193.1 230.7 193.1 231.1 193.2 231.1 193.2 232.4 193.1 233.1 192.1 233.3 191.3L233.3 162.3 243.4 172.5 243.2 185.3C243.4 186.2 243.9 187.2 244.7 187.4 244.7 187.4 245.1 187.5 245.1 187.5 246.4 187.4 247.1 186.3 247.3 185.6L247.2 176.8 254.7 184.3C255.1 184.4 255.3 184.8 255.7 184.9 256.5 185.2 257.4 185 258 184.3 258.7 183.3 259 182.1 257.9 181.4L250.4 174 259.1 173.9C260.4 173.8 261.1 172.7 261.3 172 261.2 170.7 260.2 170 259.4 169.8L246.6 169.6 236.5 159.5 265.5 159.4C266.8 159.4 267.5 158.3 267.7 157.5 266.9 156.1 265.9 155 264.6 155Z" fill="rgba(51, 121, 194, 0.58)"></path><path d="M836.1 304.2L821.5 253.3 828.2 240.4 860.9 239.6 868.8 252.2 856 303.8C856 304.4 856 304.4 856 305 856 306.3 856.7 307.6 858.6 308.2 860.5 308.1 861.8 307.5 862.4 305.5L873.5 260.5 885.5 280 880.8 300C880.8 300 880.9 300.6 880.9 300.6 880.9 301.9 881.6 303.2 883.5 303.8 884.8 304.4 886.7 303 887.3 301.1L890.8 288.2 899.5 302.7C900.1 304 902.1 304.6 904 303.9S905.8 300.7 905.1 298.8L896.5 284.9 909.4 287.8C911.3 288.4 913.2 287.1 913.8 285.1 913.8 283.8 913.1 281.9 911.1 281.3L891.2 276.7 879.2 256.5 924.3 267.6C926.2 268.2 928.1 266.9 928.7 265.6 928.6 263.7 928 261.8 926 261.2L874.5 248.9 866.5 235.6 881.9 207.8 897.3 207.4 935.9 243.6C937.2 244.9 939.1 244.8 940.3 243.5S941.5 240.3 940.2 239.1L906.2 207.2 929.9 206.7 944.3 220.4C945.6 221.7 947.5 221.6 949.4 220.3S950.6 217.1 949.3 215.8L938.8 206.4 956.1 206C958 206 959.3 204 959.2 202.1 959.2 200.2 957.9 199 956 199L938.7 199.4 948.1 189.6C949.9 188.3 949.9 186.3 947.9 185.1 946.6 183.9 944.7 183.9 943.5 185.2L929.7 199.6 906 200.2 938.6 166.8C939.8 165.5 939.8 162.9 938.4 161.6S935.2 160.4 934 161.7L897.1 200.4 881.7 200.7 865.1 172.9 872.5 160 923.3 145.3C925.2 144.7 925.8 142.7 925.8 140.8 925.1 138.9 923.2 138.3 921.3 138.4L876.8 151.6 887.8 131.4 907.5 125.9C909.4 125.2 910 123.3 910 121.3 909.3 120.1 907.4 118.8 905.5 119.5L892.7 123 900.7 108.1C901.3 106.8 900.6 104.9 899.3 103.7 897.4 103.1 895.5 103.7 894.9 105L886.9 119.9 882.8 106.6C882.1 105.3 880.1 104.1 878.9 104.8 876.9 104.8 876.3 106.1 876.4 108 876.4 108 876.4 108.7 876.4 108.7L882 128.4 870.9 148.5 857.7 104C857 102.1 855.7 100.8 853.8 101.5 851.9 102.2 851.3 103.5 851.3 104.8 851.4 105.4 851.4 105.4 851.4 105.4L866.6 156.9 859.3 169.9 826.6 170.6 819.3 158 831.5 105.9C832.1 104.6 830.8 102.7 829.5 102.1 827.6 101.5 825.7 102.8 825.1 104.7L814 149.8 802 130.2 806.7 110.3C807.3 108.4 806.6 106.4 804.6 106.5 802.7 105.9 800.8 107.2 800.2 108.5L797.3 122 788.7 107.5C787.4 106.3 785.4 105.7 783.5 106.3 782.9 107 782.3 108.3 782.3 109.6 782.3 110.2 782.3 110.2 783 110.8L791.6 125.4 778.1 122.5C776.2 121.9 774.9 123.2 774.3 124.5 774.4 125.1 774.4 125.1 774.4 125.8 774.4 127 775.1 128.3 776.4 128.9L796.3 133.6 808.3 153.1 763.2 142C761.3 142.1 759.4 142.8 759.4 144.7 758.8 145.3 758.8 145.3 758.8 146 758.9 147.2 760.2 148.5 761.5 149.1L813.6 161.3 820.9 174 805.6 202.5 790.9 202.8 752.3 166C750.9 164.7 748.4 164.8 747.1 166.1S745.9 170 747.3 171.2L781.3 203.1 758.2 203.6 743.2 189.9C741.9 188.6 740 188.7 738.7 190 737.5 191.3 737.5 193.2 738.8 194.4L748.7 203.8 731.4 204.2C730.1 204.2 728.2 205.6 728.3 207.5 728.3 209.4 730.3 211.3 731.5 211.3L748.8 210.9 739.4 220.7C738.8 221.3 738.2 222 738.2 222.6 738.2 223.9 738.9 224.5 739.5 225.2 740.9 226.4 742.8 226.4 744 225.1L758.4 210.6 781.4 210.1 748.9 243.5C748.3 244.2 748.3 244.8 748.4 246.1 748.4 246.7 748.4 247.4 749 248 750.3 249.2 752.9 249.2 754.2 247.9L791 209.9 805.8 209.5 822.4 236.7 815.7 250.3 764.2 264.9C762.9 265.6 761.6 266.9 761.7 268.2 761.7 268.8 761.7 268.8 762.3 268.8 762.4 270.7 764.3 272 766.2 271.3L810.7 258.1 799.7 278.8 780 284.4C778.7 285.1 778.1 286.4 778.1 287.6 778.1 287.6 778.1 288.3 778.1 288.3 778.2 290.2 780.1 291.4 782 290.7L795.4 286.6 787.4 301.5C786.8 302.2 786.8 302.8 786.8 303.4 786.8 304.7 787.5 306 788.2 306 790.1 307.2 792 306.5 793.3 305.2L801.2 290.3 804.7 303C805.4 304.9 807.4 306.2 809.3 305.5 810.5 304.8 811.8 302.9 811.1 301.6L805.5 281.9 816.6 261.8 829.8 306.3C830.5 308.2 832.4 308.8 834.3 308.7 835.6 308.1 836.8 306.1 836.1 304.2ZM856.9 232.7L831.9 233.3 828.1 233.3 826.1 230.2 813.4 209.4 811.4 205.6 813.3 202.3 824.9 180.9 826.8 177.7 830.6 177.6 855.6 177 859.4 176.9 861.4 180.1 874.1 200.9 876.1 204.1 874.2 207.9 862.6 229.3 860.7 232.6 856.9 232.7Z" fill="rgba(51, 121, 194, 0.58)"></path></g><defs><mask id="SvgjsMask1002"><rect width="1440" height="560" fill="#ffffff"></rect></mask><filter id="SvgjsFilter1003"><feGaussianBlur stdDeviation="1"></feGaussianBlur></filter></defs></svg>